<?xml version="1.0" standalone="no"?>
<!DOCTYPE svg PUBLIC "-//W3C//DTD SVG 1.1//EN" "http://www.w3.org/Graphics/SVG/1.1/DTD/svg11.dtd" >
<svg>
<metadata>
Created by FontForge 20090914 at Tue Apr  7 22:59:42 2020
 By www-data
Copyright (c) 2012, Eduardo Tunni (http://www.tipo.net.ar), with Reserved Font Name 'Croissant'
</metadata>
<defs>
<font id="CroissantOne-Regular" horiz-adv-x="707" >
  <font-face 
    font-family="Croissant One"
    font-weight="400"
    font-stretch="normal"
    units-per-em="1000"
    panose-1="2 0 5 3 8 0 0 2 0 4"
    ascent="800"
    descent="-200"
    x-height="499.999"
    cap-height="700"
    bbox="-67.001 -344.001 1309 1071"
    underline-thickness="3"
    underline-position="1"
    unicode-range="U+0020-U+FB02"
  />
<missing-glyph horiz-adv-x="300" 
 />
    <glyph glyph-name="fi" unicode="fi" horiz-adv-x="823" 
d="M271 -132h-150.001v577h-82v41h82v101c0 52.667 15 95.5 45 128.5s78.333 49.5 145 49.5c32.667 0 63.834 -6 93.501 -18s54.167 -28 73.5 -48l-27 -31c-28.667 24.667 -60.667 37 -96 37c-56 0 -84 -36.667 -84 -110v-109h83c60 0 114.833 4.83301 164.5 14.5
s82.167 14.5 97.5 14.5c62.667 0 94 -27 94 -81v-323c0 -18 4.33301 -32.167 13 -42.5s22 -15.5 40 -15.5s38.667 9.66699 62 29l18 -24c-53.333 -48.667 -106.666 -73 -159.999 -73c-82 0 -123 49 -123 147v335c-58.667 -14.667 -127.334 -22 -206.001 -22h-83v-577z
M554.999 670c0 22 7.83301 40.833 23.5 56.5s34.5 23.5 56.5 23.5s40.833 -7.83301 56.5 -23.5s23.5 -34.5 23.5 -56.5s-7.83301 -40.833 -23.5 -56.5s-34.5 -23.5 -56.5 -23.5s-40.833 7.83301 -56.5 23.5s-23.5 34.5 -23.5 56.5z" />
    <glyph glyph-name="fl" unicode="fl" horiz-adv-x="798" 
d="M39 445l-0.00292969 41h82v101c0 52.667 15 95.5 45 128.5s78.333 49.5 145 49.5c52.667 0 99.334 -14.333 140.001 -43c40.667 28.667 87.334 43 140.001 43c25.333 0 47.333 -5.83301 66 -17.5s28 -26.167 28 -43.5v-593c0 -18 4.33301 -32.167 13 -42.5
s22 -15.5 40 -15.5s38.667 9.66699 62 29l18 -24c-53.333 -48.667 -106.666 -73 -159.999 -73c-82 0 -123 49 -123 147v585c-33.333 -8.66699 -61.333 -25 -84 -49c-28.667 24.667 -60.667 37 -96 37c-56 0 -84 -36.667 -84 -110v-109h113v-41h-113v-577h-150v577h-82z" />
    <glyph glyph-name=".notdef" horiz-adv-x="300" 
 />
    <glyph glyph-name="space" unicode=" " horiz-adv-x="300" 
 />
    <glyph glyph-name="exclam" unicode="!" horiz-adv-x="358" 
d="M102 62c0 21.333 7.5 39.5 22.5 54.5s33.167 22.5 54.5 22.5s39.5 -7.5 54.5 -22.5s22.5 -33.167 22.5 -54.5s-7.5 -39.5 -22.5 -54.5s-33.167 -22.5 -54.5 -22.5s-39.5 7.5 -54.5 22.5s-22.5 33.167 -22.5 54.5zM108.5 538c-5.66699 46 -8.5 79.5 -8.5 100.5
s7.16699 39 21.5 54s33.5 22.5 57.5 22.5s43.167 -7.5 57.5 -22.5s21.5 -33 21.5 -54s-2.83301 -54.5 -8.5 -100.5s-13.167 -102.5 -22.5 -169.5s-16.333 -122.167 -21 -165.5h-54c-4.66699 43.333 -11.667 98.5 -21 165.5s-16.833 123.5 -22.5 169.5z" />
    <glyph glyph-name="quotedbl" unicode="&#x22;" horiz-adv-x="512" 
d="M92.5 646.5c-5 23.667 -7.5 42.667 -7.5 57s6.33301 28.166 19 41.499s30 20 52 20s39.333 -6.66699 52 -20s19 -27.166 19 -41.499s-2.5 -33.333 -7.5 -57s-11.833 -53.167 -20.5 -88.5s-15 -63 -19 -83h-48c-4 20 -10.333 47.667 -19 83s-15.5 64.833 -20.5 88.5z
M292.5 646.5c-5 23.667 -7.5 42.667 -7.5 57s6.33301 28.166 19 41.499s30 20 52 20s39.333 -6.66699 52 -20s19 -27.166 19 -41.499s-2.5 -33.333 -7.5 -57s-11.833 -53.167 -20.5 -88.5s-15 -63 -19 -83h-48c-4 20 -10.333 47.667 -19 83s-15.5 64.833 -20.5 88.5z" />
    <glyph glyph-name="numbersign" unicode="#" horiz-adv-x="742" 
d="M114 420l18 60h130l69 220h60l-69 -220h180l69 220h60l-69 -220h130l-19 -60h-130l-44 -140h130l-19 -60h-130l-69 -220h-60l69 220h-180l-69 -220h-60l69 220h-130l19 60h130l44 140h-129zM303 420l-44 -140h180l44 140h-180z" />
    <glyph glyph-name="dollar" unicode="$" horiz-adv-x="650" 
d="M330 800l0.000976562 -85.0029c54 0 102.833 -12.5 146.5 -37.5s65.5 -59.5 65.5 -103.5c0 -20 -7 -37 -21 -51s-31 -21 -51 -21s-37 7.16699 -51 21.5s-21 30.333 -21 48s4.66699 32.834 14 45.501s21.666 21.334 36.999 26.001c-32 16.667 -71.667 25 -119 25v-245
l91 -48c96.667 -50.667 145 -117.334 145 -200.001c0 -60.667 -22.167 -107 -66.5 -139s-100.833 -49 -169.5 -51v-85h-30v86c-58 2.66699 -108.5 18 -151.5 46s-64.5 66 -64.5 114c0 20 7 37 21 51s31 21 51 21s37 -7.16699 51 -21.5s21 -31.333 21 -51
s-6.5 -36.167 -19.5 -49.5s-28.833 -20.666 -47.5 -21.999c30.667 -25.333 77 -39.333 139 -42v246l-75 40c-85.333 46 -128 111.667 -128 197c0 50.667 16.833 94.834 50.5 132.501s84.5 59.5 152.5 65.5v87h30zM446.001 137.997c0 40.667 -24.333 74.333 -73 101l-43 23
v-230c36 2.66699 64.333 13.5 85 32.5s31 43.5 31 73.5zM220.001 562.996c0 -56 26.667 -97.333 80 -124v225c-26.667 -6.66699 -46.667 -19.667 -60 -39s-20 -40 -20 -62z" />
    <glyph glyph-name="percent" unicode="%" horiz-adv-x="1044" 
d="M737 700l-390 -700h-40l390 700h40zM134 645c29.333 42.667 68.333 63.999 117 63.999s87.834 -21.333 117.501 -64s44.5 -95.5 44.5 -158.5s-14.833 -115.5 -44.5 -157.5s-68.834 -63 -117.501 -63s-87.667 21.167 -117 63.5s-44 94.833 -44 157.5
s14.667 115.334 44 158.001zM299 620.499c-10.667 34.333 -26.5 51.5 -47.5 51.5s-36.833 -17.167 -47.5 -51.5s-16 -78.833 -16 -133.5s5.33301 -99 16 -133s26.5 -51 47.5 -51s36.833 17 47.5 51s16 78.333 16 133s-5.33301 99.167 -16 133.5zM675 369.999
c29.333 42.667 68.333 63.999 117 63.999s87.834 -21.333 117.501 -64s44.5 -95.5 44.5 -158.5s-14.833 -115.5 -44.5 -157.5s-68.834 -63 -117.501 -63s-87.667 21.167 -117 63.5s-44 94.833 -44 157.5s14.667 115.334 44 158.001zM840 345.498
c-10.667 34.333 -26.5 51.5 -47.5 51.5s-36.833 -17.167 -47.5 -51.5s-16 -78.833 -16 -133.5s5.33301 -99 16 -133s26.5 -51 47.5 -51s36.833 17 47.5 51s16 78.333 16 133s-5.33301 99.167 -16 133.5z" />
    <glyph glyph-name="ampersand" unicode="&#x26;" horiz-adv-x="637" 
d="M69.5 30c-26.333 30 -39.501 69.999 -39.501 119.999s15.333 92.333 46 127s74.334 52 131.001 52h12c-47.333 94.667 -71 166.667 -71 216c0 113.333 74.667 170 224 170c46.667 0 90.667 -10.667 132 -32s62 -46.666 62 -75.999c0 -11.333 -3.66699 -24.333 -11 -39
l-48 -92l-35 11v84c0 30 -10.167 53.667 -30.5 71s-45.166 26 -74.499 26s-51.833 -7.5 -67.5 -22.5s-23.5 -32.5 -23.5 -52.5c0 -27.333 14 -69 42 -125l18.5 -38c5 -10.667 12.833 -26.5 23.5 -47.5l27 -53.5h168v-45h-146l91 -186c14.667 -30 34 -45 58 -45
s47.667 9.66699 71 29l18 -24c-53.333 -48.667 -110 -73 -170 -73c-32 0 -59 8 -81 24s-45.333 50.667 -70 104c-10 -38 -28.333 -68.833 -55 -92.5s-60.334 -35.5 -101.001 -35.5s-74.167 15 -100.5 45zM167.999 172.999c0 -34 4.99902 -62 14.999 -84s25.667 -33 47 -33
s37.833 10.667 49.5 32s17.834 49 18.501 83l-56 113h-4c-23.333 0 -40.833 -10 -52.5 -30s-17.5 -47 -17.5 -81z" />
    <glyph glyph-name="quotesingle" unicode="'" horiz-adv-x="312" 
d="M92.5 646.5c-5 23.667 -7.5 42.667 -7.5 57s6.33301 28.166 19 41.499s30 20 52 20s39.333 -6.66699 52 -20s19 -27.166 19 -41.499s-2.5 -33.333 -7.5 -57s-11.833 -53.167 -20.5 -88.5s-15 -63 -19 -83h-48c-4 20 -10.333 47.667 -19 83s-15.5 64.833 -20.5 88.5z" />
    <glyph glyph-name="parenleft" unicode="(" horiz-adv-x="414" 
d="M205 351c0 -106 16.5 -190.669 49.5 -254.002s80.833 -103.666 143.5 -120.999v-23c-102.667 0 -184.667 33.5 -246 100.5s-92 166.167 -92 297.5s30.667 230.5 92 297.5s143.333 100.5 246 100.5v-23c-62.667 -17.333 -110.5 -57.666 -143.5 -120.999
s-49.5 -148 -49.5 -254z" />
    <glyph glyph-name="parenright" unicode=")" horiz-adv-x="414" 
d="M209 351c0 106 -16.5 190.669 -49.5 254.002s-80.833 103.666 -143.5 120.999v23c102.667 0 184.667 -33.5 246 -100.5s92 -166.167 92 -297.5s-30.667 -230.5 -92 -297.5s-143.333 -100.5 -246 -100.5v23c62.667 17.333 110.5 57.666 143.5 120.999s49.5 148 49.5 254z
" />
    <glyph glyph-name="asterisk" unicode="*" horiz-adv-x="577" 
d="M262 562c-28 72.667 -42.001 117.168 -42.001 133.501s6.16699 32 18.5 47s29.166 22.5 50.499 22.5s38.166 -7.5 50.499 -22.5s18.5 -32.167 18.5 -51.5c0 -10.667 -6.5 -33 -19.5 -67s-20.833 -55 -23.5 -63l7 -5c9.33301 6.66699 20.833 15.334 34.5 26.001l31.5 24.5
c7.33301 5.66699 15.666 11.5 24.999 17.5c17.333 11.333 33.333 17 48 17s29.334 -6 44.001 -18s22 -29.167 22 -51.5s-8.66699 -39.5 -26 -51.5s-38.666 -18 -63.999 -18l-98 3l-3 -8c9.33301 -6.66699 22.833 -15.834 40.5 -27.501s30 -20 37 -25
s15.167 -11.833 24.5 -20.5c16 -14.667 24 -31.167 24 -49.5s-6.33301 -34.5 -19 -48.5s-26 -21 -40 -21s-24.5 0.833008 -31.5 2.5s-13.5 5.5 -19.5 11.5s-10.667 11 -14 15s-7.33301 12 -12 24s-8 21.333 -10 28l-23 79h-9c-3.33301 -10.667 -7.33301 -24.334 -12 -41.001
s-8.16699 -28.834 -10.5 -36.501s-5.5 -17.167 -9.5 -28.5s-7.83301 -19.333 -11.5 -24s-8.5 -9.66699 -14.5 -15c-9.33301 -10 -23.666 -15 -42.999 -15s-35.333 7 -48 21s-19 27.667 -19 41s1.5 24 4.5 32s9.16699 16.333 18.5 25s17.166 15.5 23.499 20.5
s18.5 13.333 36.5 25s31.667 20.834 41 27.501l-3 9l-97 -3c-25.333 0 -46.666 5.83301 -63.999 17.5s-26 28.667 -26 51s7.33301 39.5 22 51.5s31 18 49 18c13.333 0 26.333 -4.33301 39 -13s22.334 -15.5 29.001 -20.5l31 -24l34 -26.5z" />
    <glyph glyph-name="plus" unicode="+" horiz-adv-x="560" 
d="M90 320v60h160v160h60v-160h160v-60h-160v-160h-60v160h-160z" />
    <glyph glyph-name="comma" unicode="," horiz-adv-x="274" 
d="M67 -144c29.333 34 43.999 63.502 43.999 88.502s-8.5 44.667 -25.5 59s-25.5 33 -25.5 56s7.5 42 22.5 57s33.333 22.5 55 22.5s39.834 -8.33301 54.501 -25s22 -39.334 22 -68.001c0 -74.667 -40 -146.334 -120 -215.001z" />
    <glyph glyph-name="hyphen" unicode="-" horiz-adv-x="400" 
d="M50 252v60h300v-60h-300z" />
    <glyph glyph-name="period" unicode="." horiz-adv-x="274" 
d="M60 62c0 21.333 7.5 39.5 22.5 54.5s33.167 22.5 54.5 22.5s39.5 -7.5 54.5 -22.5s22.5 -33.167 22.5 -54.5s-7.5 -39.5 -22.5 -54.5s-33.167 -22.5 -54.5 -22.5s-39.5 7.5 -54.5 22.5s-22.5 33.167 -22.5 54.5z" />
    <glyph glyph-name="slash" unicode="/" horiz-adv-x="410" 
d="M380 700l-260 -700h-90l260 700h90z" />
    <glyph glyph-name="zero" unicode="0" horiz-adv-x="600" 
d="M109 609.5c48.667 70.333 112.334 105.499 191.001 105.499s142.334 -35.167 191.001 -105.5s73 -157.166 73 -260.499s-24.333 -189.833 -73 -259.5s-112.334 -104.5 -191.001 -104.5s-142.334 35 -191.001 105s-73 156.5 -73 259.5s24.333 189.667 73 260zM300 673.999
c-38.667 0 -68.167 -30.5 -88.5 -91.5s-30.5 -138.667 -30.5 -233s10.167 -171.833 30.5 -232.5s49.833 -91 88.5 -91s68.167 30.333 88.5 91s30.5 138.167 30.5 232.5s-10.167 172 -30.5 233s-49.833 91.5 -88.5 91.5z" />
    <glyph glyph-name="one" unicode="1" horiz-adv-x="472" 
d="M342 700v-660h130v-40h-430v40h150v537c-62 -26 -126 -39 -192 -39v40c61.333 0 118.5 11.333 171.5 34s95.167 52 126.5 88h44z" />
    <glyph glyph-name="two" unicode="2" horiz-adv-x="600" 
d="M466 0h-423.999v40l235 238c68.667 69.333 103 142.666 103 219.999c0 47.333 -13.5 86.666 -40.5 117.999s-61.167 47 -102.5 47c-30 0 -56.333 -4.66699 -79 -14c15.333 -5.33301 28 -14.833 38 -28.5s15 -30.167 15 -49.5s-8 -37 -24 -53s-35 -24 -57 -24
s-40.667 7.83301 -56 23.5s-23 34.5 -23 56.5c0 42.667 22.5 76.834 67.5 102.501s101.167 38.5 168.5 38.5s122.666 -17.833 165.999 -53.5s65 -79.5 65 -131.5c0 -40 -12.667 -77.333 -38 -112s-72.333 -84.667 -141 -150l-183 -176h166c42.667 0 73.667 6 93 18
s32.333 33.333 39 64l7 36h39l27 -168c0 -13.333 -3 -23.166 -9 -29.499s-12.5 -10 -19.5 -11s-17.833 -1.5 -32.5 -1.5z" />
    <glyph glyph-name="three" unicode="3" horiz-adv-x="600" 
d="M211 620.5c10 -13.667 15 -30.167 15 -49.5s-7.83301 -37 -23.5 -53s-34.5 -24 -56.5 -24s-40.833 7.83301 -56.5 23.5s-23.5 34.5 -23.5 56.5c0 43.333 23.167 77.666 69.5 102.999s103.5 38 171.5 38s122.667 -17.833 164 -53.5s62 -79.5 62 -131.5
c0 -38.667 -12.333 -73.5 -37 -104.5s-58.667 -54.833 -102 -71.5c46.667 -15.333 83.167 -37.666 109.5 -66.999s39.5 -61.666 39.5 -96.999c0 -58 -24.5 -106.667 -73.5 -146s-112.833 -59 -191.5 -59c-59.333 0 -111.166 12.5 -155.499 37.5s-66.5 59.5 -66.5 103.5
c0 22 7.83301 40.833 23.5 56.5s34.5 23.5 56.5 23.5s40.833 -8 56.5 -24s23.5 -33.833 23.5 -53.5s-5.5 -36.667 -16.5 -51s-24.833 -23.833 -41.5 -28.5c18 -8 39.333 -12 64 -12c54 0 95.167 15.167 123.5 45.5s42.5 65.666 42.5 105.999s-13.333 74.5 -40 102.5
s-65.334 42 -116.001 42h-54v42h69c49.333 0 86.833 15.333 112.5 46s38.5 65.5 38.5 104.5s-12.5 71.667 -37.5 98s-61.167 39.5 -108.5 39.5c-30 0 -56.333 -4.66699 -79 -14c15.333 -5.33301 28 -14.833 38 -28.5z" />
    <glyph glyph-name="four" unicode="4" horiz-adv-x="600" 
d="M349 700c0 -94 -27.168 -185.5 -81.501 -274.5s-116.833 -161.167 -187.5 -216.5h244v201c56.667 24 92 59 106 105h44v-306h60v-50h-60v-119h120v-40h-400v40h130v119h-307v50c64.667 60.667 108.334 141 131.001 241c18 80.667 28.333 164 31 250h170z" />
    <glyph glyph-name="five" unicode="5" horiz-adv-x="600" 
d="M456 700c14.667 0 25.498 -0.5 32.498 -1.5s13.5 -4.66699 19.5 -11s9 -16.166 9 -29.499l-27 -168h-39l-9 46c-6.66699 30.667 -19.667 52 -39 64s-50.333 18 -93 18h-136l-16 -223c36.667 13.333 71.334 20 104.001 20c85.333 0 154.333 -20.667 207 -62
s79 -92.333 79 -153s-24.5 -111.667 -73.5 -153s-112.833 -62 -191.5 -62c-59.333 0 -111.166 12.5 -155.499 37.5s-66.5 59.5 -66.5 103.5c0 22 7.83301 40.833 23.5 56.5s34.5 23.5 56.5 23.5s40.833 -8 56.5 -24s23.5 -33.833 23.5 -53.5s-5.5 -36.667 -16.5 -51
s-24.833 -23.833 -41.5 -28.5c18 -8 39.333 -12 64 -12c54 0 95.167 16.167 123.5 48.5s42.5 70.666 42.5 114.999s-14.167 82.5 -42.5 114.5s-66.5 48 -114.5 48s-85.667 -9.33301 -113 -28l-25 29l23 336h335z" />
    <glyph glyph-name="six" unicode="6" horiz-adv-x="600" 
d="M389.5 508c-15.667 16 -23.501 33.832 -23.501 53.499s5.5 36.667 16.5 51s25.167 23.833 42.5 28.5c-22.667 22.667 -51.667 34 -87 34c-92.667 0 -140 -105.667 -142 -317c28.667 44.667 73.834 67 135.501 67s113 -21 154 -63s61.5 -93.667 61.5 -155
s-22 -113.666 -66 -156.999s-103 -65 -177 -65c-163.333 0 -245 118 -245 354c0 113.333 25.667 204.333 77 273s118.333 103 201 103c58 0 104 -16 138 -48s51 -66.333 51 -103c0 -22 -7.83301 -40.833 -23.5 -56.5s-34.5 -23.5 -56.5 -23.5s-40.833 8 -56.5 24z
M384.999 325.499c-18 32.333 -44.833 48.5 -80.5 48.5s-63 -15.167 -82 -45.5s-28.5 -70.833 -28.5 -121.5s9.33301 -93.5 28 -128.5s45.5 -52.5 80.5 -52.5s62 16.333 81 49s28.5 74.5 28.5 125.5s-9 92.667 -27 125z" />
    <glyph glyph-name="seven" unicode="7" horiz-adv-x="518" 
d="M308.5 132.5c9.66699 -32.333 14.501 -57.168 14.501 -74.501s-7.83301 -33.833 -23.5 -49.5s-34.834 -23.5 -57.501 -23.5s-41.5 9 -56.5 27s-22.5 40 -22.5 66s3.16699 54.833 9.5 86.5s17 70 32 115s38.667 94.833 71 149.5s70.833 106.334 115.5 155.001l31 34h-185
c-42.667 0 -73.667 -6 -93 -18s-32.333 -33.333 -39 -64l-9 -46h-39l-27 168c0 13.333 3 23.166 9 29.499s12.5 10 19.5 11s17.833 1.5 32.5 1.5h414v-40c-140.667 -159.333 -211 -304.333 -211 -435c0 -29.333 4.83301 -60.166 14.5 -92.499z" />
    <glyph glyph-name="eight" unicode="8" horiz-adv-x="600" 
d="M519 616.5c14.667 -25 21.9971 -55 21.9971 -90s-12 -68.167 -36 -99.5s-55.667 -55.333 -95 -72c45.333 -16 81.833 -39.833 109.5 -71.5s41.5 -66.167 41.5 -103.5c0 -64 -25.667 -112.5 -77 -145.5s-112.666 -49.5 -183.999 -49.5c-63.333 0 -121.333 14.333 -174 43
c-26 14.667 -47 35.167 -63 61.5s-24 57.166 -24 92.499s13.833 69 41.5 101s63.834 56 108.501 72c-38.667 16.667 -70 40.667 -94 72s-36 66.833 -36 106.5s12.333 73.834 37 102.501c44.667 52.667 112.667 79 204 79c58.667 0 112 -13.667 160 -41
c24.667 -13.333 44.334 -32.5 59.001 -57.5zM410.997 170c0 76 -43.667 127.667 -131 155c-60.667 -28 -91 -79.667 -91 -155c0 -40.667 10.167 -74.667 30.5 -102s47.333 -41 81 -41s60.5 13.667 80.5 41s30 61.333 30 102zM405.997 540
c0 34.667 -9.33203 65.5 -27.999 92.5s-44.834 40.5 -78.501 40.5s-59.667 -13.167 -78 -39.5s-27.5 -57.5 -27.5 -93.5c0 -86 42 -139 126 -159c57.333 20 86 73 86 159z" />
    <glyph glyph-name="nine" unicode="9" horiz-adv-x="600" 
d="M203 192c16 -16 24 -33.8359 24 -53.5029s-5.16699 -36.5 -15.5 -50.5s-23.833 -23.667 -40.5 -29c24.667 -22.667 56 -34 94 -34c46.667 0 82.667 22.667 108 68s38 114.333 38 207c0 4.66699 -0.166992 13.334 -0.5 26.001s-0.5 21.334 -0.5 26.001
c-32 -51.333 -83.333 -77 -154 -77c-56.667 0 -104.167 19.667 -142.5 59s-57.5 91 -57.5 155s22 117.667 66 161s103 65 177 65c84.667 0 146.667 -31.667 186 -95s59 -150.666 59 -261.999s-25.667 -201.333 -77 -270s-118.333 -103 -201 -103
c-56 0 -103.167 13.667 -141.5 41s-57.5 64 -57.5 110c0 22 7.66699 40.833 23 56.5s34 23.5 56 23.5s41 -8 57 -24zM218 374.497c18 -32.333 44.833 -48.5 80.5 -48.5s63 15.167 82 45.5s28.5 70.833 28.5 121.5s-9.33301 93.5 -28 128.5s-45.5 52.5 -80.5 52.5
s-62 -16.333 -81 -49s-28.5 -74.5 -28.5 -125.5s9 -92.667 27 -125z" />
    <glyph glyph-name="colon" unicode=":" horiz-adv-x="274" 
d="M60 62c0 21.333 7.5 39.5 22.5 54.5s33.167 22.5 54.5 22.5s39.5 -7.5 54.5 -22.5s22.5 -33.167 22.5 -54.5s-7.5 -39.5 -22.5 -54.5s-33.167 -22.5 -54.5 -22.5s-39.5 7.5 -54.5 22.5s-22.5 33.167 -22.5 54.5zM60 422c0 21.333 7.5 39.5 22.5 54.5
s33.167 22.5 54.5 22.5s39.5 -7.5 54.5 -22.5s22.5 -33.167 22.5 -54.5s-7.5 -39.5 -22.5 -54.5s-33.167 -22.5 -54.5 -22.5s-39.5 7.5 -54.5 22.5s-22.5 33.167 -22.5 54.5z" />
    <glyph glyph-name="semicolon" unicode=";" horiz-adv-x="274" 
d="M67 -144c29.333 34 43.999 63.502 43.999 88.502s-8.5 44.667 -25.5 59s-25.5 33 -25.5 56s7.5 42 22.5 57s33.333 22.5 55 22.5s39.834 -8.33301 54.501 -25s22 -39.334 22 -68.001c0 -74.667 -40 -146.334 -120 -215.001zM59.999 422.002c0 21.333 7.5 39.5 22.5 54.5
s33.167 22.5 54.5 22.5s39.5 -7.5 54.5 -22.5s22.5 -33.167 22.5 -54.5s-7.5 -39.5 -22.5 -54.5s-33.167 -22.5 -54.5 -22.5s-39.5 7.5 -54.5 22.5s-22.5 33.167 -22.5 54.5z" />
    <glyph glyph-name="less" unicode="&#x3c;" horiz-adv-x="560" 
d="M90 320v60l380 160v-60l-309 -130l309 -130v-60z" />
    <glyph glyph-name="equal" unicode="=" horiz-adv-x="560" 
d="M90 220v60h380v-60h-380zM90 420v60h380v-60h-380z" />
    <glyph glyph-name="greater" unicode="&#x3e;" horiz-adv-x="560" 
d="M470 380v-60l-380 -160v60l309 130l-309 130v60z" />
    <glyph glyph-name="question" unicode="?" horiz-adv-x="527" 
d="M309 411.5c22 32.333 33.001 68.166 33.001 107.499s-11.667 73.166 -35 101.499s-57 42.5 -101 42.5c-21.333 0 -40.333 -3.66699 -57 -11c18 -4.66699 32.667 -14.167 44 -28.5s17 -31.5 17 -51.5s-8 -38 -24 -54s-35 -24 -57 -24s-40.667 7.83301 -56 23.5
s-23 34.5 -23 56.5c0 44.667 21.167 79.334 63.5 104.001s93.666 37 153.999 37s110.333 -17.833 150 -53.5s59.5 -79.167 59.5 -130.5s-17.333 -96.166 -52 -134.499s-82 -64.166 -142 -77.499l-14 -116h-54l-17 146c52 9.33301 89 30.166 111 62.499zM165.001 62
c0 21.333 7.5 39.5 22.5 54.5s33.167 22.5 54.5 22.5s39.5 -7.5 54.5 -22.5s22.5 -33.167 22.5 -54.5s-7.5 -39.5 -22.5 -54.5s-33.167 -22.5 -54.5 -22.5s-39.5 7.5 -54.5 22.5s-22.5 33.167 -22.5 54.5z" />
    <glyph glyph-name="at" unicode="@" horiz-adv-x="1054" 
d="M527 -198c-60 0 -117.664 11.833 -172.997 35.5s-103 55.5 -143 95.5s-71.833 87.667 -95.5 143s-35.5 113 -35.5 173s11.833 117.667 35.5 173s55.5 103 95.5 143s87.667 71.833 143 95.5s113 35.5 173 35.5s117.667 -11.833 173 -35.5s103 -55.5 143 -95.5
s71.833 -87.667 95.5 -143s35.5 -108.5 35.5 -159.5s-6.5 -93.167 -19.5 -126.5s-30.167 -60 -51.5 -80c-43.333 -39.333 -91.666 -59 -144.999 -59c-34 0 -64.333 8.5 -91 25.5s-44 40.5 -52 70.5h-10c-34.667 -47.333 -80.334 -71 -137.001 -71
s-101.167 21.833 -133.5 65.5s-48.5 97.834 -48.5 162.501s18.5 118.5 55.5 161.5s88.5 64.5 154.5 64.5c47.333 0 84.666 -15.333 111.999 -46l24 35h108v-322c0 -27.333 5.5 -48.333 16.5 -63s26.5 -22 46.5 -22c29.333 0 56.666 16.833 81.999 50.5s38 80.5 38 140.5
c0 108.667 -38.833 201.834 -116.5 279.501s-170.834 116.5 -279.501 116.5s-201.834 -38.833 -279.501 -116.5s-116.5 -170.834 -116.5 -279.501s38.833 -201.834 116.5 -279.501s170.834 -116.5 279.501 -116.5c72 0 139 18.333 201 55l23 -44
c-70 -41.333 -144.667 -62 -224 -62zM429.003 250c0 -50.667 7.16602 -90.999 21.499 -120.999s36.166 -45 65.499 -45c16.667 0 32.5 5 47.5 15s26.167 23.333 33.5 40v229c-7.33301 14.667 -18.666 26.167 -33.999 34.5s-31 12.5 -47 12.5
c-29.333 0 -51.166 -14.833 -65.499 -44.5s-21.5 -69.834 -21.5 -120.501z" />
    <glyph glyph-name="A" unicode="A" horiz-adv-x="656" 
d="M169 660v40h238l199 -660h50v-40h-258v40h58l-37 123h-272l-36 -123h58v-40h-169v40h50l187 620h-68zM282 617l-121 -409h244z" />
    <glyph glyph-name="B" unicode="B" horiz-adv-x="708" 
d="M70 660v40.001h240c208.667 0 313 -63.333 313 -190c0 -88 -51.667 -145.333 -155 -172v-7c123.333 -18.667 185 -69.334 185 -152.001c0 -60 -27.333 -104.833 -82 -134.5s-131.667 -44.5 -231 -44.5h-270v40h60v620h-60zM330 313.001h-50v-273h50c48 0 88 12 120 36
s48 57.5 48 100.5s-16 76.5 -48 100.5s-72 36 -120 36zM309 660.001h-29v-309h29c47.333 0 86.5 14 117.5 42s46.5 66.333 46.5 115s-15.5 86.167 -46.5 112.5s-70.167 39.5 -117.5 39.5z" />
    <glyph glyph-name="C" unicode="C" horiz-adv-x="650" 
d="M382 668c-58 0 -101.999 -29.833 -131.999 -89.5s-45 -134.167 -45 -223.5s15.833 -162.333 47.5 -219s77.167 -85 136.5 -85c33.333 0 64 7 92 21s49.167 28.667 63.5 44s29.5 34.666 45.5 57.999l35 -25c-32 -51.333 -67.833 -91.5 -107.5 -120.5
s-90.5 -43.5 -152.5 -43.5c-92.667 0 -168.334 35 -227.001 105s-88 157 -88 261s29.333 190.667 88 260s140 104 244 104c54 0 106 -10.667 156 -32s75 -46.666 75 -75.999c0 -11.333 -3.66699 -24.333 -11 -39l-60 -116l-36 11l9 62c2.66699 16 4 31.333 4 46
c0 26 -12.667 48.667 -38 68s-58.333 29 -99 29z" />
    <glyph glyph-name="D" unicode="D" horiz-adv-x="782" 
d="M70 700h270c120 0 217 -32.5 291 -97.5s111 -149 111 -252s-37 -187.167 -111 -252.5s-171 -98 -291 -98h-270v40h80v620h-80v40zM340 660h-40v-620h40c77.333 0 137.833 27.833 181.5 83.5s65.5 131.167 65.5 226.5s-21.833 170.833 -65.5 226.5
s-104.167 83.5 -181.5 83.5z" />
    <glyph glyph-name="E" unicode="E" horiz-adv-x="630" 
d="M519 0l-448.999 -0.00195312v40h60v620h-60v40h429c14.667 0 25.5 -0.5 32.5 -1.5s13.5 -4.66699 19.5 -11s9 -16.166 9 -29.499l-27 -168h-39l-20 99c-6 30 -17.167 49.333 -33.5 58s-46.5 13 -90.5 13h-70v-342h230v-45h-230v-233h90
c43.333 0 73.166 4.33301 89.499 13s27.833 28 34.5 58l20 89h39l27 -158c0 -13.333 -3 -23.166 -9 -29.499s-12.5 -10 -19.5 -11s-17.833 -1.5 -32.5 -1.5z" />
    <glyph glyph-name="F" unicode="F" horiz-adv-x="570" 
d="M350 660l-70 -0.000976562v-342h210v-45h-210v-233h110v-40h-320v40h60v620h-60v40h429c14.667 0 25.5 -0.5 32.5 -1.5s13.5 -4.66699 19.5 -11s9 -16.166 9 -29.499l-27 -168h-39l-20 99c-6 30 -17.167 49.333 -33.5 58s-46.5 13 -90.5 13z" />
    <glyph glyph-name="G" unicode="G" horiz-adv-x="700" 
d="M350 273l0.00195312 45.001h285v-340c0 -73.333 -22 -127.5 -66 -162.5s-103.333 -52.5 -178 -52.5c-44 0 -86.167 11.167 -126.5 33.5s-60.5 52.833 -60.5 91.5c0 7.33301 2.33301 18 7 32l34 88c-58.667 26 -105.834 70 -141.501 132s-53.5 131.667 -53.5 209
c0 105.333 30.167 192.666 90.5 261.999s144.166 104 251.499 104c54 0 106 -10.667 156 -32s75 -46.666 75 -75.999c0 -11.333 -3.66699 -24.333 -11 -39l-56 -92l-36 12l5 37c2.66699 16 4 31.333 4 46c0 26 -12.667 48.667 -38 68s-58.333 29 -99 29
c-61.333 0 -107.833 -29.833 -139.5 -89.5s-47.5 -134.334 -47.5 -224.001s17.167 -162.667 51.5 -219s84.5 -84.5 150.5 -84.5c26.667 0 52.667 5.33301 78 16v206h-135zM355.002 -14.999c-23.333 0 -45.6689 3 -67.002 9v-31c0 -76 16 -123 48 -141
c14.667 -8 34.834 -12 60.501 -12s46.834 9.16699 63.501 27.5s25 45.833 25 82.5v91c-40 -17.333 -83.333 -26 -130 -26z" />
    <glyph glyph-name="H" unicode="H" horiz-adv-x="810" 
d="M680 660v-620h60v-40h-270v40h60v233h-250v-233h60v-40h-270v40h60v620h-60v40h270v-40h-60v-342h250v342h-60v40h270v-40h-60z" />
    <glyph glyph-name="I" unicode="I" horiz-adv-x="410" 
d="M60 660v40h290v-40h-70v-620h70v-40h-290v40h70v620h-70z" />
    <glyph glyph-name="J" unicode="J" horiz-adv-x="535" 
d="M415 660l0.000976562 -469.999c0 -70 -21.167 -121.667 -63.5 -155s-99.166 -50 -170.499 -50c-40.667 0 -79.334 10.667 -116.001 32s-55 46.666 -55 75.999c0 11.333 3.66699 24.333 11 39l60 116l36 -11l-9 -62c-2.66699 -23.333 -4 -45.333 -4 -66
s7.16699 -38.667 21.5 -54s33.666 -23 57.999 -23s44 8.33301 59 25s22.5 41.667 22.5 75v528h-95v40h305v-40h-60z" />
    <glyph glyph-name="K" unicode="K" horiz-adv-x="685" 
d="M70 660l0.00292969 40.001h270v-40h-60v-305l213 345h159v-40h-55l-290 -325h65c85.333 0 137.666 -32.333 156.999 -97l42 -140c4.66699 -16.667 10.667 -28.334 18 -35.001s19.666 -10 36.999 -10s37.666 9.66699 60.999 29l18 -24c-53.333 -48.667 -110 -73 -170 -73
c-30.667 0 -55.334 5.33301 -74.001 16s-32 29.334 -40 56.001l-59 194c-5.33301 18.667 -13.666 31.667 -24.999 39s-30.333 11.666 -57 12.999v-263h60v-40h-270v40h60v620h-60z" />
    <glyph glyph-name="L" unicode="L" horiz-adv-x="570" 
d="M70 660v39.999h270v-40h-60v-620h70c44 0 74.167 4.33301 90.5 13s27.5 28 33.5 58l20 99h39l27 -168c0 -13.333 -3 -23.166 -9 -29.499s-12.5 -10 -19.5 -11s-17.833 -1.5 -32.5 -1.5h-429v40h60v620h-60z" />
    <glyph glyph-name="M" unicode="M" horiz-adv-x="908" 
d="M48 660v40h221l182 -599l172 599h227v-40h-68l36 -620h60v-40h-268v40h57l-31 495l-154 -535h-151l-163 534l-28 -494h58v-40h-178v40h60l35 620h-67z" />
    <glyph glyph-name="N" unicode="N" horiz-adv-x="770" 
d="M60 0v40h60v620h-60v40h234l286 -563v523h-60v40h190v-40h-60v-660h-159l-301 592v-552h60v-40h-190z" />
    <glyph glyph-name="O" unicode="O" horiz-adv-x="768" 
d="M136.5 611.5c57.667 69 140 103.499 247 103.499s189.5 -34.333 247.5 -103s87 -156.167 87 -262.5s-29 -193.666 -87 -261.999s-140.5 -102.5 -247.5 -102.5s-189.333 34.167 -247 102.5s-86.5 155.5 -86.5 261.5s28.833 193.5 86.5 262.5zM384 667.999
c-39.333 0 -72.667 -15.333 -100 -46c-52.667 -57.333 -79 -148.333 -79 -273c0 -124 26.333 -214.333 79 -271c28 -30.667 61.333 -46 100 -46c57.333 0 101.5 30.667 132.5 92s46.5 136.5 46.5 225.5s-15.5 164.333 -46.5 226s-75.167 92.5 -132.5 92.5z" />
    <glyph glyph-name="P" unicode="P" horiz-adv-x="658" 
d="M70 660l-0.000976562 40.001h220c164 0 266.667 -39.333 308 -118c16.667 -30.667 25 -68 25 -112s-8.16699 -81.333 -24.5 -112s-40.166 -54.334 -71.499 -71.001c-58.667 -31.333 -137.667 -47 -237 -47h-10v-200h80v-40h-290v40h60v620h-60zM289.999 660.001h-10v-380
h10c52.667 0 96.334 16.667 131.001 50s52 80 52 140s-17.333 106.667 -52 140s-78.334 50 -131.001 50z" />
    <glyph glyph-name="Q" unicode="Q" horiz-adv-x="768" 
d="M136.5 611.5c57.667 69 139.999 103.501 246.999 103.501s189.5 -34.333 247.5 -103s87 -156.334 87 -263.001c0 -86.667 -19.833 -161.5 -59.5 -224.5s-96.5 -104.833 -170.5 -125.5l13 -70c6.66699 -38.667 26.667 -58 60 -58c18 0 41.333 13 70 39l27 -24
c-15.333 -17.333 -28.666 -31 -39.999 -41s-26.5 -19.5 -45.5 -28.5s-38.5 -13.5 -58.5 -13.5c-81.333 0 -131 49 -149 147l-7 36c-98.667 6 -174.667 42.667 -228 110s-80 152.833 -80 256.5s28.833 190 86.5 259zM383.999 668.001c-39.333 0 -72.667 -15.334 -100 -46.001
c-52.667 -57.333 -79 -148.333 -79 -273c0 -49.333 4.33301 -93.666 13 -132.999c36 30 74.333 45 115 45c71.333 0 116 -49 134 -147l8 -45c28.667 26.667 50.5 65 65.5 115s22.5 105 22.5 165c0 89.333 -15.5 164.833 -46.5 226.5s-75.167 92.5 -132.5 92.5zM273.998 193
c-14 0 -28.999 -6.00098 -44.999 -18.001c25.333 -77.333 65.333 -123.666 120 -138.999l-18 99c-2.66699 18 -9.33398 32.167 -20.001 42.5s-23 15.5 -37 15.5z" />
    <glyph glyph-name="R" unicode="R" horiz-adv-x="695" 
d="M70 660l0.00292969 40h220c162 0 264.667 -37.333 308 -112c16.667 -29.333 25 -65 25 -107c0 -97.333 -55.333 -162.666 -166 -195.999c42 -14 70 -43 84 -87l30 -100c4.66699 -16.667 10.667 -28.334 18 -35.001s19.666 -10 36.999 -10s37.666 9.66699 60.999 29
l18 -24c-53.333 -48.667 -110 -73 -170 -73c-30.667 0 -55.334 5.33301 -74.001 16s-32 29.334 -40 56.001l-47 154c-6 19.333 -15.333 32.666 -28 39.999s-34.667 11.333 -66 12v-223h80v-40h-290v40h60v620h-60zM290.003 660h-10v-357h10
c52.667 0 96.334 15.5 131.001 46.5s52 74.833 52 131.5s-17.333 100.667 -52 132s-78.334 47 -131.001 47z" />
    <glyph glyph-name="S" unicode="S" horiz-adv-x="570" 
d="M139 129c0 -26 12.665 -48.668 37.998 -68.001s58 -29 98 -29s71.667 9.66699 95 29s35 45 35 77c0 40.667 -24.333 74.334 -73 101.001l-148 79c-85.333 46 -128 111.667 -128 197c0 54.667 20 101.667 60 141s99.667 59 179 59c53.333 0 104 -10.667 152 -32
s72 -46.666 72 -75.999c0 -11.333 -3.66699 -24.333 -11 -39l-48 -92l-35 11v84c0 30 -13.167 53.667 -39.5 71s-57.666 26 -93.999 26s-64.166 -10.667 -83.499 -32s-29 -45.666 -29 -72.999c0 -54.667 24.667 -95 74 -121l127 -67
c96.667 -50.667 145 -117.334 145 -200.001c0 -62.667 -23.5 -110 -70.5 -142s-106.5 -48 -178.5 -48c-54 0 -106 10.667 -156 32s-75 46.666 -75 75.999c0 11.333 3.66699 24.333 11 39l48 92l35 -11v-84z" />
    <glyph glyph-name="T" unicode="T" horiz-adv-x="620" 
d="M395 660h-10v-620h100v-40h-350v40h100v620h-10c-44 0 -74.167 -4.33301 -90.5 -13s-27.5 -28 -33.5 -58l-20 -99h-39l-27 168c0 13.333 3 23.166 9 29.499s12.5 10 19.5 11s17.833 1.5 32.5 1.5h468c14.667 0 25.5 -0.5 32.5 -1.5s13.5 -4.66699 19.5 -11
s9 -16.166 9 -29.499l-27 -168h-39l-20 99c-6 30 -17.167 49.333 -33.5 58s-46.5 13 -90.5 13z" />
    <glyph glyph-name="U" unicode="U" horiz-adv-x="700" 
d="M485 660v40.001h190v-40h-60v-419c0 -48 -7.16699 -89.333 -21.5 -124s-34.166 -61.334 -59.499 -80.001c-47.333 -34.667 -106.333 -52 -177 -52s-130.334 17.667 -179.001 53c-26 18 -46.333 44.333 -61 79s-22 76.334 -22 125.001v418h-60v40h270v-40h-60v-450
c0 -52 14 -92 42 -120s62.5 -42 103.5 -42s77 14.167 108 42.5s46.5 68.166 46.5 119.499v450h-60z" />
    <glyph glyph-name="V" unicode="V" horiz-adv-x="685" 
d="M25 660v40.002h211l35 -535c4.66699 -68 35.667 -102 93 -102c42.667 0 79.667 16 111 48c61.333 62.667 92 155.667 92 279c0 68.667 -12 129.667 -36 183c-12 26.667 -27.667 44.167 -47 52.5s-45 12.5 -77 12.5h-38l-6 37l104 35c11.333 3.33301 21.333 5 30 5
s16 -1.33301 22 -4c24 -10 47.667 -40.5 71 -91.5s35 -119.5 35 -205.5c0 -110.667 -23.667 -208.334 -71 -293.001c-22.667 -41.333 -53.5 -74.333 -92.5 -99s-83.5 -37 -133.5 -37c-73.333 0 -125.833 19.667 -157.5 59s-50.167 99.666 -55.5 180.999l-28 435h-62z" />
    <glyph glyph-name="W" unicode="W" horiz-adv-x="1057" 
d="M25 660l0.000976562 40.001h211l35 -535c4.66699 -68 35.667 -102 93 -102c62 0 111.333 36.667 148 110c-2 10.667 -3.66699 28 -5 52l-28 435h-62v40h211l35 -535c4.66699 -68 35.667 -102 93 -102c38 0 71.333 16 100 48c55.333 62.667 83 155.667 83 279
c0 68.667 -12 129.667 -36 183c-12 26.667 -27.667 44.167 -47 52.5s-45 12.5 -77 12.5h-38l-6 37l104 35c11.333 3.33301 21.333 5 30 5s16 -1.33301 22 -4c24 -10 47.667 -40.5 71 -91.5s35 -119.5 35 -205.5c0 -112 -21.667 -209.667 -65 -293
c-22 -41.333 -51.167 -74.333 -87.5 -99s-77.833 -37 -124.5 -37c-96.667 0 -159.667 37.333 -189 112c-50.667 -74.667 -118.334 -112 -203.001 -112c-73.333 0 -125.833 19.667 -157.5 59s-50.167 99.666 -55.5 180.999l-28 435h-62z" />
    <glyph glyph-name="X" unicode="X" horiz-adv-x="696" 
d="M35 0l-0.000976562 40h50l190 281l-177 339h-53v40h199l132 -252l117 252h154v-40h-50l-187 -277l150 -285c8.66699 -17.333 17.167 -29.166 25.5 -35.499s18.5 -9.5 30.5 -9.5c22.667 0 43.667 9.66699 63 29l22 -24c-41.333 -48.667 -93 -73 -155 -73
c-31.333 0 -57.666 5.16699 -78.999 15.5s-39 29.166 -53 56.499l-106 201l-119 -258h-154z" />
    <glyph glyph-name="Y" unicode="Y" horiz-adv-x="607" 
d="M135 0v40h100v210l-182 410h-48v40h198l158 -392l90 392h151v-40h-47l-170 -410v-210h100v-40h-350z" />
    <glyph glyph-name="Z" unicode="Z" horiz-adv-x="590" 
d="M499 0h-468.999v40l363 620h-133c-44 0 -74.167 -4.33301 -90.5 -13s-27.5 -28 -33.5 -58l-20 -99h-39l-27 168c0 13.333 3 23.166 9 29.499s12.5 10 19.5 11s17.833 1.5 32.5 1.5h444v-40l-356 -620h151c43.333 0 73.166 4.33301 89.499 13s27.833 28 34.5 58l20 89h39
l27 -158c0 -13.333 -3 -23.166 -9 -29.499s-12.5 -10 -19.5 -11s-17.833 -1.5 -32.5 -1.5z" />
    <glyph glyph-name="bracketleft" unicode="[" horiz-adv-x="434" 
d="M275 604v-508.002c0 -35.333 9.66699 -60.166 29 -74.499s50.666 -21.5 93.999 -21.5l6 -23c-41.333 -18 -83.833 -27 -127.5 -27s-79 10.5 -106 31.5s-40.5 51.833 -40.5 92.5v552c0 40.667 13.5 71.5 40.5 92.5s62.333 31.5 106 31.5s86.167 -9 127.5 -27l-6 -23
c-43.333 0 -74.666 -7.16699 -93.999 -21.5s-29 -39.166 -29 -74.499z" />
    <glyph glyph-name="backslash" unicode="\" horiz-adv-x="410" 
d="M290 0l-260 700h90l260 -700h-90z" />
    <glyph glyph-name="bracketright" unicode="]" horiz-adv-x="434" 
d="M159 96v508.002c0 35.333 -9.66699 60.166 -29 74.499s-50.666 21.5 -93.999 21.5l-6 23c41.333 18 83.833 27 127.5 27s79 -10.5 106 -31.5s40.5 -51.833 40.5 -92.5v-552c0 -40.667 -13.5 -71.5 -40.5 -92.5s-62.333 -31.5 -106 -31.5s-86.167 9 -127.5 27l6 23
c43.333 0 74.666 7.16699 93.999 21.5s29 39.166 29 74.499z" />
    <glyph glyph-name="asciicircum" unicode="^" horiz-adv-x="560" 
d="M245 700h70l150 -260h-65l-120 209l-120 -209h-65z" />
    <glyph glyph-name="underscore" unicode="_" horiz-adv-x="594" 
d="M75 -60v60h444v-60h-444z" />
    <glyph glyph-name="grave" unicode="`" horiz-adv-x="371" 
d="M43.5 750.5c11 9.66699 23 14.502 36 14.502s24 -2.33301 33 -7s16.333 -9.83398 22 -15.501s14.167 -14.834 25.5 -27.501l119 -132l-21 -24l-148 73c-31.333 15.333 -53 28.833 -65 40.5s-18 25.167 -18 40.5s5.5 27.833 16.5 37.5z" />
    <glyph glyph-name="a" unicode="a" horiz-adv-x="710" 
d="M597 500l-0.000976562 -389c0 -18 4.33301 -32.167 13 -42.5s22 -15.5 40 -15.5s38.667 9.66699 62 29l18 -24c-53.333 -48.667 -106.666 -73 -159.999 -73c-63.333 0 -102.333 29.667 -117 89c-34.667 -59.333 -85.667 -89 -153 -89c-76.667 0 -135 24.833 -175 74.5
s-60 113 -60 190s21.5 140.5 64.5 190.5s103.167 75 180.5 75c59.333 0 105 -23.667 137 -71v56h150zM219.999 250c0 -64 9.33301 -114.667 28 -152s47.167 -56 85.5 -56s67.666 18.833 87.999 56.5s30.5 88.167 30.5 151.5s-10.167 113.833 -30.5 151.5
s-49.666 56.5 -87.999 56.5s-66.833 -18.667 -85.5 -56s-28 -88 -28 -152z" />
    <glyph glyph-name="b" unicode="b" horiz-adv-x="708" 
d="M261 704v-268.001c35.333 52.667 84.333 79 147 79c76.667 0 135 -24.833 175 -74.5s60 -113 60 -190s-21.5 -140.5 -64.5 -190.5s-103.167 -75 -180.5 -75c-59.333 0 -105 23.667 -137 71v-56h-150v717c-36.667 -9.33301 -64.667 -25.666 -84 -48.999l-27 31
c19.333 20 43.833 36 73.5 48s59 18 88 18s52.833 -5.83301 71.5 -17.5s28 -26.167 28 -43.5zM488 249.999c0 64 -9.33301 114.667 -28 152s-47.167 56 -85.5 56s-67.666 -18.833 -87.999 -56.5s-30.5 -88.167 -30.5 -151.5s10.167 -113.833 30.5 -151.5
s49.666 -56.5 87.999 -56.5s66.833 18.667 85.5 56s28 88 28 152z" />
    <glyph glyph-name="c" unicode="c" horiz-adv-x="562" 
d="M331 -15c-79.333 0 -143.5 25.499 -192.5 76.499s-73.5 113.833 -73.5 188.5s24.5 137.5 73.5 188.5s112.833 76.5 191.5 76.5c44 0 87 -12.667 129 -38s63 -59.666 63 -102.999c0 -22 -7.83301 -40.833 -23.5 -56.5s-34.5 -23.5 -56.5 -23.5s-40.833 7.83301 -56.5 23.5
s-23.5 33.5 -23.5 53.5s5.33301 37 16 51s24.667 23.667 42 29c-18.667 8 -40 12 -64 12c-44.667 0 -78.5 -19.833 -101.5 -59.5s-34.5 -90 -34.5 -151s11.5 -110.5 34.5 -148.5s56.833 -57 101.5 -57c60 0 111 25 153 75l28 -18c-22 -36 -50.833 -64.833 -86.5 -86.5
s-75.5 -32.5 -119.5 -32.5z" />
    <glyph glyph-name="d" unicode="d" horiz-adv-x="710" 
d="M597 704v-593.001c0 -18 4.33301 -32.167 13 -42.5s21.167 -15.5 37.5 -15.5s36.166 9.66699 59.499 29l23 -24c-53.333 -48.667 -106.666 -73 -159.999 -73c-63.333 0 -102.333 29.667 -117 89c-34.667 -59.333 -85.667 -89 -153 -89c-76.667 0 -135 24.833 -175 74.5
s-60 113 -60 190s21.5 140.5 64.5 190.5s103.167 75 180.5 75c59.333 0 105 -23.667 137 -71v273c-36.667 -9.33301 -64.667 -25.666 -84 -48.999l-27 31c19.333 20 43.833 36 73.5 48s59 18 88 18s52.833 -5.83301 71.5 -17.5s28 -26.167 28 -43.5zM220 249.999
c0 -64 9.33301 -114.667 28 -152s47.167 -56 85.5 -56s67.666 18.833 87.999 56.5s30.5 88.167 30.5 151.5s-10.167 113.833 -30.5 151.5s-49.666 56.5 -87.999 56.5s-66.833 -18.667 -85.5 -56s-28 -88 -28 -152z" />
    <glyph glyph-name="e" unicode="e" horiz-adv-x="597" 
d="M374.5 280.5c23.667 29 35.5 58.333 35.5 88s-6.5 52.5 -19.5 68.5s-32.667 24 -59 24s-51.5 -18.667 -75.5 -56s-36 -87.333 -36 -150s11.333 -113 34 -151s55 -57 97 -57c64 0 118.333 25 163 75l28 -18c-22.667 -36 -52.667 -64.833 -90 -86.5
s-79.333 -32.5 -126 -32.5c-79.333 0 -142.666 26.167 -189.999 78.5s-71 115.5 -71 189.5s25.167 136.167 75.5 186.5s120.166 75.5 209.499 75.5c58.667 0 104.667 -13.667 138 -41s50 -62 50 -104s-18.5 -80.833 -55.5 -116.5s-85.833 -53.5 -146.5 -53.5
c-20.667 0 -40.667 2.33301 -60 7l-2 24c43.333 4 76.833 20.5 100.5 49.5z" />
    <glyph glyph-name="f" unicode="f" horiz-adv-x="424" 
d="M39 445l-0.000976562 41h82v101c0 52.667 15 95.5 45 128.5s78.333 49.5 145 49.5c32.667 0 63.834 -6 93.501 -18s54.167 -28 73.5 -48l-27 -31c-28.667 24.667 -60.667 37 -96 37c-56 0 -84 -36.667 -84 -110v-109h113v-41h-113v-577h-150v577h-82z" />
    <glyph glyph-name="g" unicode="g" horiz-adv-x="620" 
d="M419 -132l-185.001 0.00195312c-98 0 -147 41 -147 123c0 44.667 24.667 95 74 151c-54 39.333 -81 93.666 -81 162.999c0 59.333 21.667 109.166 65 149.499s100 60.5 170 60.5c50.667 0 95.667 -11.667 135 -35c28.667 26 48.334 60 59.001 102l39 -10
c-12 -46.667 -34 -85.334 -66 -116.001c45.333 -41.333 68 -91.666 68 -150.999s-21.667 -109.166 -65 -149.499s-100 -60.5 -170 -60.5c-48 0 -89.667 9.66699 -125 29c-23.333 -32.667 -35 -57.334 -35 -74.001c0 -33.333 19.333 -50 58 -50h185c98 0 147 -36 147 -108
c0 -51.333 -24.333 -103.666 -73 -156.999l-24 23c19.333 23.333 29 43.166 29 59.499s-5.16699 28.833 -15.5 37.5s-24.5 13 -42.5 13zM234.999 305.002c0 -49.333 6.83301 -89.666 20.5 -120.999s33.834 -47 60.501 -47s46.834 15.667 60.501 47s20.5 71.666 20.5 120.999
s-6.83301 89.666 -20.5 120.999s-33.834 47 -60.501 47s-46.834 -15.667 -60.501 -47s-20.5 -71.666 -20.5 -120.999z" />
    <glyph glyph-name="h" unicode="h" horiz-adv-x="694" 
d="M261 704v-257.002c23.333 25.333 48.5 43 75.5 53s61.333 15 103 15s75.667 -13.167 102 -39.5s39.5 -62.166 39.5 -107.499v-257c0 -18 4.33301 -32.167 13 -42.5s22 -15.5 40 -15.5s38.667 9.66699 62 29l18 -24c-53.333 -48.667 -106.666 -73 -159.999 -73
c-82 0 -123 49 -123 147v257c0 20.667 -6.33301 36.667 -19 48s-30.334 17 -53.001 17s-44.667 -9.33301 -66 -28s-32 -43 -32 -73v-353h-150v717c-36.667 -9.33301 -64.667 -25.666 -84 -48.999l-27 31c19.333 20 43.833 36 73.5 48s59 18 88 18
s52.833 -5.83301 71.5 -17.5s28 -26.167 28 -43.5z" />
    <glyph glyph-name="i" unicode="i" horiz-adv-x="399" 
d="M131 670c0 22 7.83301 40.833 23.5 56.5s34.5 23.5 56.5 23.5s40.833 -7.83301 56.5 -23.5s23.5 -34.5 23.5 -56.5s-7.83301 -40.833 -23.5 -56.5s-34.5 -23.5 -56.5 -23.5s-40.833 7.83301 -56.5 23.5s-23.5 34.5 -23.5 56.5zM192 515
c62.667 0 93.998 -27.001 93.998 -81.001v-323c0 -18 4.33301 -32.167 13 -42.5s22 -15.5 40 -15.5s38.667 9.66699 62 29l18 -24c-53.333 -48.667 -106.666 -73 -159.999 -73c-82 0 -123 49 -123 147v335c-36.667 -9.33301 -64.667 -25.666 -84 -48.999l-27 31
c19.333 20 43.833 36 73.5 48s60.834 18 93.501 18z" />
    <glyph glyph-name="j" unicode="j" horiz-adv-x="383" 
d="M290 454v-541.001c0 -52.667 -15 -95.5 -45 -128.5s-78.333 -49.5 -145 -49.5c-32.667 0 -63.834 6 -93.501 18s-54.167 28 -73.5 48l22 31c28.667 -24.667 62.334 -37 101.001 -37c56 0 84 36.667 84 110v562c-36.667 -9.33301 -64.667 -25.666 -84 -48.999l-27 31
c19.333 20 43.833 36 73.5 48s59 18 88 18s52.833 -5.83301 71.5 -17.5s28 -26.167 28 -43.5zM135 669.999c0 22 7.83301 40.833 23.5 56.5s34.5 23.5 56.5 23.5s40.833 -7.83301 56.5 -23.5s23.5 -34.5 23.5 -56.5s-7.83301 -40.833 -23.5 -56.5s-34.5 -23.5 -56.5 -23.5
s-40.833 7.83301 -56.5 23.5s-23.5 34.5 -23.5 56.5z" />
    <glyph glyph-name="k" unicode="k" horiz-adv-x="647" 
d="M261 704l-0.00292969 -259.001c36 46.667 91.333 70 166 70c42.667 0 77.334 -10.667 104.001 -32s40 -48.166 40 -80.499s-9.66699 -61.166 -29 -86.499s-45.666 -46 -78.999 -62l60 -156c6.66699 -17.333 13.334 -29.166 20.001 -35.499s16 -9.5 28 -9.5
c22 0 44.667 9.66699 68 29l18 -24c-53.333 -48.667 -108.5 -73 -165.5 -73s-94.833 24 -113.5 72l-75 192c36.667 8.66699 67.167 26.667 91.5 54s36.5 53.666 36.5 78.999s-6.33301 43.666 -19 54.999s-28.667 17 -48 17c-32 0 -57.167 -12.833 -75.5 -38.5
s-27.5 -60.834 -27.5 -105.501v-310h-150v717c-36.667 -9.33301 -64.667 -25.666 -84 -48.999l-27 31c19.333 20 43.833 36 73.5 48s59 18 88 18s52.833 -5.83301 71.5 -17.5s28 -26.167 28 -43.5z" />
    <glyph glyph-name="l" unicode="l" horiz-adv-x="374" 
d="M73.5 747c29.667 12 58.999 17.999 87.999 17.999s52.833 -5.83301 71.5 -17.5s28 -26.167 28 -43.5v-593c0 -18 4.33301 -32.167 13 -42.5s22 -15.5 40 -15.5s38.667 9.66699 62 29l18 -24c-53.333 -48.667 -106.666 -73 -159.999 -73c-82 0 -123 49 -123 147v585
c-36.667 -9.33301 -64.667 -25.666 -84 -48.999l-27 31c19.333 20 43.833 36 73.5 48z" />
    <glyph glyph-name="m" unicode="m" horiz-adv-x="1007" 
d="M30 482c28.667 12 59.501 17.998 92.501 17.998s60.333 -4 82 -12s44.167 -20.667 67.5 -38c24 24 48.5 40.833 73.5 50.5s54.5 14.5 88.5 14.5c68 0 113.333 -26 136 -78c26 28.667 52.167 48.834 78.5 60.501s60.666 17.5 102.999 17.5s76.666 -13.167 102.999 -39.5
s39.5 -62.166 39.5 -107.499v-257c0 -18 4.33301 -32.167 13 -42.5s22 -15.5 40 -15.5s38.667 9.66699 62 29l18 -24c-53.333 -48.667 -106.666 -73 -159.999 -73c-82 0 -123 49 -123 147v257c0 20.667 -6 36.667 -18 48s-28.5 17 -49.5 17s-41.667 -9 -62 -27
s-30.5 -41.333 -30.5 -70v-357h-150v389c0 20.667 -6 36.667 -18 48s-28.5 17 -49.5 17s-41.667 -9 -62 -27s-30.5 -41.333 -30.5 -70v-357h-150v460c-30 0 -56.667 -5 -80 -15z" />
    <glyph glyph-name="n" unicode="n" 
d="M124 500c54.667 0 103.998 -16.668 147.998 -50.001c25.333 24 51.333 40.833 78 50.5s60.834 14.5 102.501 14.5s75.667 -13.167 102 -39.5s39.5 -62.166 39.5 -107.499v-257c0 -18 4.33301 -32.167 13 -42.5s22 -15.5 40 -15.5s38.667 9.66699 62 29l18 -24
c-53.333 -48.667 -106.666 -73 -159.999 -73c-82 0 -123 49 -123 147v257c0 20.667 -6.33301 36.667 -19 48s-30.167 17 -52.5 17s-44.333 -9 -66 -27s-32.5 -41.333 -32.5 -70v-357h-150v460c-30 0 -56.667 -5 -80 -15l-14 37c28.667 12 60 18 94 18z" />
    <glyph glyph-name="o" unicode="o" horiz-adv-x="660" 
d="M65 250c0 74.667 24.5 137.5 73.5 188.5s112.833 76.5 191.5 76.5s142.5 -25.5 191.5 -76.5s73.5 -113.833 73.5 -188.5s-24.5 -137.5 -73.5 -188.5s-112.833 -76.5 -191.5 -76.5s-142.5 25.5 -191.5 76.5s-73.5 113.833 -73.5 188.5zM220 250
c0 -65.333 9.33301 -118.833 28 -160.5s46.334 -62.5 83.001 -62.5s64.334 20.833 83.001 62.5s28 95.167 28 160.5s-9.33301 118.833 -28 160.5s-46.334 62.5 -83.001 62.5s-64.334 -20.833 -83.001 -62.5s-28 -95.167 -28 -160.5z" />
    <glyph glyph-name="p" unicode="p" horiz-adv-x="721" 
d="M124 500c61.333 0 114.333 -17 159 -51c35.333 44 81.333 66 138 66c76.667 0 135 -24.833 175 -74.5s60 -113 60 -190s-21.5 -140.5 -64.5 -190.5s-103.167 -75 -180.5 -75c-57.333 0 -103 25.667 -137 77v-312h-150v710c-30 0 -56.667 -5 -80 -15l-14 37
c28.667 12 60 18 94 18zM501 250c0 64 -9.33301 114.667 -28 152s-47.167 56 -85.5 56s-67.666 -18.833 -87.999 -56.5s-30.5 -88.167 -30.5 -151.5s10.167 -113.833 30.5 -151.5s49.666 -56.5 87.999 -56.5s66.833 18.667 85.5 56s28 88 28 152z" />
    <glyph glyph-name="q" unicode="q" horiz-adv-x="697" 
d="M597 -250h-150v314c-35.333 -52.667 -84.333 -79 -147 -79c-76.667 0 -135 24.833 -175 74.5s-60 113 -60 190s21.5 140.5 64.5 190.5s103.167 75 180.5 75c59.333 0 105 -23.667 137 -71v56h150v-750zM220 250c0 -64 9.33301 -114.667 28 -152s47.167 -56 85.5 -56
s67.666 18.833 87.999 56.5s30.5 88.167 30.5 151.5s-10.167 113.833 -30.5 151.5s-49.666 56.5 -87.999 56.5s-66.833 -18.667 -85.5 -56s-28 -88 -28 -152z" />
    <glyph glyph-name="r" unicode="r" horiz-adv-x="536" 
d="M393 515c20 0 29.998 -19 29.998 -57v-347c0 -18 4.33301 -32.167 13 -42.5s22 -15.5 40 -15.5s38.667 9.66699 62 29l18 -24c-53.333 -48.667 -106.666 -73 -159.999 -73c-82 0 -123 49 -123 147v281c-31.333 -12.667 -69.333 -21.334 -114 -26.001
c-5.33301 -61.333 -23 -122.666 -53 -183.999l-41 12c18.667 47.333 28.667 103.666 30 168.999c-25.333 0 -45.833 7.33301 -61.5 22s-23.5 32.834 -23.5 54.501s7.5 40 22.5 55s33.333 22.5 55 22.5s39.834 -7.66699 54.501 -23s22 -35 22 -59h19
c52.667 0 108.667 14.667 168 44c19.333 10 33.333 15 42 15z" />
    <glyph glyph-name="s" unicode="s" horiz-adv-x="474" 
d="M175 418c-16 24.667 -24 46.666 -24 65.999s7.5 36.5 22.5 51.5s33.167 22.5 54.5 22.5s39.5 -7.5 54.5 -22.5s22.5 -32.833 22.5 -53.5s-10.333 -42.667 -31 -66c54.667 -40 96.667 -79.167 126 -117.5s44 -82.666 44 -132.999s-19 -93 -57 -128s-92 -52.5 -162 -52.5
c-32 0 -64.167 7 -96.5 21s-56.833 31.333 -73.5 52l23 24c29.333 -23.333 61 -35 95 -35s61.833 9.16699 83.5 27.5s32.5 46.833 32.5 85.5c0 61.333 -22.667 125.333 -68 192l-151 -189l-25 22c50.667 82 94 159.667 130 233z" />
    <glyph glyph-name="t" unicode="t" horiz-adv-x="424" 
d="M39 445l-0.000976562 41h82v144h150v-144h113v-41h-113v-334c0 -18 4.33301 -32.167 13 -42.5s22 -15.5 40 -15.5s38.667 9.66699 62 29l18 -24c-53.333 -48.667 -106.666 -73 -159.999 -73c-82 0 -123 49 -123 147v313h-82z" />
    <glyph glyph-name="u" unicode="u" 
d="M274 454l-0.00195312 -343c0 -20.667 6.33301 -36.667 19 -48s30.334 -17 53.001 -17s44.667 9.33301 66 28s32 43 32 73v353h150v-389c0 -18 4.33301 -32.167 13 -42.5s22 -15.5 40 -15.5s38.667 9.66699 62 29l18 -24c-53.333 -48.667 -107.666 -73 -162.999 -73
s-92 24.667 -110 74c-26 -27.333 -52.833 -46.5 -80.5 -57.5s-63 -16.5 -106 -16.5s-77.667 13.167 -104 39.5s-39.5 62.166 -39.5 107.499v335c-36.667 -9.33301 -64.667 -25.666 -84 -48.999l-27 31c19.333 20 43.833 36 73.5 48s59 18 88 18s52.833 -5.83301 71.5 -17.5
s28 -26.167 28 -43.5z" />
    <glyph glyph-name="v" unicode="v" horiz-adv-x="619" 
d="M368 448c0 21.333 7.5 39.502 22.5 54.502s33.833 22.5 56.5 22.5s42.167 -8.5 58.5 -25.5s27.833 -39.5 34.5 -67.5c12.667 -48.667 19 -96.334 19 -143.001s-5.66699 -87.334 -17 -122.001s-26 -62.834 -44 -84.501s-38 -40.167 -60 -55.5
c-41.333 -28 -82.333 -42 -123 -42c-56.667 0 -101.5 14.167 -134.5 42.5s-49.5 69.833 -49.5 124.5v315c-36.667 -9.33301 -64.667 -25.666 -84 -48.999l-27 31c19.333 20 43.833 36 73.5 48s59 18 88 18s52.833 -5.83301 71.5 -17.5s28 -26.167 28 -43.5v-333
c0 -21.333 6.66699 -37.5 20 -48.5s30 -16.5 50 -16.5c42 0 78.333 21.833 109 65.5s46 97.167 46 160.5c0 32 -6.33301 65.667 -19 101c-12 -8 -27.333 -12 -46 -12s-35.5 7.5 -50.5 22.5s-22.5 33.167 -22.5 54.5z" />
    <glyph glyph-name="w" unicode="w" horiz-adv-x="944" 
d="M606 454l0.00292969 -333c0 -21.333 6.66699 -37.5 20 -48.5s30 -16.5 50 -16.5c42 0 78.333 21.833 109 65.5s46 97.167 46 160.5c0 32 -6.33301 65.667 -19 101c-12 -8 -27.333 -12 -46 -12s-35.5 7.5 -50.5 22.5s-22.5 33.167 -22.5 54.5s7.5 39.5 22.5 54.5
s33.833 22.5 56.5 22.5s42.167 -8.5 58.5 -25.5s28.166 -39.5 35.499 -67.5c12 -48.667 18 -96.334 18 -143.001s-5.66699 -87.334 -17 -122.001s-26 -62.834 -44 -84.501s-38.333 -40.167 -61 -55.5c-40.667 -28 -81.334 -42 -122.001 -42c-79.333 0 -134 26 -164 78
c-22 -25.333 -48 -44.666 -78 -57.999s-57.667 -20 -83 -20c-56.667 0 -101.5 14.167 -134.5 42.5s-49.5 69.833 -49.5 124.5v315c-36.667 -9.33301 -64.667 -25.666 -84 -48.999l-27 31c19.333 20 43.833 36 73.5 48s59 18 88 18s52.833 -5.83301 71.5 -17.5
s28 -26.167 28 -43.5v-333c0 -21.333 6.66699 -37.5 20 -48.5s30 -16.5 50 -16.5c45.333 0 80.666 22.333 105.999 67c-0.666992 6 -1 15.667 -1 29v315c-36.667 -9.33301 -64.667 -25.666 -84 -48.999l-27 31c19.333 20 43.833 36 73.5 48s59 18 88 18
s52.833 -5.83301 71.5 -17.5s28 -26.167 28 -43.5z" />
    <glyph glyph-name="x" unicode="x" horiz-adv-x="649" 
d="M53 62c0 21.333 7.49707 39.501 22.4971 54.501s32.333 22.5 52 22.5s36.334 -5.5 50.001 -16.5s22.834 -24.833 27.501 -41.5c28.667 28 51 67 67 117l-97 204c-8.66699 17.333 -16.167 29.166 -22.5 35.499s-15.166 9.5 -26.499 9.5c-22.667 0 -45 -9.66699 -67 -29
l-19 24c51.333 48.667 105 73 161 73s95.333 -24 118 -72l43 -91c18 48 41.333 87.167 70 117.5s61.334 45.5 98.001 45.5c21.333 0 39.5 -7.5 54.5 -22.5s22.5 -33.167 22.5 -54.5s-7.5 -39.5 -22.5 -54.5s-32.5 -22.5 -52.5 -22.5s-36.833 5.33301 -50.5 16
s-22.5 24.667 -26.5 42c-29.333 -28.667 -52 -68.334 -68 -119.001l97 -202c8.66699 -17.333 16.167 -29.166 22.5 -35.499s15.166 -9.5 26.499 -9.5c22.667 0 45 9.66699 67 29l19 -24c-51.333 -48.667 -105 -73 -161 -73s-95.333 24 -118 72l-43 89
c-18 -48 -41 -86.833 -69 -116.5s-59.667 -44.5 -95 -44.5c-22.667 0 -41.667 7.5 -57 22.5s-23 33.167 -23 54.5z" />
    <glyph glyph-name="y" unicode="y" horiz-adv-x="627" 
d="M86.5 497c29.667 12 59.001 17.999 88.001 17.999s52.833 -5.83301 71.5 -17.5s28 -26.167 28 -43.5v-303c0 -21.333 6.66699 -37.5 20 -48.5s30 -16.5 50 -16.5c42.667 0 79.167 18.333 109.5 55s45.5 83.667 45.5 141c0 32 -6.33301 65.667 -19 101
c-12 -8 -27.333 -12 -46 -12s-35.5 7.5 -50.5 22.5s-22.5 33.167 -22.5 54.5s7.5 39.5 22.5 54.5s33.833 22.5 56.5 22.5s42.167 -8.5 58.5 -25.5s28.166 -39.5 35.499 -67.5c12 -48.667 18 -102.5 18 -161.5s-6.83301 -118.167 -20.5 -177.5s-31.667 -110.333 -54 -153
s-47.5 -79.667 -75.5 -111c-57.333 -62.667 -115.666 -94 -174.999 -94c-16 0 -29.167 3.5 -39.5 10.5s-22.166 19.833 -35.499 38.5l-52 72l26 27c32 -5.33301 60 -8 84 -8c74.667 0 135.667 23.667 183 71s84.666 124.333 111.999 231
c-41.333 -114.667 -117.333 -172 -228 -172c-42.667 0 -78.834 14.5 -108.501 43.5s-44.5 70.167 -44.5 123.5v295c-36.667 -9.33301 -64.667 -25.666 -84 -48.999l-27 31c19.333 20 43.833 36 73.5 48z" />
    <glyph glyph-name="z" unicode="z" horiz-adv-x="620" 
d="M489 0h-414v40l308 420h-83c-44 0 -74.167 -4.33301 -90.5 -13s-27.5 -28 -33.5 -58l-20 -99h-39l-27 168c0 13.333 3 23.166 9 29.499s12.5 10 19.5 11s17.833 1.5 32.5 1.5h394v-40l-301 -420h96c44 0 74.167 4.33301 90.5 13s27.5 28 33.5 58l20 99h39l27 -168
c0 -13.333 -3 -23.166 -9 -29.499s-12.5 -10 -19.5 -11s-17.833 -1.5 -32.5 -1.5z" />
    <glyph glyph-name="braceleft" unicode="{" horiz-adv-x="432" 
d="M273 214l-0.000976562 -117.997c0 -35.333 9.66699 -60.166 29 -74.499s50.666 -21.5 93.999 -21.5l6 -23c-41.333 -18 -83.833 -27 -127.5 -27s-79 10.5 -106 31.5s-40.5 51.833 -40.5 92.5c0 22 4.83301 56 14.5 102s14.5 77.667 14.5 95s-3 30 -9 38
s-15.333 13.667 -28 17c-15.333 4 -38.666 6.66699 -69.999 8v32c31.333 1.33301 54 3.66602 68 6.99902c26 7.33301 39 22.833 39 46.5s-4.83301 58.5 -14.5 104.5s-14.5 80 -14.5 102c0 40.667 13.5 71.5 40.5 92.5s62.333 31.5 106 31.5s86.167 -9 127.5 -27l-6 -23
c-43.333 0 -74.666 -7.16699 -93.999 -21.5s-29 -39.166 -29 -74.499v-118c0 -34.667 -7.33301 -64.334 -22 -89.001s-33.334 -40.334 -56.001 -47.001c22.667 -6.66699 41.334 -22.334 56.001 -47.001s22 -54.334 22 -89.001z" />
    <glyph glyph-name="bar" unicode="|" horiz-adv-x="410" 
d="M260 800v-900h-110v900h110z" />
    <glyph glyph-name="braceright" unicode="}" horiz-adv-x="432" 
d="M159 486l0.000976562 117.997c0 35.333 -9.66699 60.166 -29 74.499s-50.666 21.5 -93.999 21.5l-6 23c41.333 18 83.833 27 127.5 27s79 -10.5 106 -31.5s40.5 -51.833 40.5 -92.5c0 -22 -4.83301 -56 -14.5 -102s-14.5 -77.667 -14.5 -95s3 -30 9 -38
s15.333 -13.667 28 -17c15.333 -4 38.666 -6.66699 69.999 -8v-32c-31.333 -1.33301 -54 -3.66602 -68 -6.99902c-26 -7.33301 -39 -22.833 -39 -46.5s4.83301 -58.5 14.5 -104.5s14.5 -80 14.5 -102c0 -40.667 -13.5 -71.5 -40.5 -92.5s-62.333 -31.5 -106 -31.5
s-86.167 9 -127.5 27l6 23c43.333 0 74.666 7.16699 93.999 21.5s29 39.166 29 74.499v118c0 34.667 7.33301 64.334 22 89.001s33.334 40.334 56.001 47.001c-22.667 6.66699 -41.334 22.334 -56.001 47.001s-22 54.334 -22 89.001z" />
    <glyph glyph-name="asciitilde" unicode="~" horiz-adv-x="560" 
d="M90 380c24 -12 49.335 -18 76.002 -18s64.5 5.83301 113.5 17.5s86.667 17.5 113 17.5s52.166 -5.66699 77.499 -17v-60c-24.667 12.667 -50.334 19 -77.001 19s-64.667 -6.33301 -114 -19s-87.333 -19 -114 -19s-51.667 6.33301 -75 19v60z" />
    <glyph glyph-name="nbspace" unicode="&#xa0;" horiz-adv-x="300" 
 />
    <glyph glyph-name="exclamdown" unicode="&#xa1;" horiz-adv-x="358" 
d="M102 438c0 21.333 7.5 39.5 22.5 54.5s33.167 22.5 54.5 22.5s39.5 -7.5 54.5 -22.5s22.5 -33.167 22.5 -54.5s-7.5 -39.5 -22.5 -54.5s-33.167 -22.5 -54.5 -22.5s-39.5 7.5 -54.5 22.5s-22.5 33.167 -22.5 54.5zM249.5 -38c5.66699 -46 8.5 -79.5 8.5 -100.5
s-7.16699 -39 -21.5 -54s-33.5 -22.5 -57.5 -22.5s-43.167 7.5 -57.5 22.5s-21.5 33 -21.5 54s2.83301 54.5 8.5 100.5s13.167 102.5 22.5 169.5s16.333 122.167 21 165.5h54c4.66699 -43.333 11.667 -98.5 21 -165.5s16.833 -123.5 22.5 -169.5z" />
    <glyph glyph-name="cent" unicode="&#xa2;" horiz-adv-x="650" 
d="M353 85l0.000976562 -185.001h-30v186c-70.667 7.33301 -127.334 35.833 -170.001 85.5s-64 109.167 -64 178.5s21.5 128.833 64.5 178.5s99.5 77.834 169.5 84.501v187h30v-185c27.333 0 55.333 -5 84 -15s54 -26.167 76 -48.5s33 -45.833 33 -70.5s-7 -44 -21 -58
s-31 -21 -51 -21s-37 7 -51 21s-21 30.333 -21 49s5.16699 34.5 15.5 47.5s23.833 21.167 40.5 24.5c-23.333 12.667 -49.333 19 -78 19c-10 0 -19 -1 -27 -3v-410c8 -2 17 -3 27 -3c60.667 0 111.667 25 153 75l28 -18c-22 -36 -51.167 -64.833 -87.5 -86.5
s-76.5 -32.5 -120.5 -32.5zM244.001 349.999c0 -44.667 6.66699 -83.833 20 -117.5s33 -57.5 59 -71.5v387c-52.667 -30 -79 -96 -79 -198z" />
    <glyph glyph-name="sterling" unicode="&#xa3;" horiz-adv-x="650" 
d="M75 309l-0.00195312 45h75c-2 6.66699 -8 23 -18 49c-18 46.667 -27 89 -27 127c0 52 19.833 95.833 59.5 131.5s91.5 53.5 155.5 53.5c85.333 0 150.333 -20 195 -60c24.667 -22 37 -49 37 -81c0 -22 -7.66699 -40.833 -23 -56.5s-34.333 -23.5 -57 -23.5
s-41.667 7.16699 -57 21.5s-23 32.166 -23 53.499s5.16699 38.833 15.5 52.5s23.5 23.167 39.5 28.5c-22 8.66699 -45.667 13 -71 13c-39.333 0 -70.166 -13.5 -92.499 -40.5s-33.5 -61.833 -33.5 -104.5c0 -20.667 2.16699 -50 6.5 -88s6.83301 -63.333 7.5 -76h191v-45
h-190c-1.33301 -74 -29.666 -146.333 -84.999 -217h185c42 0 73 6 93 18s33 33.333 39 64l7 36h39l27 -168c0 -13.333 -3 -23.166 -9 -29.499s-12.5 -10 -19.5 -11s-17.833 -1.5 -32.5 -1.5h-434v40c60.667 62 91 135 91 219c0 15.333 -1.66699 32 -5 50h-86z" />
    <glyph glyph-name="currency" unicode="&#xa4;" horiz-adv-x="650" 
d="M155 228c-24 36.667 -36 77.667 -36 123s12.333 85.333 37 120l-92 92l48 48l92 -92c34.667 24 74.667 36 120 36s86 -12 122 -36l92 92l48 -48l-92 -92c24.667 -34.667 37 -75 37 -121s-12 -86.667 -36 -122l91 -91l-48 -48l-91 91
c-35.333 -24.667 -76.333 -37 -123 -37s-87 12.333 -121 37l-91 -91l-48 48zM228.5 444.5c-25 -25.667 -37.5 -57.334 -37.5 -95.001s12.5 -69.5 37.5 -95.5s57.333 -39 97 -39s71.834 13 96.501 39s37 57.833 37 95.5s-12.333 69.334 -37 95.001s-56.834 38.5 -96.501 38.5
s-72 -12.833 -97 -38.5z" />
    <glyph glyph-name="yen" unicode="&#xa5;" horiz-adv-x="650" 
d="M92 199l-0.000976562 45h160v6l-40 89h-120v45h100l-122 276h-50v40h200l158 -390l115 245c-19.333 3.33301 -35.666 12.5 -48.999 27.5s-20 33.167 -20 54.5s7.66699 39.666 23 54.999s34 23 56 23s41 -7.83301 57 -23.5s24 -32.167 24 -49.5
s-8.66699 -43.666 -26 -78.999l-89 -179h93v-45h-115l-47 -95h162v-45h-160v-159h100v-40h-350v40h100v159h-160z" />
    <glyph glyph-name="brokenbar" unicode="&#xa6;" horiz-adv-x="410" 
d="M260 800v-326h-110v326h110zM260 226v-326h-110v326h110z" />
    <glyph glyph-name="section" unicode="&#xa7;" horiz-adv-x="490" 
d="M308 420c88 -48.667 132 -105.168 132 -169.501s-28.333 -110.166 -85 -137.499c43.333 -35.333 65 -80 65 -134c0 -44 -16 -81 -48 -111s-76 -45 -132 -45c-80 0 -144.333 35 -193 105l35 26c20 -29.333 43.333 -51.5 70 -66.5s54.334 -22.5 83.001 -22.5
s54.334 9.16699 77.001 27.5s34 42.166 34 71.499c0 40 -22 71.667 -66 95l-108 59c-88 48.667 -132 105.167 -132 169.5s28.333 109.833 85 136.5c-43.333 34.667 -65 79.667 -65 135c0 44 16 81 48 111s76 45 132 45c80 0 144.333 -35 193 -105l-35 -26
c-20 29.333 -43.333 51.5 -70 66.5s-54.334 22.5 -83.001 22.5s-54.334 -9.16699 -77.001 -27.5s-34 -42.166 -34 -71.499c0 -40 22 -71.667 66 -95zM103 371.499c-12.667 -15.667 -19 -33.832 -19 -54.499s9 -39.5 27 -56.5s45.333 -35.167 82 -54.5l107 -57
c6.66699 -3.33301 16 -9 28 -17c19.333 6.66699 35.5 18 48.5 34s19.5 34.333 19.5 55s-9 39.5 -27 56.5s-45.333 35.167 -82 54.5l-136 73c-19.333 -6.66699 -35.333 -17.834 -48 -33.501z" />
    <glyph glyph-name="dieresis" unicode="&#xa8;" horiz-adv-x="490" 
d="M54 670c0 21.333 7.33301 39.333 22 54s32.667 22 54 22s39.333 -7.33301 54 -22s22 -32.667 22 -54s-7.33301 -39.333 -22 -54s-32.667 -22 -54 -22s-39.333 7.33301 -54 22s-22 32.667 -22 54zM284 670c0 21.333 7.33301 39.333 22 54s32.667 22 54 22
s39.333 -7.33301 54 -22s22 -32.667 22 -54s-7.33301 -39.333 -22 -54s-32.667 -22 -54 -22s-39.333 7.33301 -54 22s-22 32.667 -22 54z" />
    <glyph glyph-name="copyright" unicode="&#xa9;" horiz-adv-x="812" 
d="M415 652c-32 0 -56.332 -17 -72.999 -51s-25 -76.667 -25 -128s8.83301 -93 26.5 -125s41.5 -48 71.5 -48s54 6.83301 72 20.5s34.667 31.5 50 53.5l29 -21c-20.667 -32.667 -43.167 -58.167 -67.5 -76.5s-55.5 -27.5 -93.5 -27.5
c-56.667 0 -102.834 21.167 -138.501 63.5s-53.5 95 -53.5 158s17.833 115.667 53.5 158s85.167 63.5 148.5 63.5c32.667 0 64.5 -7 95.5 -21s46.5 -30.333 46.5 -49c0 -6.66699 -2.33301 -15.334 -7 -26.001l-38 -73l-29 9l5 44c1.33301 6.66699 2 15.834 2 27.501
s-7 22.667 -21 33s-32 15.5 -54 15.5zM106.001 469c0 -82.667 29.333 -153.334 88 -212.001s129.334 -88 212.001 -88s153.334 29.333 212.001 88s88 129.334 88 212.001s-29.333 153.334 -88 212.001s-129.334 88 -212.001 88s-153.334 -29.333 -212.001 -88
s-88 -129.334 -88 -212.001zM68.001 469c0 92.667 33 172.167 99 238.5s145.667 99.5 239 99.5s173 -33.167 239 -99.5s99 -145.833 99 -238.5s-33 -172.167 -99 -238.5s-145.667 -99.5 -239 -99.5s-173 33.167 -239 99.5s-99 145.833 -99 238.5z" />
    <glyph glyph-name="ordfeminine" unicode="&#xaa;" horiz-adv-x="577" 
d="M457 706v-272c0 -22.667 9 -34 27 -34c14 0 29.667 7.33301 47 22l19 -24c-42.667 -38 -81.667 -57 -117 -57c-43.333 0 -70 19.333 -80 58h-8c-10 -17.333 -23.667 -31.333 -41 -42s-36 -16 -56 -16c-54.667 0 -96.167 17.667 -124.5 53s-42.5 80 -42.5 134
s15.333 98.667 46 134s73.334 53 128.001 53c37.333 0 66.666 -12.333 87.999 -37l20 28h94zM271 665c-47.333 0 -71 -45.5 -71 -136.5s23.667 -136.5 71 -136.5c24 0 42.5 12.5 55.5 37.5s19.5 58.167 19.5 99.5s-6.5 74.333 -19.5 99s-31.5 37 -55.5 37z" />
    <glyph glyph-name="guillemotleft" unicode="&#xab;" horiz-adv-x="486" 
d="M30 292c0 21.333 9.33301 40.668 28 58.001l144 138l24 -21l-95 -171v-8l95 -171l-24 -21l-144 138c-18.667 17.333 -28 36.666 -28 57.999zM230 292.002c0 21.333 9.33301 40.668 28 58.001l144 138l24 -21l-95 -171v-8l95 -171l-24 -21l-144 138
c-18.667 17.333 -28 36.666 -28 57.999z" />
    <glyph glyph-name="logicalnot" unicode="&#xac;" horiz-adv-x="560" 
d="M90 320v60h380v-213h-54v153h-326z" />
    <glyph glyph-name="registered" unicode="&#xae;" horiz-adv-x="812" 
d="M106 469c0 -82.667 29.333 -153.334 88 -212.001s129.334 -88 212.001 -88s153.334 29.333 212.001 88s88 129.334 88 212.001s-29.333 153.334 -88 212.001s-129.334 88 -212.001 88s-153.334 -29.333 -212.001 -88s-88 -129.334 -88 -212.001zM237 647v36h136
c135.333 0 203 -45 203 -135c0 -54.667 -29 -93.667 -87 -117c19.333 -11.333 32 -27.333 38 -48l18 -59c4 -15.333 12.333 -23 25 -23c10 0 22.667 6.66699 38 20l18 -23c-37.333 -32.667 -74.5 -49 -111.5 -49s-60.167 15.333 -69.5 46l-29 92
c-2.66699 8.66699 -7 15 -13 19s-16 6.33301 -30 7v-155h-136v35h36v354h-36zM373 647v-198c30 0 54.5 8.5 73.5 25.5s28.5 41.333 28.5 73s-9.5 56.167 -28.5 73.5s-43.5 26 -73.5 26zM68 469c0 92.667 33 172.167 99 238.5s145.667 99.5 239 99.5s173 -33.167 239 -99.5
s99 -145.833 99 -238.5s-33 -172.167 -99 -238.5s-145.667 -99.5 -239 -99.5s-173 33.167 -239 99.5s-99 145.833 -99 238.5z" />
    <glyph glyph-name="macron" unicode="&#xaf;" horiz-adv-x="490" 
d="M98 700h294v-88h-294v88z" />
    <glyph glyph-name="degree" unicode="&#xb0;" horiz-adv-x="536" 
d="M81 529c0 52.667 17.167 96.833 51.5 132.5s79.5 53.5 135.5 53.5s101.167 -17.833 135.5 -53.5s51.5 -80 51.5 -133s-17.167 -97.5 -51.5 -133.5s-79.5 -54 -135.5 -54s-101.167 18.167 -135.5 54.5s-51.5 80.833 -51.5 133.5zM168 528.999
c0 -43.333 8.33301 -78.666 25 -105.999s42 -41 76 -41s59.333 13.667 76 41s25 62.666 25 105.999s-8.33301 78.5 -25 105.5s-42 40.5 -76 40.5s-59.333 -13.5 -76 -40.5s-25 -62.167 -25 -105.5z" />
    <glyph glyph-name="plusminus" unicode="&#xb1;" horiz-adv-x="560" 
d="M90 320v60h160v160h60v-160h160v-60h-160v-160h-60v160h-160zM90 0v60h380v-60h-380z" />
    <glyph glyph-name="twosuperior" unicode="&#xb2;" horiz-adv-x="440" 
d="M320 331l-257.003 0.00292969v31l141 143c39.333 39.333 59 81.333 59 126c0 26 -7.5 47.667 -22.5 65s-33.833 26 -56.5 26c-10 0 -20.333 -1.33301 -31 -4c14.667 -10 22 -23 22 -39s-5.33301 -29.5 -16 -40.5s-23.167 -16.5 -37.5 -16.5s-26.666 5.33301 -36.999 16
s-15.5 23 -15.5 37c0 27.333 13.833 49.166 41.5 65.499s62.167 24.5 103.5 24.5s75.333 -11.167 102 -33.5s40 -49.5 40 -81.5c0 -16.667 -6.66699 -35.834 -20 -57.501s-25.666 -38.5 -36.999 -50.5s-28.333 -29 -51 -51l-96 -94h82c23.333 0 40.333 3.16699 51 9.5
s17.667 17.5 21 33.5l6 27h32l17 -105c0 -10 -2.16699 -17.333 -6.5 -22s-8.66602 -7.33398 -12.999 -8.00098s-11.5 -1 -21.5 -1z" />
    <glyph glyph-name="threesuperior" unicode="&#xb3;" horiz-adv-x="440" 
d="M159 718c14.667 -10 21.999 -23.166 21.999 -39.499s-5.33301 -29.833 -16 -40.5s-23.167 -16 -37.5 -16s-26.666 5.33301 -36.999 16s-15.5 23 -15.5 37c0 27.333 14.167 49.166 42.5 65.499s63.333 24.5 105 24.5s75.334 -11.167 101.001 -33.5s38.5 -49.5 38.5 -81.5
c0 -44 -24 -78.667 -72 -104c24 -9.33301 43 -22.666 57 -39.999s21 -36.333 21 -57c0 -36 -15 -66.167 -45 -90.5s-66.167 -36.5 -108.5 -36.5s-77.166 8 -104.499 24s-41 38 -41 66c0 14 5.16699 26.333 15.5 37s22.666 16 36.999 16s26.833 -5.33301 37.5 -16
s16 -24.667 16 -42s-7.66699 -31 -23 -41c8 -1.33301 14.667 -2 20 -2c30 0 53 8.5 69 25.5s24 36.5 24 58.5s-7.5 40.833 -22.5 56.5s-36.5 23.5 -64.5 23.5h-37v36h46c27.333 0 48.166 8.5 62.499 25.5s21.5 36.167 21.5 57.5s-7 39.166 -21 53.499s-34 21.5 -60 21.5
c-10 0 -20.333 -1.33301 -31 -4z" />
    <glyph glyph-name="acute" unicode="&#xb4;" horiz-adv-x="371" 
d="M258.5 758c9 4.66699 20 6.99805 33 6.99805s25 -4.83301 36 -14.5s16.5 -22.167 16.5 -37.5s-6 -28.833 -18 -40.5s-33.667 -25.167 -65 -40.5l-148 -73l-21 24l119 132c11.333 12.667 19.833 21.834 25.5 27.501s13 10.834 22 15.501z" />
    <glyph glyph-name="mu" unicode="&#xb5;" 
d="M274 454l-0.000976562 -408.001c113.333 0 170 33.667 170 101v353h150v-389c0 -18 4.33301 -32.167 13 -42.5s22 -15.5 40 -15.5s38.667 9.66699 62 29l18 -24c-53.333 -48.667 -107.666 -73 -162.999 -73s-92 24.667 -110 74c-25.333 -26.667 -51.5 -45.5 -78.5 -56.5
s-60.833 -16.833 -101.5 -17.5v-235h-150v717c-36.667 -9.33301 -64.667 -25.666 -84 -48.999l-27 31c19.333 20 43.833 36 73.5 48s59 18 88 18s52.833 -5.83301 71.5 -17.5s28 -26.167 28 -43.5z" />
    <glyph glyph-name="paragraph" unicode="&#xb6;" horiz-adv-x="548" 
d="M108 0l-0.000976562 40.001h156v267h-60c-60.667 0 -109.834 19.667 -147.501 59s-56.5 87.666 -56.5 144.999s18.833 105.666 56.5 144.999s86.834 59 147.501 59s109.834 -19.667 147.501 -59s56.5 -87.666 56.5 -144.999v-471h70v-40h-370z" />
    <glyph glyph-name="periodcentered" unicode="&#xb7;" horiz-adv-x="274" 
d="M60 292c0 21.333 7.5 39.5 22.5 54.5s33.167 22.5 54.5 22.5s39.5 -7.5 54.5 -22.5s22.5 -33.167 22.5 -54.5s-7.5 -39.5 -22.5 -54.5s-33.167 -22.5 -54.5 -22.5s-39.5 7.5 -54.5 22.5s-22.5 33.167 -22.5 54.5z" />
    <glyph glyph-name="cedilla" unicode="&#xb8;" horiz-adv-x="330" 
d="M195 -70c31.333 0 56.667 -8.99902 76 -26.999s29 -40.667 29 -68s-11.5 -50.833 -34.5 -70.5s-50.833 -29.5 -83.5 -29.5s-59.5 6 -80.5 18s-31.5 29 -31.5 51c0 11.333 4 21 12 29s17.5 12 28.5 12s20.667 -4.16699 29 -12.5s12.5 -18.833 12.5 -31.5
s-6 -23.334 -18 -32.001c5.33301 -1.33301 10.333 -2 15 -2c19.333 0 34.833 6 46.5 18s17.5 26.167 17.5 42.5s-6.33301 30.833 -19 43.5s-30.667 19 -54 19l-22 17l44 93h30l-38 -77c11.333 4.66699 25 7 41 7z" />
    <glyph glyph-name="onesuperior" unicode="&#xb9;" horiz-adv-x="363" 
d="M249 756l0.000976562 -389.999h76v-35h-265v35h88v302c-32.667 -12.667 -70.334 -19 -113.001 -19v35c37.333 0 72 6.66699 104 20s57 30.666 75 51.999h35z" />
    <glyph glyph-name="ordmasculine" unicode="&#xba;" horiz-adv-x="536" 
d="M81 529c0 52.667 17.167 96.833 51.5 132.5s79.5 53.5 135.5 53.5s101.167 -17.833 135.5 -53.5s51.5 -80 51.5 -133s-17.167 -97.5 -51.5 -133.5s-79.5 -54 -135.5 -54s-101.167 18.167 -135.5 54.5s-51.5 80.833 -51.5 133.5zM199 528.999
c0 -43.333 5.83301 -78.666 17.5 -105.999s29.167 -41 52.5 -41s40.833 13.667 52.5 41s17.5 62.666 17.5 105.999s-5.83301 78.5 -17.5 105.5s-29.167 40.5 -52.5 40.5s-40.833 -13.5 -52.5 -40.5s-17.5 -62.167 -17.5 -105.5z" />
    <glyph glyph-name="guillemotright" unicode="&#xbb;" horiz-adv-x="486" 
d="M456 292c0 -21.333 -9.33301 -40.668 -28 -58.001l-144 -138l-24 21l95 171v8l-95 171l24 21l144 -138c18.667 -17.333 28 -36.666 28 -57.999zM256 291.998c0 -21.333 -9.33301 -40.668 -28 -58.001l-144 -138l-24 21l95 171v8l-95 171l24 21l144 -138
c18.667 -17.333 28 -36.666 28 -57.999z" />
    <glyph glyph-name="onequarter" unicode="&#xbc;" horiz-adv-x="1044" 
d="M732 700l-390 -700h-40l390 700h40zM284 700l0.000976562 -389.999h76v-35h-265v35h88v302c-32.667 -12.667 -70.334 -19 -113.001 -19v35c37.333 0 72 6.66699 104 20s57 30.666 75 51.999h35zM836.001 425.001c0 -56.667 -14.5 -110.833 -43.5 -162.5
s-63.5 -94.167 -103.5 -127.5h120v117c34.667 12.667 56 34 64 64h37v-181h35v-42h-35v-58h70v-35h-247v35h76v58h-181v38c59.333 54.667 91.333 152.667 96 294h112z" />
    <glyph glyph-name="onehalf" unicode="&#xbd;" horiz-adv-x="1044" 
d="M732 700l-390 -700h-40l390 700h40zM284 700l0.000976562 -389.999h76v-35h-265v35h88v302c-32.667 -12.667 -70.334 -19 -113.001 -19v35c37.333 0 72 6.66699 104 20s57 30.666 75 51.999h35zM903.001 0.000976562l-257.003 0.00292969v31l141 143
c39.333 39.333 59 81.333 59 126c0 26 -7.5 47.667 -22.5 65s-33.833 26 -56.5 26c-10 0 -20.333 -1.33301 -31 -4c14.667 -10 22 -23 22 -39s-5.33301 -29.5 -16 -40.5s-23.167 -16.5 -37.5 -16.5s-26.666 5.33301 -36.999 16s-15.5 23 -15.5 37
c0 27.333 13.833 49.166 41.5 65.499s62.167 24.5 103.5 24.5s75.333 -11.167 102 -33.5s40 -49.5 40 -81.5c0 -16.667 -6.66699 -35.834 -20 -57.501s-25.666 -38.5 -36.999 -50.5s-28.333 -29 -51 -51l-96 -94h82c23.333 0 40.333 3.16699 51 9.5s17.667 17.5 21 33.5
l6 27h32l17 -105c0 -10 -2.16699 -17.333 -6.5 -22s-8.66602 -7.33398 -12.999 -8.00098s-11.5 -1 -21.5 -1z" />
    <glyph glyph-name="threequarters" unicode="&#xbe;" horiz-adv-x="1044" 
d="M742 700l-390 -700h-40l390 700h40zM184 662c14.667 -10 21.999 -23.166 21.999 -39.499s-5.33301 -29.833 -16 -40.5s-23.167 -16 -37.5 -16s-26.666 5.33301 -36.999 16s-15.5 23 -15.5 37c0 27.333 14.167 49.166 42.5 65.499s63.333 24.5 105 24.5
s75.334 -11.167 101.001 -33.5s38.5 -49.5 38.5 -81.5c0 -44 -24 -78.667 -72 -104c24 -9.33301 43 -22.666 57 -39.999s21 -36.333 21 -57c0 -36 -15 -66.167 -45 -90.5s-66.167 -36.5 -108.5 -36.5s-77.166 8 -104.499 24s-41 38 -41 66c0 14 5.16699 26.333 15.5 37
s22.666 16 36.999 16s26.833 -5.33301 37.5 -16s16 -24.667 16 -42s-7.66699 -31 -23 -41c8 -1.33301 14.667 -2 20 -2c30 0 53 8.5 69 25.5s24 36.5 24 58.5s-7.5 40.833 -22.5 56.5s-36.5 23.5 -64.5 23.5h-37v36h46c27.333 0 48.166 8.5 62.499 25.5
s21.5 36.167 21.5 57.5s-7 39.166 -21 53.499s-34 21.5 -60 21.5c-10 0 -20.333 -1.33301 -31 -4zM835.999 425.001c0 -56.667 -14.5 -110.833 -43.5 -162.5s-63.5 -94.167 -103.5 -127.5h120v117c34.667 12.667 56 34 64 64h37v-181h35v-42h-35v-58h70v-35h-247v35h76v58
h-181v38c59.333 54.667 91.333 152.667 96 294h112z" />
    <glyph glyph-name="questiondown" unicode="&#xbf;" horiz-adv-x="527" 
d="M218 88.5c-22 -32.333 -33.001 -68.166 -33.001 -107.499s11.667 -73.166 35 -101.499s57 -42.5 101 -42.5c21.333 0 40.333 3.66699 57 11c-18 4.66699 -32.667 14.167 -44 28.5s-17 31.5 -17 51.5s8 38 24 54s35 24 57 24s40.667 -7.83301 56 -23.5s23 -34.5 23 -56.5
c0 -44.667 -21.167 -79.334 -63.5 -104.001s-93.666 -37 -153.999 -37s-110.333 17.833 -150 53.5s-59.5 79.167 -59.5 130.5s17.333 96.166 52 134.499s82 64.166 142 77.499l14 116h54l17 -146c-52 -9.33301 -89 -30.166 -111 -62.499zM361.999 438
c0 -21.333 -7.5 -39.5 -22.5 -54.5s-33.167 -22.5 -54.5 -22.5s-39.5 7.5 -54.5 22.5s-22.5 33.167 -22.5 54.5s7.5 39.5 22.5 54.5s33.167 22.5 54.5 22.5s39.5 -7.5 54.5 -22.5s22.5 -33.167 22.5 -54.5z" />
    <glyph glyph-name="Agrave" unicode="&#xc0;" horiz-adv-x="656" 
d="M169 660v40h238l199 -660h50v-40h-258v40h58l-37 123h-272l-36 -123h58v-40h-169v40h50l187 620h-68zM282 617l-121 -409h244zM198.5 950.5c11 9.66699 23 14.502 36 14.502s24 -2.33301 33 -7s16.333 -9.83398 22 -15.501s14.167 -14.834 25.5 -27.501l119 -132l-21 -24
l-148 73c-31.333 15.333 -53 28.833 -65 40.5s-18 25.167 -18 40.5s5.5 27.833 16.5 37.5z" />
    <glyph glyph-name="Aacute" unicode="&#xc1;" horiz-adv-x="656" 
d="M169 660v40h238l199 -660h50v-40h-258v40h58l-37 123h-272l-36 -123h58v-40h-169v40h50l187 620h-68zM282 617l-121 -409h244zM379.5 958c9 4.66699 20 6.99805 33 6.99805s25 -4.83301 36 -14.5s16.5 -22.167 16.5 -37.5s-6 -28.833 -18 -40.5
s-33.667 -25.167 -65 -40.5l-148 -73l-21 24l119 132c11.333 12.667 19.833 21.834 25.5 27.501s13 10.834 22 15.501z" />
    <glyph glyph-name="Acircumflex" unicode="&#xc2;" horiz-adv-x="656" 
d="M169 660v40h238l199 -660h50v-40h-258v40h58l-37 123h-272l-36 -123h58v-40h-169v40h50l187 620h-68zM282 617l-121 -409h244zM308 965c20 0 39.333 -12.667 58 -38l108 -144l-21 -24l-141 95h-8l-141 -95l-21 24l108 144c18.667 25.333 38 38 58 38z" />
    <glyph glyph-name="Atilde" unicode="&#xc3;" horiz-adv-x="656" 
d="M169 660v40h238l199 -660h50v-40h-258v40h58l-37 123h-272l-36 -123h58v-40h-169v40h50l187 620h-68zM282 617l-121 -409h244zM452 809v15c0 26 -9.33301 39 -28 39c-8 0 -15.667 -2.33301 -23 -7l-85 -48c-21.333 -12.667 -41.333 -19 -60 -19s-35.5 8.66699 -50.5 26
s-22.5 37.5 -22.5 60.5s2.66699 45.167 8 66.5h36v-15c0 -26 9.33301 -39 28 -39c8 0 15.667 2.33301 23 7l85 48c21.333 12.667 41.333 19 60 19s35.5 -8.66699 50.5 -26s22.5 -37.5 22.5 -60.5s-2.66699 -45.167 -8 -66.5h-36z" />
    <glyph glyph-name="Adieresis" unicode="&#xc4;" horiz-adv-x="656" 
d="M169 660v40h238l199 -660h50v-40h-258v40h58l-37 123h-272l-36 -123h58v-40h-169v40h50l187 620h-68zM282 617l-121 -409h244zM128 870c0 21.333 7.33301 39.333 22 54s32.667 22 54 22s39.333 -7.33301 54 -22s22 -32.667 22 -54s-7.33301 -39.333 -22 -54
s-32.667 -22 -54 -22s-39.333 7.33301 -54 22s-22 32.667 -22 54zM358 870c0 21.333 7.33301 39.333 22 54s32.667 22 54 22s39.333 -7.33301 54 -22s22 -32.667 22 -54s-7.33301 -39.333 -22 -54s-32.667 -22 -54 -22s-39.333 7.33301 -54 22s-22 32.667 -22 54z" />
    <glyph glyph-name="Aring" unicode="&#xc5;" horiz-adv-x="656" 
d="M169 660v40h238l199 -660h50v-40h-258v40h58l-37 123h-272l-36 -123h58v-40h-169v40h50l187 620h-68zM282 617l-121 -409h244zM216 785c-24.667 21.333 -37 49.5 -37 84.5s12.333 63.333 37 85s55.334 32.5 92.001 32.5s67.334 -10.833 92.001 -32.5s37 -50 37 -85
s-12.333 -63.167 -37 -84.5s-55.334 -32 -92.001 -32s-67.334 10.667 -92.001 32zM263 869c0 -55.333 14.833 -83 44.5 -83s44.5 27.667 44.5 83s-14.833 83 -44.5 83s-44.5 -27.667 -44.5 -83z" />
    <glyph glyph-name="AE" unicode="&#xc6;" horiz-adv-x="912" 
d="M-20 0l0.000976562 39.998h52l213 620h-67v40h603c14.667 0 25.5 -0.5 32.5 -1.5s13.5 -4.66699 19.5 -11s9 -16.166 9 -29.499l-27 -168h-39l-20 99c-6 30 -17.167 49.333 -33.5 58s-46.5 13 -90.5 13h-70v-342h230v-45h-230v-233h90c43.333 0 73.166 4.33301 89.499 13
s27.833 28 34.5 58l20 89h39l27 -158c0 -13.333 -3 -23.166 -9 -29.499s-12.5 -10 -19.5 -11s-17.833 -1.5 -32.5 -1.5h-449v40h60v233h-240l-80 -233h57v-40h-169zM412.001 317.998v342h-109l-116 -342h225z" />
    <glyph glyph-name="Ccedilla" unicode="&#xc7;" horiz-adv-x="650" 
d="M382 668c-58 0 -101.999 -29.832 -131.999 -89.499s-45 -134.167 -45 -223.5s15.833 -162.333 47.5 -219s77.167 -85 136.5 -85c33.333 0 64 7 92 21s49.167 28.667 63.5 44s29.5 34.666 45.5 57.999l35 -25c-32 -51.333 -67.833 -91.5 -107.5 -120.5
s-90.5 -43.5 -152.5 -43.5c-9.33301 0 -16 0.333008 -20 1l-31 -63c11.333 4.66699 25 7 41 7c31.333 0 56.666 -9 75.999 -27s29 -40.667 29 -68s-11.5 -50.833 -34.5 -70.5s-50.833 -29.5 -83.5 -29.5s-59.5 6 -80.5 18s-31.5 29 -31.5 51c0 11.333 4 21 12 29
s17.5 12 28.5 12s20.667 -4.16699 29 -12.5s12.5 -18.833 12.5 -31.5s-6 -23.334 -18 -32.001c5.33301 -1.33301 10.333 -2 15 -2c19.333 0 34.833 6 46.5 18s17.5 26.167 17.5 42.5s-6.33301 30.833 -19 43.5s-30.667 19 -54 19l-22 17l38 82
c-79.333 12.667 -143.5 52.667 -192.5 120s-73.5 150.5 -73.5 249.5s29.333 183.167 88 252.5s140 104 244 104c54 0 106 -10.667 156 -32s75 -46.666 75 -75.999c0 -11.333 -3.66699 -24.333 -11 -39l-60 -116l-36 11l9 62c2.66699 16 4 31.333 4 46
c0 26 -12.667 48.667 -38 68s-58.333 29 -99 29z" />
    <glyph glyph-name="Egrave" unicode="&#xc8;" horiz-adv-x="630" 
d="M519 0l-448.999 -0.00195312v40h60v620h-60v40h429c14.667 0 25.5 -0.5 32.5 -1.5s13.5 -4.66699 19.5 -11s9 -16.166 9 -29.499l-27 -168h-39l-20 99c-6 30 -17.167 49.333 -33.5 58s-46.5 13 -90.5 13h-70v-342h230v-45h-230v-233h90
c43.333 0 73.166 4.33301 89.499 13s27.833 28 34.5 58l20 89h39l27 -158c0 -13.333 -3 -23.166 -9 -29.499s-12.5 -10 -19.5 -11s-17.833 -1.5 -32.5 -1.5zM205.501 950.498c11 9.66699 23 14.502 36 14.502s24 -2.33301 33 -7s16.333 -9.83398 22 -15.501
s14.167 -14.834 25.5 -27.501l119 -132l-21 -24l-148 73c-31.333 15.333 -53 28.833 -65 40.5s-18 25.167 -18 40.5s5.5 27.833 16.5 37.5z" />
    <glyph glyph-name="Eacute" unicode="&#xc9;" horiz-adv-x="630" 
d="M519 0l-448.999 -0.00195312v40h60v620h-60v40h429c14.667 0 25.5 -0.5 32.5 -1.5s13.5 -4.66699 19.5 -11s9 -16.166 9 -29.499l-27 -168h-39l-20 99c-6 30 -17.167 49.333 -33.5 58s-46.5 13 -90.5 13h-70v-342h230v-45h-230v-233h90
c43.333 0 73.166 4.33301 89.499 13s27.833 28 34.5 58l20 89h39l27 -158c0 -13.333 -3 -23.166 -9 -29.499s-12.5 -10 -19.5 -11s-17.833 -1.5 -32.5 -1.5zM355.501 957.998c9 4.66699 20 6.99805 33 6.99805s25 -4.83301 36 -14.5s16.5 -22.167 16.5 -37.5
s-6 -28.833 -18 -40.5s-33.667 -25.167 -65 -40.5l-148 -73l-21 24l119 132c11.333 12.667 19.833 21.834 25.5 27.501s13 10.834 22 15.501z" />
    <glyph glyph-name="Ecircumflex" unicode="&#xca;" horiz-adv-x="630" 
d="M519 0l-448.999 -0.00195312v40h60v620h-60v40h429c14.667 0 25.5 -0.5 32.5 -1.5s13.5 -4.66699 19.5 -11s9 -16.166 9 -29.499l-27 -168h-39l-20 99c-6 30 -17.167 49.333 -33.5 58s-46.5 13 -90.5 13h-70v-342h230v-45h-230v-233h90
c43.333 0 73.166 4.33301 89.499 13s27.833 28 34.5 58l20 89h39l27 -158c0 -13.333 -3 -23.166 -9 -29.499s-12.5 -10 -19.5 -11s-17.833 -1.5 -32.5 -1.5zM335.001 964.998c20 0 39.333 -12.667 58 -38l108 -144l-21 -24l-141 95h-8l-141 -95l-21 24l108 144
c18.667 25.333 38 38 58 38z" />
    <glyph glyph-name="Edieresis" unicode="&#xcb;" horiz-adv-x="630" 
d="M519 0l-448.999 -0.00195312v40h60v620h-60v40h429c14.667 0 25.5 -0.5 32.5 -1.5s13.5 -4.66699 19.5 -11s9 -16.166 9 -29.499l-27 -168h-39l-20 99c-6 30 -17.167 49.333 -33.5 58s-46.5 13 -90.5 13h-70v-342h230v-45h-230v-233h90
c43.333 0 73.166 4.33301 89.499 13s27.833 28 34.5 58l20 89h39l27 -158c0 -13.333 -3 -23.166 -9 -29.499s-12.5 -10 -19.5 -11s-17.833 -1.5 -32.5 -1.5zM124.001 869.998c0 21.333 7.33301 39.333 22 54s32.667 22 54 22s39.333 -7.33301 54 -22s22 -32.667 22 -54
s-7.33301 -39.333 -22 -54s-32.667 -22 -54 -22s-39.333 7.33301 -54 22s-22 32.667 -22 54zM354.001 869.998c0 21.333 7.33301 39.333 22 54s32.667 22 54 22s39.333 -7.33301 54 -22s22 -32.667 22 -54s-7.33301 -39.333 -22 -54s-32.667 -22 -54 -22
s-39.333 7.33301 -54 22s-22 32.667 -22 54z" />
    <glyph glyph-name="Igrave" unicode="&#xcc;" horiz-adv-x="410" 
d="M60 660v40h290v-40h-70v-620h70v-40h-290v40h70v620h-70zM95.5 950.5c11 9.66699 23 14.502 36 14.502s24 -2.33301 33 -7s16.333 -9.83398 22 -15.501s14.167 -14.834 25.5 -27.501l119 -132l-21 -24l-148 73c-31.333 15.333 -53 28.833 -65 40.5s-18 25.167 -18 40.5
s5.5 27.833 16.5 37.5z" />
    <glyph glyph-name="Iacute" unicode="&#xcd;" horiz-adv-x="410" 
d="M60 660v40h290v-40h-70v-620h70v-40h-290v40h70v620h-70zM265.5 958c9 4.66699 20 6.99805 33 6.99805s25 -4.83301 36 -14.5s16.5 -22.167 16.5 -37.5s-6 -28.833 -18 -40.5s-33.667 -25.167 -65 -40.5l-148 -73l-21 24l119 132
c11.333 12.667 19.833 21.834 25.5 27.501s13 10.834 22 15.501z" />
    <glyph glyph-name="Icircumflex" unicode="&#xce;" horiz-adv-x="410" 
d="M60 660v40h290v-40h-70v-620h70v-40h-290v40h70v620h-70zM205 965c20 0 39.333 -12.667 58 -38l108 -144l-21 -24l-141 95h-8l-141 -95l-21 24l108 144c18.667 25.333 38 38 58 38z" />
    <glyph glyph-name="Idieresis" unicode="&#xcf;" horiz-adv-x="410" 
d="M60 660v40h290v-40h-70v-620h70v-40h-290v40h70v620h-70zM4 870c0 21.333 7.33301 39.333 22 54s32.667 22 54 22s39.333 -7.33301 54 -22s22 -32.667 22 -54s-7.33301 -39.333 -22 -54s-32.667 -22 -54 -22s-39.333 7.33301 -54 22s-22 32.667 -22 54zM234 870
c0 21.333 7.33301 39.333 22 54s32.667 22 54 22s39.333 -7.33301 54 -22s22 -32.667 22 -54s-7.33301 -39.333 -22 -54s-32.667 -22 -54 -22s-39.333 7.33301 -54 22s-22 32.667 -22 54z" />
    <glyph glyph-name="Eth" unicode="&#xd0;" horiz-adv-x="782" 
d="M70 273v45h80v342h-80v40h270c120 0 217 -32.5 291 -97.5s111 -149 111 -252s-37 -187.167 -111 -252.5s-171 -98 -291 -98h-270v40h80v233h-80zM340 660h-40v-342h150v-45h-150v-233h40c77.333 0 137.833 27.833 181.5 83.5s65.5 131.167 65.5 226.5
s-21.833 170.833 -65.5 226.5s-104.167 83.5 -181.5 83.5z" />
    <glyph glyph-name="Ntilde" unicode="&#xd1;" horiz-adv-x="770" 
d="M60 0v40h60v620h-60v40h234l286 -563v523h-60v40h190v-40h-60v-660h-159l-301 592v-552h60v-40h-190zM510 809v15c0 26 -9.33301 39 -28 39c-8 0 -15.667 -2.33301 -23 -7l-85 -48c-21.333 -12.667 -41.333 -19 -60 -19s-35.5 8.66699 -50.5 26s-22.5 37.5 -22.5 60.5
s2.66699 45.167 8 66.5h36v-15c0 -26 9.33301 -39 28 -39c8 0 15.667 2.33301 23 7l85 48c21.333 12.667 41.333 19 60 19s35.5 -8.66699 50.5 -26s22.5 -37.5 22.5 -60.5s-2.66699 -45.167 -8 -66.5h-36z" />
    <glyph glyph-name="Ograve" unicode="&#xd2;" horiz-adv-x="768" 
d="M136.5 611.5c57.667 69 140 103.499 247 103.499s189.5 -34.333 247.5 -103s87 -156.167 87 -262.5s-29 -193.666 -87 -261.999s-140.5 -102.5 -247.5 -102.5s-189.333 34.167 -247 102.5s-86.5 155.5 -86.5 261.5s28.833 193.5 86.5 262.5zM384 667.999
c-39.333 0 -72.667 -15.333 -100 -46c-52.667 -57.333 -79 -148.333 -79 -273c0 -124 26.333 -214.333 79 -271c28 -30.667 61.333 -46 100 -46c57.333 0 101.5 30.667 132.5 92s46.5 136.5 46.5 225.5s-15.5 164.333 -46.5 226s-75.167 92.5 -132.5 92.5zM254.499 950.499
c11 9.66699 23 14.502 36 14.502s24 -2.33301 33 -7s16.333 -9.83398 22 -15.501s14.167 -14.834 25.5 -27.501l119 -132l-21 -24l-148 73c-31.333 15.333 -53 28.833 -65 40.5s-18 25.167 -18 40.5s5.5 27.833 16.5 37.5z" />
    <glyph glyph-name="Oacute" unicode="&#xd3;" horiz-adv-x="768" 
d="M136.5 611.5c57.667 69 140 103.499 247 103.499s189.5 -34.333 247.5 -103s87 -156.167 87 -262.5s-29 -193.666 -87 -261.999s-140.5 -102.5 -247.5 -102.5s-189.333 34.167 -247 102.5s-86.5 155.5 -86.5 261.5s28.833 193.5 86.5 262.5zM384 667.999
c-39.333 0 -72.667 -15.333 -100 -46c-52.667 -57.333 -79 -148.333 -79 -273c0 -124 26.333 -214.333 79 -271c28 -30.667 61.333 -46 100 -46c57.333 0 101.5 30.667 132.5 92s46.5 136.5 46.5 225.5s-15.5 164.333 -46.5 226s-75.167 92.5 -132.5 92.5zM424.499 957.999
c9 4.66699 20 6.99805 33 6.99805s25 -4.83301 36 -14.5s16.5 -22.167 16.5 -37.5s-6 -28.833 -18 -40.5s-33.667 -25.167 -65 -40.5l-148 -73l-21 24l119 132c11.333 12.667 19.833 21.834 25.5 27.501s13 10.834 22 15.501z" />
    <glyph glyph-name="Ocircumflex" unicode="&#xd4;" horiz-adv-x="768" 
d="M136.5 611.5c57.667 69 140 103.499 247 103.499s189.5 -34.333 247.5 -103s87 -156.167 87 -262.5s-29 -193.666 -87 -261.999s-140.5 -102.5 -247.5 -102.5s-189.333 34.167 -247 102.5s-86.5 155.5 -86.5 261.5s28.833 193.5 86.5 262.5zM384 667.999
c-39.333 0 -72.667 -15.333 -100 -46c-52.667 -57.333 -79 -148.333 -79 -273c0 -124 26.333 -214.333 79 -271c28 -30.667 61.333 -46 100 -46c57.333 0 101.5 30.667 132.5 92s46.5 136.5 46.5 225.5s-15.5 164.333 -46.5 226s-75.167 92.5 -132.5 92.5zM383.999 964.999
c20 0 39.333 -12.667 58 -38l108 -144l-21 -24l-141 95h-8l-141 -95l-21 24l108 144c18.667 25.333 38 38 58 38z" />
    <glyph glyph-name="Otilde" unicode="&#xd5;" horiz-adv-x="768" 
d="M136.5 611.5c57.667 69 140 103.499 247 103.499s189.5 -34.333 247.5 -103s87 -156.167 87 -262.5s-29 -193.666 -87 -261.999s-140.5 -102.5 -247.5 -102.5s-189.333 34.167 -247 102.5s-86.5 155.5 -86.5 261.5s28.833 193.5 86.5 262.5zM384 667.999
c-39.333 0 -72.667 -15.333 -100 -46c-52.667 -57.333 -79 -148.333 -79 -273c0 -124 26.333 -214.333 79 -271c28 -30.667 61.333 -46 100 -46c57.333 0 101.5 30.667 132.5 92s46.5 136.5 46.5 225.5s-15.5 164.333 -46.5 226s-75.167 92.5 -132.5 92.5zM495.999 808.999
v15c0 26 -9.33301 39 -28 39c-8 0 -15.667 -2.33301 -23 -7l-85 -48c-21.333 -12.667 -41.333 -19 -60 -19s-35.5 8.66699 -50.5 26s-22.5 37.5 -22.5 60.5s2.66699 45.167 8 66.5h36v-15c0 -26 9.33301 -39 28 -39c8 0 15.667 2.33301 23 7l85 48
c21.333 12.667 41.333 19 60 19s35.5 -8.66699 50.5 -26s22.5 -37.5 22.5 -60.5s-2.66699 -45.167 -8 -66.5h-36z" />
    <glyph glyph-name="Odieresis" unicode="&#xd6;" horiz-adv-x="768" 
d="M136.5 611.5c57.667 69 140 103.499 247 103.499s189.5 -34.333 247.5 -103s87 -156.167 87 -262.5s-29 -193.666 -87 -261.999s-140.5 -102.5 -247.5 -102.5s-189.333 34.167 -247 102.5s-86.5 155.5 -86.5 261.5s28.833 193.5 86.5 262.5zM384 667.999
c-39.333 0 -72.667 -15.333 -100 -46c-52.667 -57.333 -79 -148.333 -79 -273c0 -124 26.333 -214.333 79 -271c28 -30.667 61.333 -46 100 -46c57.333 0 101.5 30.667 132.5 92s46.5 136.5 46.5 225.5s-15.5 164.333 -46.5 226s-75.167 92.5 -132.5 92.5zM192.999 869.999
c0 21.333 7.5 39.333 22.5 54s32.833 22 53.5 22s38.5 -7.33301 53.5 -22s22.5 -32.667 22.5 -54s-7.5 -39.333 -22.5 -54s-32.833 -22 -53.5 -22s-38.5 7.33301 -53.5 22s-22.5 32.667 -22.5 54zM422.999 869.999c0 21.333 7.5 39.333 22.5 54s32.833 22 53.5 22
s38.5 -7.33301 53.5 -22s22.5 -32.667 22.5 -54s-7.5 -39.333 -22.5 -54s-32.833 -22 -53.5 -22s-38.5 7.33301 -53.5 22s-22.5 32.667 -22.5 54z" />
    <glyph glyph-name="multiply" unicode="&#xd7;" horiz-adv-x="560" 
d="M147 175l-42 42l133 133l-133 133l42 42l133 -133l133 133l42 -42l-133 -133l133 -133l-42 -42l-133 133z" />
    <glyph glyph-name="Oslash" unicode="&#xd8;" horiz-adv-x="768" 
d="M718 349c0 -106 -29.001 -193.167 -87.001 -261.5s-140.667 -102.5 -248 -102.5c-21.333 0 -45.333 2.33301 -72 7l-19 -72h-49l22 83c-69.333 22.667 -122.5 65.167 -159.5 127.5s-55.5 135.166 -55.5 218.499c0 106 28.833 193.5 86.5 262.5
s139.834 103.5 246.501 103.5c22 0 46.333 -2.33301 73 -7l19 71h50l-23 -82c70 -23.333 123.5 -66.166 160.5 -128.499s55.5 -135.5 55.5 -219.5zM562.999 349c0 126 -27 217.667 -81 275l-156 -579c16.667 -8.66699 36 -13 58 -13c57.333 0 101.5 30.667 132.5 92
s46.5 136.333 46.5 225zM383.999 668c-39.333 0 -72.667 -15.334 -100 -46.001c-52.667 -57.333 -79 -148.666 -79 -273.999s26.667 -216 80 -272l156 579c-18.667 8.66699 -37.667 13 -57 13z" />
    <glyph glyph-name="Ugrave" unicode="&#xd9;" horiz-adv-x="700" 
d="M485 660v40.001h190v-40h-60v-419c0 -48 -7.16699 -89.333 -21.5 -124s-34.166 -61.334 -59.499 -80.001c-47.333 -34.667 -106.333 -52 -177 -52s-130.334 17.667 -179.001 53c-26 18 -46.333 44.333 -61 79s-22 76.334 -22 125.001v418h-60v40h270v-40h-60v-450
c0 -52 14 -92 42 -120s62.5 -42 103.5 -42s77 14.167 108 42.5s46.5 68.166 46.5 119.499v450h-60zM240.5 950.501c11 9.66699 23 14.502 36 14.502s24 -2.33301 33 -7s16.333 -9.83398 22 -15.501s14.167 -14.834 25.5 -27.501l119 -132l-21 -24l-148 73
c-31.333 15.333 -53 28.833 -65 40.5s-18 25.167 -18 40.5s5.5 27.833 16.5 37.5z" />
    <glyph glyph-name="Uacute" unicode="&#xda;" horiz-adv-x="700" 
d="M485 660v40.001h190v-40h-60v-419c0 -48 -7.16699 -89.333 -21.5 -124s-34.166 -61.334 -59.499 -80.001c-47.333 -34.667 -106.333 -52 -177 -52s-130.334 17.667 -179.001 53c-26 18 -46.333 44.333 -61 79s-22 76.334 -22 125.001v418h-60v40h270v-40h-60v-450
c0 -52 14 -92 42 -120s62.5 -42 103.5 -42s77 14.167 108 42.5s46.5 68.166 46.5 119.499v450h-60zM395.5 958.001c9 4.66699 20 6.99805 33 6.99805s25 -4.83301 36 -14.5s16.5 -22.167 16.5 -37.5s-6 -28.833 -18 -40.5s-33.667 -25.167 -65 -40.5l-148 -73l-21 24
l119 132c11.333 12.667 19.833 21.834 25.5 27.501s13 10.834 22 15.501z" />
    <glyph glyph-name="Ucircumflex" unicode="&#xdb;" horiz-adv-x="700" 
d="M485 660v40.001h190v-40h-60v-419c0 -48 -7.16699 -89.333 -21.5 -124s-34.166 -61.334 -59.499 -80.001c-47.333 -34.667 -106.333 -52 -177 -52s-130.334 17.667 -179.001 53c-26 18 -46.333 44.333 -61 79s-22 76.334 -22 125.001v418h-60v40h270v-40h-60v-450
c0 -52 14 -92 42 -120s62.5 -42 103.5 -42s77 14.167 108 42.5s46.5 68.166 46.5 119.499v450h-60zM370 965.001c20 0 39.333 -12.667 58 -38l108 -144l-21 -24l-141 95h-8l-141 -95l-21 24l108 144c18.667 25.333 38 38 58 38z" />
    <glyph glyph-name="Udieresis" unicode="&#xdc;" horiz-adv-x="700" 
d="M485 660v40.001h190v-40h-60v-419c0 -48 -7.16699 -89.333 -21.5 -124s-34.166 -61.334 -59.499 -80.001c-47.333 -34.667 -106.333 -52 -177 -52s-130.334 17.667 -179.001 53c-26 18 -46.333 44.333 -61 79s-22 76.334 -22 125.001v418h-60v40h270v-40h-60v-450
c0 -52 14 -92 42 -120s62.5 -42 103.5 -42s77 14.167 108 42.5s46.5 68.166 46.5 119.499v450h-60zM164 870.001c0 21.333 7.33301 39.333 22 54s32.667 22 54 22s39.333 -7.33301 54 -22s22 -32.667 22 -54s-7.33301 -39.333 -22 -54s-32.667 -22 -54 -22
s-39.333 7.33301 -54 22s-22 32.667 -22 54zM394 870.001c0 21.333 7.33301 39.333 22 54s32.667 22 54 22s39.333 -7.33301 54 -22s22 -32.667 22 -54s-7.33301 -39.333 -22 -54s-32.667 -22 -54 -22s-39.333 7.33301 -54 22s-22 32.667 -22 54z" />
    <glyph glyph-name="Yacute" unicode="&#xdd;" horiz-adv-x="607" 
d="M135 0v40h100v210l-182 410h-48v40h198l158 -392l90 392h151v-40h-47l-170 -410v-210h100v-40h-350zM377.5 958c9 4.66699 20 6.99805 33 6.99805s25 -4.83301 36 -14.5s16.5 -22.167 16.5 -37.5s-6 -28.833 -18 -40.5s-33.667 -25.167 -65 -40.5l-148 -73l-21 24
l119 132c11.333 12.667 19.833 21.834 25.5 27.501s13 10.834 22 15.501z" />
    <glyph glyph-name="Thorn" unicode="&#xde;" horiz-adv-x="673" 
d="M70 660l-0.000976562 40h270v-40h-60v-90h10c164 0 266.667 -37.667 308 -113c16.667 -29.333 25 -65 25 -107s-8.16699 -77.667 -24.5 -107s-40.166 -52 -71.499 -68c-58.667 -30 -137.667 -45 -237 -45h-10v-90h60v-40h-270v40h60v620h-60zM289.999 530
l-10 -0.00195312v-360h10c52.667 0 96.334 15.833 131.001 47.5s52 75.834 52 132.501s-17.333 100.834 -52 132.501s-78.334 47.5 -131.001 47.5z" />
    <glyph glyph-name="germandbls" unicode="&#xdf;" horiz-adv-x="655" 
d="M552 597c0 -24 -7.33496 -46.501 -22.002 -67.501s-31 -37.833 -49 -50.5c-47.333 -33.333 -71 -63 -71 -89c0 -31.333 27 -60.666 81 -87.999c22.667 -12 45.334 -24.667 68.001 -38s41.834 -30.5 57.501 -51.5s23.5 -45.167 23.5 -72.5c0 -50 -16 -88.333 -48 -115
s-79 -40 -141 -40s-113.333 15 -154 45l18 31c28 -16 57 -24 87 -24s52.167 7.66699 66.5 23s21.5 34.666 21.5 57.999s-5.16699 44.333 -15.5 63s-22.833 35.167 -37.5 49.5l-45 43.5c-35.333 36 -53 74.333 -53 115c0 26.667 13.333 61.167 40 103.5s40 75.333 40 99
s-5.66699 41.834 -17 54.501s-28.333 19 -51 19s-41.667 -13.5 -57 -40.5s-23 -68.833 -23 -125.5v-499h-150v445h-82v41h82v3c0 72 20.833 127.667 62.5 167s98.167 59 169.5 59s122.333 -11 153 -33s46 -50.333 46 -85z" />
    <glyph glyph-name="agrave" unicode="&#xe0;" horiz-adv-x="710" 
d="M597 500l-0.000976562 -389c0 -18 4.33301 -32.167 13 -42.5s22 -15.5 40 -15.5s38.667 9.66699 62 29l18 -24c-53.333 -48.667 -106.666 -73 -159.999 -73c-63.333 0 -102.333 29.667 -117 89c-34.667 -59.333 -85.667 -89 -153 -89c-76.667 0 -135 24.833 -175 74.5
s-60 113 -60 190s21.5 140.5 64.5 190.5s103.167 75 180.5 75c59.333 0 105 -23.667 137 -71v56h150zM219.999 250c0 -64 9.33301 -114.667 28 -152s47.167 -56 85.5 -56s67.666 18.833 87.999 56.5s30.5 88.167 30.5 151.5s-10.167 113.833 -30.5 151.5
s-49.666 56.5 -87.999 56.5s-66.833 -18.667 -85.5 -56s-28 -88 -28 -152zM223.499 750.5c11 9.66699 23 14.502 36 14.502s24 -2.33301 33 -7s16.333 -9.83398 22 -15.501s14.167 -14.834 25.5 -27.501l119 -132l-21 -24l-148 73c-31.333 15.333 -53 28.833 -65 40.5
s-18 25.167 -18 40.5s5.5 27.833 16.5 37.5z" />
    <glyph glyph-name="aacute" unicode="&#xe1;" horiz-adv-x="695" 
d="M582 500l-0.000976562 -389c0 -18 4.33301 -32.167 13 -42.5s22 -15.5 40 -15.5s38.667 9.66699 62 29l18 -24c-53.333 -48.667 -106.666 -73 -159.999 -73c-63.333 0 -102.333 29.667 -117 89c-34.667 -59.333 -85.667 -89 -153 -89c-76.667 0 -135 24.833 -175 74.5
s-60 113 -60 190s21.5 140.5 64.5 190.5s103.167 75 180.5 75c59.333 0 105 -23.667 137 -71v56h150zM204.999 250c0 -64 9.33301 -114.667 28 -152s47.167 -56 85.5 -56s67.666 18.833 87.999 56.5s30.5 88.167 30.5 151.5s-10.167 113.833 -30.5 151.5
s-49.666 56.5 -87.999 56.5s-66.833 -18.667 -85.5 -56s-28 -88 -28 -152zM425.499 758c9 4.66699 20 6.99805 33 6.99805s25 -4.83301 36 -14.5s16.5 -22.167 16.5 -37.5s-6 -28.833 -18 -40.5s-33.667 -25.167 -65 -40.5l-148 -73l-21 24l119 132
c11.333 12.667 19.833 21.834 25.5 27.501s13 10.834 22 15.501z" />
    <glyph glyph-name="acircumflex" unicode="&#xe2;" horiz-adv-x="710" 
d="M597 500l-0.000976562 -389c0 -18 4.33301 -32.167 13 -42.5s22 -15.5 40 -15.5s38.667 9.66699 62 29l18 -24c-53.333 -48.667 -106.666 -73 -159.999 -73c-63.333 0 -102.333 29.667 -117 89c-34.667 -59.333 -85.667 -89 -153 -89c-76.667 0 -135 24.833 -175 74.5
s-60 113 -60 190s21.5 140.5 64.5 190.5s103.167 75 180.5 75c59.333 0 105 -23.667 137 -71v56h150zM219.999 250c0 -64 9.33301 -114.667 28 -152s47.167 -56 85.5 -56s67.666 18.833 87.999 56.5s30.5 88.167 30.5 151.5s-10.167 113.833 -30.5 151.5
s-49.666 56.5 -87.999 56.5s-66.833 -18.667 -85.5 -56s-28 -88 -28 -152zM334.999 765c20 0 39.333 -12.667 58 -38l108 -144l-21 -24l-141 95h-8l-141 -95l-21 24l108 144c18.667 25.333 38 38 58 38z" />
    <glyph glyph-name="atilde" unicode="&#xe3;" horiz-adv-x="695" 
d="M582 500l-0.000976562 -389c0 -18 4.33301 -32.167 13 -42.5s22 -15.5 40 -15.5s38.667 9.66699 62 29l18 -24c-53.333 -48.667 -106.666 -73 -159.999 -73c-63.333 0 -102.333 29.667 -117 89c-34.667 -59.333 -85.667 -89 -153 -89c-76.667 0 -135 24.833 -175 74.5
s-60 113 -60 190s21.5 140.5 64.5 190.5s103.167 75 180.5 75c59.333 0 105 -23.667 137 -71v56h150zM204.999 250c0 -64 9.33301 -114.667 28 -152s47.167 -56 85.5 -56s67.666 18.833 87.999 56.5s30.5 88.167 30.5 151.5s-10.167 113.833 -30.5 151.5
s-49.666 56.5 -87.999 56.5s-66.833 -18.667 -85.5 -56s-28 -88 -28 -152zM459.999 609v15c0 26 -9.33301 39 -28 39c-8 0 -15.667 -2.33301 -23 -7l-85 -48c-21.333 -12.667 -41.333 -19 -60 -19s-35.5 8.66699 -50.5 26s-22.5 37.5 -22.5 60.5s2.66699 45.167 8 66.5h36
v-15c0 -26 9.33301 -39 28 -39c8 0 15.667 2.33301 23 7l85 48c21.333 12.667 41.333 19 60 19s35.5 -8.66699 50.5 -26s22.5 -37.5 22.5 -60.5s-2.66699 -45.167 -8 -66.5h-36z" />
    <glyph glyph-name="adieresis" unicode="&#xe4;" horiz-adv-x="695" 
d="M582 500l-0.000976562 -389c0 -18 4.33301 -32.167 13 -42.5s22 -15.5 40 -15.5s38.667 9.66699 62 29l18 -24c-53.333 -48.667 -106.666 -73 -159.999 -73c-63.333 0 -102.333 29.667 -117 89c-34.667 -59.333 -85.667 -89 -153 -89c-76.667 0 -135 24.833 -175 74.5
s-60 113 -60 190s21.5 140.5 64.5 190.5s103.167 75 180.5 75c59.333 0 105 -23.667 137 -71v56h150zM204.999 250c0 -64 9.33301 -114.667 28 -152s47.167 -56 85.5 -56s67.666 18.833 87.999 56.5s30.5 88.167 30.5 151.5s-10.167 113.833 -30.5 151.5
s-49.666 56.5 -87.999 56.5s-66.833 -18.667 -85.5 -56s-28 -88 -28 -152zM155.999 670c0 21.333 7.33301 39.333 22 54s32.667 22 54 22s39.333 -7.33301 54 -22s22 -32.667 22 -54s-7.33301 -39.333 -22 -54s-32.667 -22 -54 -22s-39.333 7.33301 -54 22
s-22 32.667 -22 54zM385.999 670c0 21.333 7.33301 39.333 22 54s32.667 22 54 22s39.333 -7.33301 54 -22s22 -32.667 22 -54s-7.33301 -39.333 -22 -54s-32.667 -22 -54 -22s-39.333 7.33301 -54 22s-22 32.667 -22 54z" />
    <glyph glyph-name="aring" unicode="&#xe5;" horiz-adv-x="710" 
d="M597 500l-0.000976562 -389c0 -18 4.33301 -32.167 13 -42.5s22 -15.5 40 -15.5s38.667 9.66699 62 29l18 -24c-53.333 -48.667 -106.666 -73 -159.999 -73c-63.333 0 -102.333 29.667 -117 89c-34.667 -59.333 -85.667 -89 -153 -89c-76.667 0 -135 24.833 -175 74.5
s-60 113 -60 190s21.5 140.5 64.5 190.5s103.167 75 180.5 75c59.333 0 105 -23.667 137 -71v56h150zM219.999 250c0 -64 9.33301 -114.667 28 -152s47.167 -56 85.5 -56s67.666 18.833 87.999 56.5s30.5 88.167 30.5 151.5s-10.167 113.833 -30.5 151.5
s-49.666 56.5 -87.999 56.5s-66.833 -18.667 -85.5 -56s-28 -88 -28 -152zM252.999 585c-24.667 21.333 -37 49.5 -37 84.5s12.333 63.333 37 85s55.334 32.5 92.001 32.5s67.334 -10.833 92.001 -32.5s37 -50 37 -85s-12.333 -63.167 -37 -84.5s-55.334 -32 -92.001 -32
s-67.334 10.667 -92.001 32zM299.999 669c0 -55.333 14.833 -83 44.5 -83s44.5 27.667 44.5 83s-14.833 83 -44.5 83s-44.5 -27.667 -44.5 -83z" />
    <glyph glyph-name="ae" unicode="&#xe6;" horiz-adv-x="904" 
d="M643 180c-36.667 0 -73.998 4.00098 -111.998 12.001c6 -44 19.833 -79.167 41.5 -105.5s50.167 -39.5 85.5 -39.5c64 0 118.333 25 163 75l28 -18c-22.667 -36 -52.667 -64.833 -90 -86.5s-80.333 -32.5 -129 -32.5s-91.667 12 -129 36s-66.666 56 -87.999 96
c-12.667 -38.667 -34.5 -70.334 -65.5 -95.001s-72.167 -37 -123.5 -37s-92.333 14.667 -123 44s-46 67.833 -46 115.5s18 86.334 54 116.001s80.333 44.5 133 44.5s102 -10.333 148 -31c0 88 -16.667 142.333 -50 163c-14.667 9.33301 -33.334 14 -56.001 14
c-47.333 0 -100.333 -17.667 -159 -53l-20 32c40 32 77.167 54.167 111.5 66.5s74.833 18.5 121.5 18.5c65.333 0 115 -16.333 149 -49c45.333 32.667 99.666 49 162.999 49s111.666 -14.667 144.999 -44s50 -66.333 50 -111s-18.5 -85.834 -55.5 -123.501
s-85.833 -56.5 -146.5 -56.5zM527.002 250.001v-24c22 -4.66699 40 -7 54 -7c44.667 0 78.5 14.833 101.5 44.5s34.5 61 34.5 94s-6.5 58.5 -19.5 76.5s-33.5 27 -61.5 27s-53.167 -18.333 -75.5 -55s-33.5 -88.667 -33.5 -156zM278.002 52.001c74.667 0 112 62.333 112 187
c-34.667 12.667 -67.167 19 -97.5 19s-53.333 -10 -69 -30s-23.5 -45.333 -23.5 -76s7 -55 21 -73s33 -27 57 -27z" />
    <glyph glyph-name="ccedilla" unicode="&#xe7;" horiz-adv-x="562" 
d="M331 -15c-9.33301 0 -15.999 0.332031 -19.999 0.999023l-31 -63c11.333 4.66699 25 7 41 7c31.333 0 56.666 -9 75.999 -27s29 -40.667 29 -68s-11.5 -50.833 -34.5 -70.5s-50.833 -29.5 -83.5 -29.5s-59.5 6 -80.5 18s-31.5 29 -31.5 51c0 11.333 4 21 12 29
s17.5 12 28.5 12s20.667 -4.16699 29 -12.5s12.5 -18.833 12.5 -31.5s-6 -23.334 -18 -32.001c5.33301 -1.33301 10.333 -2 15 -2c19.333 0 34.833 6 46.5 18s17.5 26.167 17.5 42.5s-6.33301 30.833 -19 43.5s-30.667 19 -54 19l-22 17l38 82
c-66 10 -118.667 39.333 -158 88s-59 108.334 -59 179.001s24.5 131.5 73.5 182.5s112.833 76.5 191.5 76.5c44 0 87 -12.667 129 -38s63 -59.666 63 -102.999c0 -22 -7.83301 -40.833 -23.5 -56.5s-34.5 -23.5 -56.5 -23.5s-40.833 7.83301 -56.5 23.5
s-23.5 33.5 -23.5 53.5s5.33301 37 16 51s24.667 23.667 42 29c-18.667 8 -40 12 -64 12c-44.667 0 -78.5 -19.833 -101.5 -59.5s-34.5 -90 -34.5 -151s11.5 -110.5 34.5 -148.5s56.833 -57 101.5 -57c60 0 111 25 153 75l28 -18c-22 -36 -50.833 -64.833 -86.5 -86.5
s-75.5 -32.5 -119.5 -32.5z" />
    <glyph glyph-name="egrave" unicode="&#xe8;" horiz-adv-x="597" 
d="M374.5 280.5c23.667 29 35.5 58.333 35.5 88s-6.5 52.5 -19.5 68.5s-32.667 24 -59 24s-51.5 -18.667 -75.5 -56s-36 -87.333 -36 -150s11.333 -113 34 -151s55 -57 97 -57c64 0 118.333 25 163 75l28 -18c-22.667 -36 -52.667 -64.833 -90 -86.5
s-79.333 -32.5 -126 -32.5c-79.333 0 -142.666 26.167 -189.999 78.5s-71 115.5 -71 189.5s25.167 136.167 75.5 186.5s120.166 75.5 209.499 75.5c58.667 0 104.667 -13.667 138 -41s50 -62 50 -104s-18.5 -80.833 -55.5 -116.5s-85.833 -53.5 -146.5 -53.5
c-20.667 0 -40.667 2.33301 -60 7l-2 24c43.333 4 76.833 20.5 100.5 49.5zM208.5 750.5c11 9.66699 23 14.502 36 14.502s24 -2.33301 33 -7s16.333 -9.83398 22 -15.501s14.167 -14.834 25.5 -27.501l119 -132l-21 -24l-148 73c-31.333 15.333 -53 28.833 -65 40.5
s-18 25.167 -18 40.5s5.5 27.833 16.5 37.5z" />
    <glyph glyph-name="eacute" unicode="&#xe9;" horiz-adv-x="597" 
d="M374.5 280.5c23.667 29 35.5 58.333 35.5 88s-6.5 52.5 -19.5 68.5s-32.667 24 -59 24s-51.5 -18.667 -75.5 -56s-36 -87.333 -36 -150s11.333 -113 34 -151s55 -57 97 -57c64 0 118.333 25 163 75l28 -18c-22.667 -36 -52.667 -64.833 -90 -86.5
s-79.333 -32.5 -126 -32.5c-79.333 0 -142.666 26.167 -189.999 78.5s-71 115.5 -71 189.5s25.167 136.167 75.5 186.5s120.166 75.5 209.499 75.5c58.667 0 104.667 -13.667 138 -41s50 -62 50 -104s-18.5 -80.833 -55.5 -116.5s-85.833 -53.5 -146.5 -53.5
c-20.667 0 -40.667 2.33301 -60 7l-2 24c43.333 4 76.833 20.5 100.5 49.5zM376.5 758c9 4.66699 20 6.99805 33 6.99805s25 -4.83301 36 -14.5s16.5 -22.167 16.5 -37.5s-6 -28.833 -18 -40.5s-33.667 -25.167 -65 -40.5l-148 -73l-21 24l119 132
c11.333 12.667 19.833 21.834 25.5 27.501s13 10.834 22 15.501z" />
    <glyph glyph-name="ecircumflex" unicode="&#xea;" horiz-adv-x="597" 
d="M374.5 280.5c23.667 29 35.5 58.333 35.5 88s-6.5 52.5 -19.5 68.5s-32.667 24 -59 24s-51.5 -18.667 -75.5 -56s-36 -87.333 -36 -150s11.333 -113 34 -151s55 -57 97 -57c64 0 118.333 25 163 75l28 -18c-22.667 -36 -52.667 -64.833 -90 -86.5
s-79.333 -32.5 -126 -32.5c-79.333 0 -142.666 26.167 -189.999 78.5s-71 115.5 -71 189.5s25.167 136.167 75.5 186.5s120.166 75.5 209.499 75.5c58.667 0 104.667 -13.667 138 -41s50 -62 50 -104s-18.5 -80.833 -55.5 -116.5s-85.833 -53.5 -146.5 -53.5
c-20.667 0 -40.667 2.33301 -60 7l-2 24c43.333 4 76.833 20.5 100.5 49.5zM308 765c20 0 39.333 -12.667 58 -38l108 -144l-21 -24l-141 95h-8l-141 -95l-21 24l108 144c18.667 25.333 38 38 58 38z" />
    <glyph glyph-name="edieresis" unicode="&#xeb;" horiz-adv-x="597" 
d="M374.5 280.5c23.667 29 35.5 58.333 35.5 88s-6.5 52.5 -19.5 68.5s-32.667 24 -59 24s-51.5 -18.667 -75.5 -56s-36 -87.333 -36 -150s11.333 -113 34 -151s55 -57 97 -57c64 0 118.333 25 163 75l28 -18c-22.667 -36 -52.667 -64.833 -90 -86.5
s-79.333 -32.5 -126 -32.5c-79.333 0 -142.666 26.167 -189.999 78.5s-71 115.5 -71 189.5s25.167 136.167 75.5 186.5s120.166 75.5 209.499 75.5c58.667 0 104.667 -13.667 138 -41s50 -62 50 -104s-18.5 -80.833 -55.5 -116.5s-85.833 -53.5 -146.5 -53.5
c-20.667 0 -40.667 2.33301 -60 7l-2 24c43.333 4 76.833 20.5 100.5 49.5zM107 670c0 21.333 7.5 39.333 22.5 54s32.833 22 53.5 22s38.5 -7.33301 53.5 -22s22.5 -32.667 22.5 -54s-7.5 -39.333 -22.5 -54s-32.833 -22 -53.5 -22s-38.5 7.33301 -53.5 22
s-22.5 32.667 -22.5 54zM337 670c0 21.333 7.5 39.333 22.5 54s32.833 22 53.5 22s38.5 -7.33301 53.5 -22s22.5 -32.667 22.5 -54s-7.5 -39.333 -22.5 -54s-32.833 -22 -53.5 -22s-38.5 7.33301 -53.5 22s-22.5 32.667 -22.5 54z" />
    <glyph glyph-name="igrave" unicode="&#xec;" horiz-adv-x="399" 
d="M192 515c62.667 0 93.998 -27.001 93.998 -81.001v-323c0 -18 4.33301 -32.167 13 -42.5s22 -15.5 40 -15.5s38.667 9.66699 62 29l18 -24c-53.333 -48.667 -106.666 -73 -159.999 -73c-82 0 -123 49 -123 147v335c-36.667 -9.33301 -64.667 -25.666 -84 -48.999l-27 31
c19.333 20 43.833 36 73.5 48s60.834 18 93.501 18zM89.498 750.499c11 9.66699 23 14.502 36 14.502s24 -2.33301 33 -7s16.333 -9.83398 22 -15.501s14.167 -14.834 25.5 -27.501l119 -132l-21 -24l-148 73c-31.333 15.333 -53 28.833 -65 40.5s-18 25.167 -18 40.5
s5.5 27.833 16.5 37.5z" />
    <glyph glyph-name="iacute" unicode="&#xed;" horiz-adv-x="399" 
d="M192 515c62.667 0 93.998 -27.001 93.998 -81.001v-323c0 -18 4.33301 -32.167 13 -42.5s22 -15.5 40 -15.5s38.667 9.66699 62 29l18 -24c-53.333 -48.667 -106.666 -73 -159.999 -73c-82 0 -123 49 -123 147v335c-36.667 -9.33301 -64.667 -25.666 -84 -48.999l-27 31
c19.333 20 43.833 36 73.5 48s60.834 18 93.501 18zM240.498 757.999c9 4.66699 20 6.99805 33 6.99805s25 -4.83301 36 -14.5s16.5 -22.167 16.5 -37.5s-6 -28.833 -18 -40.5s-33.667 -25.167 -65 -40.5l-148 -73l-21 24l119 132c11.333 12.667 19.833 21.834 25.5 27.501
s13 10.834 22 15.501z" />
    <glyph glyph-name="icircumflex" unicode="&#xee;" horiz-adv-x="399" 
d="M192 515c62.667 0 93.998 -27.001 93.998 -81.001v-323c0 -18 4.33301 -32.167 13 -42.5s22 -15.5 40 -15.5s38.667 9.66699 62 29l18 -24c-53.333 -48.667 -106.666 -73 -159.999 -73c-82 0 -123 49 -123 147v335c-36.667 -9.33301 -64.667 -25.666 -84 -48.999l-27 31
c19.333 20 43.833 36 73.5 48s60.834 18 93.501 18zM198.998 764.999c20 0 39.333 -12.667 58 -38l108 -144l-21 -24l-141 95h-8l-141 -95l-21 24l108 144c18.667 25.333 38 38 58 38z" />
    <glyph glyph-name="idieresis" unicode="&#xef;" horiz-adv-x="399" 
d="M192 515c62.667 0 93.998 -27.001 93.998 -81.001v-323c0 -18 4.33301 -32.167 13 -42.5s22 -15.5 40 -15.5s38.667 9.66699 62 29l18 -24c-53.333 -48.667 -106.666 -73 -159.999 -73c-82 0 -123 49 -123 147v335c-36.667 -9.33301 -64.667 -25.666 -84 -48.999l-27 31
c19.333 20 43.833 36 73.5 48s60.834 18 93.501 18zM8.99805 669.999c0 21.333 7.5 39.333 22.5 54s32.833 22 53.5 22s38.5 -7.33301 53.5 -22s22.5 -32.667 22.5 -54s-7.5 -39.333 -22.5 -54s-32.833 -22 -53.5 -22s-38.5 7.33301 -53.5 22s-22.5 32.667 -22.5 54z
M238.998 669.999c0 21.333 7.5 39.333 22.5 54s32.833 22 53.5 22s38.5 -7.33301 53.5 -22s22.5 -32.667 22.5 -54s-7.5 -39.333 -22.5 -54s-32.833 -22 -53.5 -22s-38.5 7.33301 -53.5 22s-22.5 32.667 -22.5 54z" />
    <glyph glyph-name="eth" unicode="&#xf0;" horiz-adv-x="673" 
d="M270 705c-50.667 0 -96.332 -19.334 -136.999 -58.001l-25 74c52 29.333 106.333 44 163 44c72.667 0 135.334 -25.333 188.001 -76l120 61l19 -38l-110 -56c68 -88 102 -209 102 -363c0 -98 -23.333 -173.833 -70 -227.5s-109.834 -80.5 -189.501 -80.5s-143 24 -190 72
s-70.5 109 -70.5 183s22.5 133.333 67.5 178s102.5 67 172.5 67c57.333 0 100 -19.333 128 -58l10 4c-10.667 74.667 -27.334 134.334 -50.001 179.001l-124 -63l-19 38l120 61c-29.333 39.333 -64.333 59 -105 59zM243.002 380.999c-18.667 -38 -28 -87.167 -28 -147.5
s9.33301 -109.833 28 -148.5s47.167 -58 85.5 -58s67.666 19.333 87.999 58s30.5 88.167 30.5 148.5s-10.167 109.5 -30.5 147.5s-49.666 57 -87.999 57s-66.833 -19 -85.5 -57z" />
    <glyph glyph-name="ntilde" unicode="&#xf1;" 
d="M124 500c54.667 0 103.998 -16.668 147.998 -50.001c25.333 24 51.333 40.833 78 50.5s60.834 14.5 102.501 14.5s75.667 -13.167 102 -39.5s39.5 -62.166 39.5 -107.499v-257c0 -18 4.33301 -32.167 13 -42.5s22 -15.5 40 -15.5s38.667 9.66699 62 29l18 -24
c-53.333 -48.667 -106.666 -73 -159.999 -73c-82 0 -123 49 -123 147v257c0 20.667 -6.33301 36.667 -19 48s-30.167 17 -52.5 17s-44.333 -9 -66 -27s-32.5 -41.333 -32.5 -70v-357h-150v460c-30 0 -56.667 -5 -80 -15l-14 37c28.667 12 60 18 94 18zM465.998 608.999v15
c0 26 -9.33301 39 -28 39c-8 0 -15.667 -2.33301 -23 -7l-85 -48c-21.333 -12.667 -41.333 -19 -60 -19s-35.5 8.66699 -50.5 26s-22.5 37.5 -22.5 60.5s2.66699 45.167 8 66.5h36v-15c0 -26 9.33301 -39 28 -39c8 0 15.667 2.33301 23 7l85 48
c21.333 12.667 41.333 19 60 19s35.5 -8.66699 50.5 -26s22.5 -37.5 22.5 -60.5s-2.66699 -45.167 -8 -66.5h-36z" />
    <glyph glyph-name="ograve" unicode="&#xf2;" horiz-adv-x="660" 
d="M65 250c0 74.667 24.5 137.5 73.5 188.5s112.833 76.5 191.5 76.5s142.5 -25.5 191.5 -76.5s73.5 -113.833 73.5 -188.5s-24.5 -137.5 -73.5 -188.5s-112.833 -76.5 -191.5 -76.5s-142.5 25.5 -191.5 76.5s-73.5 113.833 -73.5 188.5zM220 250
c0 -65.333 9.33301 -118.833 28 -160.5s46.334 -62.5 83.001 -62.5s64.334 20.833 83.001 62.5s28 95.167 28 160.5s-9.33301 118.833 -28 160.5s-46.334 62.5 -83.001 62.5s-64.334 -20.833 -83.001 -62.5s-28 -95.167 -28 -160.5zM220.5 750.5
c11 9.66699 23 14.502 36 14.502s24 -2.33301 33 -7s16.333 -9.83398 22 -15.501s14.167 -14.834 25.5 -27.501l119 -132l-21 -24l-148 73c-31.333 15.333 -53 28.833 -65 40.5s-18 25.167 -18 40.5s5.5 27.833 16.5 37.5z" />
    <glyph glyph-name="oacute" unicode="&#xf3;" horiz-adv-x="660" 
d="M65 250c0 74.667 24.5 137.5 73.5 188.5s112.833 76.5 191.5 76.5s142.5 -25.5 191.5 -76.5s73.5 -113.833 73.5 -188.5s-24.5 -137.5 -73.5 -188.5s-112.833 -76.5 -191.5 -76.5s-142.5 25.5 -191.5 76.5s-73.5 113.833 -73.5 188.5zM220 250
c0 -65.333 9.33301 -118.833 28 -160.5s46.334 -62.5 83.001 -62.5s64.334 20.833 83.001 62.5s28 95.167 28 160.5s-9.33301 118.833 -28 160.5s-46.334 62.5 -83.001 62.5s-64.334 -20.833 -83.001 -62.5s-28 -95.167 -28 -160.5zM408.5 758
c9 4.66699 20 6.99805 33 6.99805s25 -4.83301 36 -14.5s16.5 -22.167 16.5 -37.5s-6 -28.833 -18 -40.5s-33.667 -25.167 -65 -40.5l-148 -73l-21 24l119 132c11.333 12.667 19.833 21.834 25.5 27.501s13 10.834 22 15.501z" />
    <glyph glyph-name="ocircumflex" unicode="&#xf4;" horiz-adv-x="660" 
d="M65 250c0 74.667 24.5 137.5 73.5 188.5s112.833 76.5 191.5 76.5s142.5 -25.5 191.5 -76.5s73.5 -113.833 73.5 -188.5s-24.5 -137.5 -73.5 -188.5s-112.833 -76.5 -191.5 -76.5s-142.5 25.5 -191.5 76.5s-73.5 113.833 -73.5 188.5zM220 250
c0 -65.333 9.33301 -118.833 28 -160.5s46.334 -62.5 83.001 -62.5s64.334 20.833 83.001 62.5s28 95.167 28 160.5s-9.33301 118.833 -28 160.5s-46.334 62.5 -83.001 62.5s-64.334 -20.833 -83.001 -62.5s-28 -95.167 -28 -160.5zM330 765c20 0 39.333 -12.667 58 -38
l108 -144l-21 -24l-141 95h-8l-141 -95l-21 24l108 144c18.667 25.333 38 38 58 38z" />
    <glyph glyph-name="otilde" unicode="&#xf5;" horiz-adv-x="660" 
d="M65 250c0 74.667 24.5 137.5 73.5 188.5s112.833 76.5 191.5 76.5s142.5 -25.5 191.5 -76.5s73.5 -113.833 73.5 -188.5s-24.5 -137.5 -73.5 -188.5s-112.833 -76.5 -191.5 -76.5s-142.5 25.5 -191.5 76.5s-73.5 113.833 -73.5 188.5zM220 250
c0 -65.333 9.33301 -118.833 28 -160.5s46.334 -62.5 83.001 -62.5s64.334 20.833 83.001 62.5s28 95.167 28 160.5s-9.33301 118.833 -28 160.5s-46.334 62.5 -83.001 62.5s-64.334 -20.833 -83.001 -62.5s-28 -95.167 -28 -160.5zM442 609v15c0 26 -9.33301 39 -28 39
c-8 0 -15.667 -2.33301 -23 -7l-85 -48c-21.333 -12.667 -41.333 -19 -60 -19s-35.5 8.66699 -50.5 26s-22.5 37.5 -22.5 60.5s2.66699 45.167 8 66.5h36v-15c0 -26 9.33301 -39 28 -39c8 0 15.667 2.33301 23 7l85 48c21.333 12.667 41.333 19 60 19
s35.5 -8.66699 50.5 -26s22.5 -37.5 22.5 -60.5s-2.66699 -45.167 -8 -66.5h-36z" />
    <glyph glyph-name="odieresis" unicode="&#xf6;" horiz-adv-x="660" 
d="M65 250c0 74.667 24.5 137.5 73.5 188.5s112.833 76.5 191.5 76.5s142.5 -25.5 191.5 -76.5s73.5 -113.833 73.5 -188.5s-24.5 -137.5 -73.5 -188.5s-112.833 -76.5 -191.5 -76.5s-142.5 25.5 -191.5 76.5s-73.5 113.833 -73.5 188.5zM220 250
c0 -65.333 9.33301 -118.833 28 -160.5s46.334 -62.5 83.001 -62.5s64.334 20.833 83.001 62.5s28 95.167 28 160.5s-9.33301 118.833 -28 160.5s-46.334 62.5 -83.001 62.5s-64.334 -20.833 -83.001 -62.5s-28 -95.167 -28 -160.5zM139 670c0 21.333 7.5 39.333 22.5 54
s32.833 22 53.5 22s38.5 -7.33301 53.5 -22s22.5 -32.667 22.5 -54s-7.5 -39.333 -22.5 -54s-32.833 -22 -53.5 -22s-38.5 7.33301 -53.5 22s-22.5 32.667 -22.5 54zM369 670c0 21.333 7.5 39.333 22.5 54s32.833 22 53.5 22s38.5 -7.33301 53.5 -22s22.5 -32.667 22.5 -54
s-7.5 -39.333 -22.5 -54s-32.833 -22 -53.5 -22s-38.5 7.33301 -53.5 22s-22.5 32.667 -22.5 54z" />
    <glyph glyph-name="divide" unicode="&#xf7;" horiz-adv-x="560" 
d="M90 320v60h380v-60h-380zM218 522c0 17.333 6 31.833 18 43.5s26.667 17.5 44 17.5s31.833 -5.83301 43.5 -17.5s17.5 -26.167 17.5 -43.5s-5.83301 -32 -17.5 -44s-26.167 -18 -43.5 -18s-32 6 -44 18s-18 26.667 -18 44zM218 179c0 17.333 6 31.833 18 43.5
s26.667 17.5 44 17.5s31.833 -6 43.5 -18s17.5 -26.5 17.5 -43.5s-5.83301 -31.5 -17.5 -43.5s-26.167 -18 -43.5 -18s-32 6 -44 18s-18 26.667 -18 44z" />
    <glyph glyph-name="oslash" unicode="&#xf8;" horiz-adv-x="660" 
d="M595 250c0 -74.667 -24.5 -137.499 -73.5 -188.499s-112.833 -76.5 -191.5 -76.5c-10.667 0 -26 1.33301 -46 4l-46 -170h-49l48 181c-53.333 17.333 -95.333 48.666 -126 93.999s-46 97.333 -46 156c0 74.667 24.5 137.5 73.5 188.5s112.833 76.5 191.5 76.5
c10.667 0 26 -1.33301 46 -4l45 167h50l-49 -178c53.333 -18 95.5 -49.667 126.5 -95s46.5 -97 46.5 -155zM414 89.501c18.667 41.667 27.999 99 27.999 172s-13 129.167 -39 168.5l-107 -395c12 -5.33301 23.667 -8 35 -8c36.667 0 64.334 20.833 83.001 62.5z
M247.999 410.501c-18.667 -41.667 -27.999 -98.832 -27.999 -171.499s12.333 -128.334 37 -167.001l106 394c-11.333 4.66699 -22 7 -32 7c-36.667 0 -64.334 -20.833 -83.001 -62.5z" />
    <glyph glyph-name="ugrave" unicode="&#xf9;" 
d="M274 454l-0.00195312 -343c0 -20.667 6.33301 -36.667 19 -48s30.334 -17 53.001 -17s44.667 9.33301 66 28s32 43 32 73v353h150v-389c0 -18 4.33301 -32.167 13 -42.5s22 -15.5 40 -15.5s38.667 9.66699 62 29l18 -24c-53.333 -48.667 -107.666 -73 -162.999 -73
s-92 24.667 -110 74c-26 -27.333 -52.833 -46.5 -80.5 -57.5s-63 -16.5 -106 -16.5s-77.667 13.167 -104 39.5s-39.5 62.166 -39.5 107.499v335c-36.667 -9.33301 -64.667 -25.666 -84 -48.999l-27 31c19.333 20 43.833 36 73.5 48s59 18 88 18s52.833 -5.83301 71.5 -17.5
s28 -26.167 28 -43.5zM223.498 750.5c11 9.66699 23 14.502 36 14.502s24 -2.33301 33 -7s16.333 -9.83398 22 -15.501s14.167 -14.834 25.5 -27.501l119 -132l-21 -24l-148 73c-31.333 15.333 -53 28.833 -65 40.5s-18 25.167 -18 40.5s5.5 27.833 16.5 37.5z" />
    <glyph glyph-name="uacute" unicode="&#xfa;" 
d="M274 454l-0.00195312 -343c0 -20.667 6.33301 -36.667 19 -48s30.334 -17 53.001 -17s44.667 9.33301 66 28s32 43 32 73v353h150v-389c0 -18 4.33301 -32.167 13 -42.5s22 -15.5 40 -15.5s38.667 9.66699 62 29l18 -24c-53.333 -48.667 -107.666 -73 -162.999 -73
s-92 24.667 -110 74c-26 -27.333 -52.833 -46.5 -80.5 -57.5s-63 -16.5 -106 -16.5s-77.667 13.167 -104 39.5s-39.5 62.166 -39.5 107.499v335c-36.667 -9.33301 -64.667 -25.666 -84 -48.999l-27 31c19.333 20 43.833 36 73.5 48s59 18 88 18s52.833 -5.83301 71.5 -17.5
s28 -26.167 28 -43.5zM431.498 758c9 4.66699 20 6.99805 33 6.99805s25 -4.83301 36 -14.5s16.5 -22.167 16.5 -37.5s-6 -28.833 -18 -40.5s-33.667 -25.167 -65 -40.5l-148 -73l-21 24l119 132c11.333 12.667 19.833 21.834 25.5 27.501s13 10.834 22 15.501z" />
    <glyph glyph-name="ucircumflex" unicode="&#xfb;" 
d="M274 454l-0.00195312 -343c0 -20.667 6.33301 -36.667 19 -48s30.334 -17 53.001 -17s44.667 9.33301 66 28s32 43 32 73v353h150v-389c0 -18 4.33301 -32.167 13 -42.5s22 -15.5 40 -15.5s38.667 9.66699 62 29l18 -24c-53.333 -48.667 -107.666 -73 -162.999 -73
s-92 24.667 -110 74c-26 -27.333 -52.833 -46.5 -80.5 -57.5s-63 -16.5 -106 -16.5s-77.667 13.167 -104 39.5s-39.5 62.166 -39.5 107.499v335c-36.667 -9.33301 -64.667 -25.666 -84 -48.999l-27 31c19.333 20 43.833 36 73.5 48s59 18 88 18s52.833 -5.83301 71.5 -17.5
s28 -26.167 28 -43.5zM352.998 765c20 0 39.333 -12.667 58 -38l108 -144l-21 -24l-141 95h-8l-141 -95l-21 24l108 144c18.667 25.333 38 38 58 38z" />
    <glyph glyph-name="udieresis" unicode="&#xfc;" 
d="M274 454l-0.00195312 -343c0 -20.667 6.33301 -36.667 19 -48s30.334 -17 53.001 -17s44.667 9.33301 66 28s32 43 32 73v353h150v-389c0 -18 4.33301 -32.167 13 -42.5s22 -15.5 40 -15.5s38.667 9.66699 62 29l18 -24c-53.333 -48.667 -107.666 -73 -162.999 -73
s-92 24.667 -110 74c-26 -27.333 -52.833 -46.5 -80.5 -57.5s-63 -16.5 -106 -16.5s-77.667 13.167 -104 39.5s-39.5 62.166 -39.5 107.499v335c-36.667 -9.33301 -64.667 -25.666 -84 -48.999l-27 31c19.333 20 43.833 36 73.5 48s59 18 88 18s52.833 -5.83301 71.5 -17.5
s28 -26.167 28 -43.5zM161.998 670c0 21.333 7.33301 39.333 22 54s32.667 22 54 22s39.333 -7.33301 54 -22s22 -32.667 22 -54s-7.33301 -39.333 -22 -54s-32.667 -22 -54 -22s-39.333 7.33301 -54 22s-22 32.667 -22 54zM391.998 670c0 21.333 7.33301 39.333 22 54
s32.667 22 54 22s39.333 -7.33301 54 -22s22 -32.667 22 -54s-7.33301 -39.333 -22 -54s-32.667 -22 -54 -22s-39.333 7.33301 -54 22s-22 32.667 -22 54z" />
    <glyph glyph-name="yacute" unicode="&#xfd;" horiz-adv-x="627" 
d="M86.5 497c29.667 12 59.001 17.999 88.001 17.999s52.833 -5.83301 71.5 -17.5s28 -26.167 28 -43.5v-303c0 -21.333 6.66699 -37.5 20 -48.5s30 -16.5 50 -16.5c42.667 0 79.167 18.333 109.5 55s45.5 83.667 45.5 141c0 32 -6.33301 65.667 -19 101
c-12 -8 -27.333 -12 -46 -12s-35.5 7.5 -50.5 22.5s-22.5 33.167 -22.5 54.5s7.5 39.5 22.5 54.5s33.833 22.5 56.5 22.5s42.167 -8.5 58.5 -25.5s28.166 -39.5 35.499 -67.5c12 -48.667 18 -102.5 18 -161.5s-6.83301 -118.167 -20.5 -177.5s-31.667 -110.333 -54 -153
s-47.5 -79.667 -75.5 -111c-57.333 -62.667 -115.666 -94 -174.999 -94c-16 0 -29.167 3.5 -39.5 10.5s-22.166 19.833 -35.499 38.5l-52 72l26 27c32 -5.33301 60 -8 84 -8c74.667 0 135.667 23.667 183 71s84.666 124.333 111.999 231
c-41.333 -114.667 -117.333 -172 -228 -172c-42.667 0 -78.834 14.5 -108.501 43.5s-44.5 70.167 -44.5 123.5v295c-36.667 -9.33301 -64.667 -25.666 -84 -48.999l-27 31c19.333 20 43.833 36 73.5 48zM372.501 757.999c9 4.66699 20 6.99805 33 6.99805
s25 -4.83301 36 -14.5s16.5 -22.167 16.5 -37.5s-6 -28.833 -18 -40.5s-33.667 -25.167 -65 -40.5l-148 -73l-21 24l119 132c11.333 12.667 19.833 21.834 25.5 27.501s13 10.834 22 15.501z" />
    <glyph glyph-name="thorn" unicode="&#xfe;" horiz-adv-x="709" 
d="M409 515c76.667 0 135 -24.833 175 -74.5s60 -113 60 -190s-21.5 -140.5 -64.5 -190.5s-103.167 -75 -180.5 -75c-57.333 0 -103 25.667 -137 77v-312h-151v968c-37.333 -10 -65.333 -26.667 -84 -50l-27 31c19.333 20 43.833 36 73.5 48s59 18 88 18
s52.833 -5.83301 71.5 -17.5s28 -26.167 28 -43.5l1 -268c35.333 52.667 84.333 79 147 79zM489 250c0 64 -9.33301 114.667 -28 152s-47.167 56 -85.5 56s-67.666 -18.833 -87.999 -56.5s-30.5 -88.167 -30.5 -151.5s10.167 -113.833 30.5 -151.5
s49.666 -56.5 87.999 -56.5s66.833 18.667 85.5 56s28 88 28 152z" />
    <glyph glyph-name="ydieresis" unicode="&#xff;" horiz-adv-x="627" 
d="M86.5 497c29.667 12 59.001 17.999 88.001 17.999s52.833 -5.83301 71.5 -17.5s28 -26.167 28 -43.5v-303c0 -21.333 6.66699 -37.5 20 -48.5s30 -16.5 50 -16.5c42.667 0 79.167 18.333 109.5 55s45.5 83.667 45.5 141c0 32 -6.33301 65.667 -19 101
c-12 -8 -27.333 -12 -46 -12s-35.5 7.5 -50.5 22.5s-22.5 33.167 -22.5 54.5s7.5 39.5 22.5 54.5s33.833 22.5 56.5 22.5s42.167 -8.5 58.5 -25.5s28.166 -39.5 35.499 -67.5c12 -48.667 18 -102.5 18 -161.5s-6.83301 -118.167 -20.5 -177.5s-31.667 -110.333 -54 -153
s-47.5 -79.667 -75.5 -111c-57.333 -62.667 -115.666 -94 -174.999 -94c-16 0 -29.167 3.5 -39.5 10.5s-22.166 19.833 -35.499 38.5l-52 72l26 27c32 -5.33301 60 -8 84 -8c74.667 0 135.667 23.667 183 71s84.666 124.333 111.999 231
c-41.333 -114.667 -117.333 -172 -228 -172c-42.667 0 -78.834 14.5 -108.501 43.5s-44.5 70.167 -44.5 123.5v295c-36.667 -9.33301 -64.667 -25.666 -84 -48.999l-27 31c19.333 20 43.833 36 73.5 48zM121.001 669.999c0 21.333 7.5 39.333 22.5 54s32.833 22 53.5 22
s38.5 -7.33301 53.5 -22s22.5 -32.667 22.5 -54s-7.5 -39.333 -22.5 -54s-32.833 -22 -53.5 -22s-38.5 7.33301 -53.5 22s-22.5 32.667 -22.5 54zM351.001 669.999c0 21.333 7.5 39.333 22.5 54s32.833 22 53.5 22s38.5 -7.33301 53.5 -22s22.5 -32.667 22.5 -54
s-7.5 -39.333 -22.5 -54s-32.833 -22 -53.5 -22s-38.5 7.33301 -53.5 22s-22.5 32.667 -22.5 54z" />
    <glyph glyph-name="Amacron" unicode="&#x100;" horiz-adv-x="656" 
d="M169 660v40h238l199 -660h50v-40h-258v40h58l-37 123h-272l-36 -123h58v-40h-169v40h50l187 620h-68zM282 617l-121 -409h244zM181 900h294v-88h-294v88z" />
    <glyph glyph-name="amacron" unicode="&#x101;" horiz-adv-x="710" 
d="M597 500l-0.000976562 -389c0 -18 4.33301 -32.167 13 -42.5s22 -15.5 40 -15.5s38.667 9.66699 62 29l18 -24c-53.333 -48.667 -106.666 -73 -159.999 -73c-63.333 0 -102.333 29.667 -117 89c-34.667 -59.333 -85.667 -89 -153 -89c-76.667 0 -135 24.833 -175 74.5
s-60 113 -60 190s21.5 140.5 64.5 190.5s103.167 75 180.5 75c59.333 0 105 -23.667 137 -71v56h150zM219.999 250c0 -64 9.33301 -114.667 28 -152s47.167 -56 85.5 -56s67.666 18.833 87.999 56.5s30.5 88.167 30.5 151.5s-10.167 113.833 -30.5 151.5
s-49.666 56.5 -87.999 56.5s-66.833 -18.667 -85.5 -56s-28 -88 -28 -152zM207.999 700h294v-88h-294v88z" />
    <glyph glyph-name="Abreve" unicode="&#x102;" horiz-adv-x="656" 
d="M169 660v40h238l199 -660h50v-40h-258v40h58l-37 123h-272l-36 -123h58v-40h-169v40h50l187 620h-68zM282 617l-121 -409h244zM288 878c12.667 -5.33301 26.832 -8.00098 42.499 -8.00098s32.334 6 50.001 18s30.5 22.833 38.5 32.5s18 22.834 30 39.501l45 -29
c-33.333 -60.667 -62.333 -102.834 -87 -126.501s-51 -35.5 -79 -35.5s-54.333 11.833 -79 35.5s-53.667 65.834 -87 126.501l44 29c32.667 -44.667 60 -72 82 -82z" />
    <glyph glyph-name="abreve" unicode="&#x103;" horiz-adv-x="710" 
d="M597 500l-0.000976562 -389c0 -18 4.33301 -32.167 13 -42.5s22 -15.5 40 -15.5s38.667 9.66699 62 29l18 -24c-53.333 -48.667 -106.666 -73 -159.999 -73c-63.333 0 -102.333 29.667 -117 89c-34.667 -59.333 -85.667 -89 -153 -89c-76.667 0 -135 24.833 -175 74.5
s-60 113 -60 190s21.5 140.5 64.5 190.5s103.167 75 180.5 75c59.333 0 105 -23.667 137 -71v56h150zM219.999 250c0 -64 9.33301 -114.667 28 -152s47.167 -56 85.5 -56s67.666 18.833 87.999 56.5s30.5 88.167 30.5 151.5s-10.167 113.833 -30.5 151.5
s-49.666 56.5 -87.999 56.5s-66.833 -18.667 -85.5 -56s-28 -88 -28 -152zM314.999 678c12.667 -5.33301 26.832 -8.00098 42.499 -8.00098s32.334 6 50.001 18s30.5 22.833 38.5 32.5s18 22.834 30 39.501l45 -29c-33.333 -60.667 -62.333 -102.834 -87 -126.501
s-51 -35.5 -79 -35.5s-54.333 11.833 -79 35.5s-53.667 65.834 -87 126.501l44 29c32.667 -44.667 60 -72 82 -82z" />
    <glyph glyph-name="Aogonek" unicode="&#x104;" horiz-adv-x="656" 
d="M398 0v39.998h58l-37 123h-272l-36 -123h58v-40h-169v40h50l187 620h-68v40h238l199 -660h50v-40h-48l-8 -8c-25.333 -25.333 -42 -46.166 -50 -62.499s-12 -33.666 -12 -51.999s5.5 -32.333 16.5 -42s26.833 -14.5 47.5 -14.5s41 9.33301 61 28l17 -29
c-32 -38.667 -73.333 -58 -124 -58c-31.333 0 -57.333 7.83301 -78 23.5s-31 39.5 -31 71.5c0 16 5 32.167 15 48.5s20 29 30 38s24 20.833 42 35.5l26 21h-162zM282 616.998l-121 -409h244z" />
    <glyph glyph-name="aogonek" unicode="&#x105;" horiz-adv-x="710" 
d="M597 500v-389.003c0 -18 4.33301 -32.167 13 -42.5s22 -15.5 40 -15.5s38.667 9.66699 62 29l18 -24l-66 -66c-25.333 -25.333 -42 -46.166 -50 -62.499s-12 -33.666 -12 -51.999s5.5 -32.333 16.5 -42s26.833 -14.5 47.5 -14.5s41 9.33301 61 28l17 -29
c-32 -38.667 -73.333 -58 -124 -58c-31.333 0 -57.333 7.83301 -78 23.5s-31 37.334 -31 65.001s6.83301 51 20.5 70s32.5 38.5 56.5 58.5l9 8c-12 -1.33301 -21 -2 -27 -2c-63.333 0 -102.333 29.667 -117 89c-34.667 -59.333 -85.667 -89 -153 -89
c-76.667 0 -135 24.833 -175 74.5s-60 113 -60 190s21.5 140.5 64.5 190.5s103.167 75 180.5 75c59.333 0 105 -23.667 137 -71v56h150zM220 249.997c0 -64 9.33301 -114.667 28 -152s47.167 -56 85.5 -56s67.666 18.833 87.999 56.5s30.5 88.167 30.5 151.5
s-10.167 113.833 -30.5 151.5s-49.666 56.5 -87.999 56.5s-66.833 -18.667 -85.5 -56s-28 -88 -28 -152z" />
    <glyph glyph-name="Cacute" unicode="&#x106;" horiz-adv-x="650" 
d="M382 668c-58 0 -101.999 -29.833 -131.999 -89.5s-45 -134.167 -45 -223.5s15.833 -162.333 47.5 -219s77.167 -85 136.5 -85c33.333 0 64 7 92 21s49.167 28.667 63.5 44s29.5 34.666 45.5 57.999l35 -25c-32 -51.333 -67.833 -91.5 -107.5 -120.5
s-90.5 -43.5 -152.5 -43.5c-92.667 0 -168.334 35 -227.001 105s-88 157 -88 261s29.333 190.667 88 260s140 104 244 104c54 0 106 -10.667 156 -32s75 -46.666 75 -75.999c0 -11.333 -3.66699 -24.333 -11 -39l-60 -116l-36 11l9 62c2.66699 16 4 31.333 4 46
c0 26 -12.667 48.667 -38 68s-58.333 29 -99 29zM415.501 958c9 4.66699 20 6.99805 33 6.99805s25 -4.83301 36 -14.5s16.5 -22.167 16.5 -37.5s-6 -28.833 -18 -40.5s-33.667 -25.167 -65 -40.5l-148 -73l-21 24l119 132c11.333 12.667 19.833 21.834 25.5 27.501
s13 10.834 22 15.501z" />
    <glyph glyph-name="cacute" unicode="&#x107;" horiz-adv-x="562" 
d="M331 -15c-79.333 0 -143.5 25.499 -192.5 76.499s-73.5 113.833 -73.5 188.5s24.5 137.5 73.5 188.5s112.833 76.5 191.5 76.5c44 0 87 -12.667 129 -38s63 -59.666 63 -102.999c0 -22 -7.83301 -40.833 -23.5 -56.5s-34.5 -23.5 -56.5 -23.5s-40.833 7.83301 -56.5 23.5
s-23.5 33.5 -23.5 53.5s5.33301 37 16 51s24.667 23.667 42 29c-18.667 8 -40 12 -64 12c-44.667 0 -78.5 -19.833 -101.5 -59.5s-34.5 -90 -34.5 -151s11.5 -110.5 34.5 -148.5s56.833 -57 101.5 -57c60 0 111 25 153 75l28 -18c-22 -36 -50.833 -64.833 -86.5 -86.5
s-75.5 -32.5 -119.5 -32.5zM371.5 757.999c9 4.66699 20 6.99805 33 6.99805s25 -4.83301 36 -14.5s16.5 -22.167 16.5 -37.5s-6 -28.833 -18 -40.5s-33.667 -25.167 -65 -40.5l-148 -73l-21 24l119 132c11.333 12.667 19.833 21.834 25.5 27.501s13 10.834 22 15.501z" />
    <glyph glyph-name="Ccircumflex" unicode="&#x108;" horiz-adv-x="650" 
d="M382 668c-58 0 -101.999 -29.833 -131.999 -89.5s-45 -134.167 -45 -223.5s15.833 -162.333 47.5 -219s77.167 -85 136.5 -85c33.333 0 64 7 92 21s49.167 28.667 63.5 44s29.5 34.666 45.5 57.999l35 -25c-32 -51.333 -67.833 -91.5 -107.5 -120.5
s-90.5 -43.5 -152.5 -43.5c-92.667 0 -168.334 35 -227.001 105s-88 157 -88 261s29.333 190.667 88 260s140 104 244 104c54 0 106 -10.667 156 -32s75 -46.666 75 -75.999c0 -11.333 -3.66699 -24.333 -11 -39l-60 -116l-36 11l9 62c2.66699 16 4 31.333 4 46
c0 26 -12.667 48.667 -38 68s-58.333 29 -99 29zM375.001 965c20 0 39.333 -12.667 58 -38l108 -144l-21 -24l-141 95h-8l-141 -95l-21 24l108 144c18.667 25.333 38 38 58 38z" />
    <glyph glyph-name="ccircumflex" unicode="&#x109;" horiz-adv-x="562" 
d="M331 -15c-79.333 0 -143.5 25.499 -192.5 76.499s-73.5 113.833 -73.5 188.5s24.5 137.5 73.5 188.5s112.833 76.5 191.5 76.5c44 0 87 -12.667 129 -38s63 -59.666 63 -102.999c0 -22 -7.83301 -40.833 -23.5 -56.5s-34.5 -23.5 -56.5 -23.5s-40.833 7.83301 -56.5 23.5
s-23.5 33.5 -23.5 53.5s5.33301 37 16 51s24.667 23.667 42 29c-18.667 8 -40 12 -64 12c-44.667 0 -78.5 -19.833 -101.5 -59.5s-34.5 -90 -34.5 -151s11.5 -110.5 34.5 -148.5s56.833 -57 101.5 -57c60 0 111 25 153 75l28 -18c-22 -36 -50.833 -64.833 -86.5 -86.5
s-75.5 -32.5 -119.5 -32.5zM311 764.999c20 0 39.333 -12.667 58 -38l108 -144l-21 -24l-141 95h-8l-141 -95l-21 24l108 144c18.667 25.333 38 38 58 38z" />
    <glyph glyph-name="Cdotaccent" unicode="&#x10a;" horiz-adv-x="650" 
d="M382 668c-58 0 -101.999 -29.833 -131.999 -89.5s-45 -134.167 -45 -223.5s15.833 -162.333 47.5 -219s77.167 -85 136.5 -85c33.333 0 64 7 92 21s49.167 28.667 63.5 44s29.5 34.666 45.5 57.999l35 -25c-32 -51.333 -67.833 -91.5 -107.5 -120.5
s-90.5 -43.5 -152.5 -43.5c-92.667 0 -168.334 35 -227.001 105s-88 157 -88 261s29.333 190.667 88 260s140 104 244 104c54 0 106 -10.667 156 -32s75 -46.666 75 -75.999c0 -11.333 -3.66699 -24.333 -11 -39l-60 -116l-36 11l9 62c2.66699 16 4 31.333 4 46
c0 26 -12.667 48.667 -38 68s-58.333 29 -99 29zM295.001 870c0 22 7.83301 40.833 23.5 56.5s34.5 23.5 56.5 23.5s40.833 -7.83301 56.5 -23.5s23.5 -34.5 23.5 -56.5s-7.83301 -40.833 -23.5 -56.5s-34.5 -23.5 -56.5 -23.5s-40.833 7.83301 -56.5 23.5
s-23.5 34.5 -23.5 56.5z" />
    <glyph glyph-name="cdotaccent" unicode="&#x10b;" horiz-adv-x="562" 
d="M331 -15c-79.333 0 -143.5 25.499 -192.5 76.499s-73.5 113.833 -73.5 188.5s24.5 137.5 73.5 188.5s112.833 76.5 191.5 76.5c44 0 87 -12.667 129 -38s63 -59.666 63 -102.999c0 -22 -7.83301 -40.833 -23.5 -56.5s-34.5 -23.5 -56.5 -23.5s-40.833 7.83301 -56.5 23.5
s-23.5 33.5 -23.5 53.5s5.33301 37 16 51s24.667 23.667 42 29c-18.667 8 -40 12 -64 12c-44.667 0 -78.5 -19.833 -101.5 -59.5s-34.5 -90 -34.5 -151s11.5 -110.5 34.5 -148.5s56.833 -57 101.5 -57c60 0 111 25 153 75l28 -18c-22 -36 -50.833 -64.833 -86.5 -86.5
s-75.5 -32.5 -119.5 -32.5zM251 669.999c0 22 7.83301 40.833 23.5 56.5s34.5 23.5 56.5 23.5s40.833 -7.83301 56.5 -23.5s23.5 -34.5 23.5 -56.5s-7.83301 -40.833 -23.5 -56.5s-34.5 -23.5 -56.5 -23.5s-40.833 7.83301 -56.5 23.5s-23.5 34.5 -23.5 56.5z" />
    <glyph glyph-name="Ccaron" unicode="&#x10c;" horiz-adv-x="650" 
d="M382 668c-58 0 -101.999 -29.833 -131.999 -89.5s-45 -134.167 -45 -223.5s15.833 -162.333 47.5 -219s77.167 -85 136.5 -85c33.333 0 64 7 92 21s49.167 28.667 63.5 44s29.5 34.666 45.5 57.999l35 -25c-32 -51.333 -67.833 -91.5 -107.5 -120.5
s-90.5 -43.5 -152.5 -43.5c-92.667 0 -168.334 35 -227.001 105s-88 157 -88 261s29.333 190.667 88 260s140 104 244 104c54 0 106 -10.667 156 -32s75 -46.666 75 -75.999c0 -11.333 -3.66699 -24.333 -11 -39l-60 -116l-36 11l9 62c2.66699 16 4 31.333 4 46
c0 26 -12.667 48.667 -38 68s-58.333 29 -99 29zM375.001 759c-20 0 -39.333 12.667 -58 38l-108 144l21 24l141 -95h8l141 95l21 -24l-108 -144c-18.667 -25.333 -38 -38 -58 -38z" />
    <glyph glyph-name="ccaron" unicode="&#x10d;" horiz-adv-x="562" 
d="M331 -15c-79.333 0 -143.5 25.499 -192.5 76.499s-73.5 113.833 -73.5 188.5s24.5 137.5 73.5 188.5s112.833 76.5 191.5 76.5c44 0 87 -12.667 129 -38s63 -59.666 63 -102.999c0 -22 -7.83301 -40.833 -23.5 -56.5s-34.5 -23.5 -56.5 -23.5s-40.833 7.83301 -56.5 23.5
s-23.5 33.5 -23.5 53.5s5.33301 37 16 51s24.667 23.667 42 29c-18.667 8 -40 12 -64 12c-44.667 0 -78.5 -19.833 -101.5 -59.5s-34.5 -90 -34.5 -151s11.5 -110.5 34.5 -148.5s56.833 -57 101.5 -57c60 0 111 25 153 75l28 -18c-22 -36 -50.833 -64.833 -86.5 -86.5
s-75.5 -32.5 -119.5 -32.5zM331 558.999c-20 0 -39.333 12.667 -58 38l-108 144l21 24l141 -95h8l141 95l21 -24l-108 -144c-18.667 -25.333 -38 -38 -58 -38z" />
    <glyph glyph-name="Dcaron" unicode="&#x10e;" horiz-adv-x="782" 
d="M70 700h270c120 0 217 -32.5 291 -97.5s111 -149 111 -252s-37 -187.167 -111 -252.5s-171 -98 -291 -98h-270v40h80v620h-80v40zM340 660h-40v-620h40c77.333 0 137.833 27.833 181.5 83.5s65.5 131.167 65.5 226.5s-21.833 170.833 -65.5 226.5
s-104.167 83.5 -181.5 83.5zM391 759c-20 0 -39.333 12.667 -58 38l-108 144l21 24l141 -95h8l141 95l21 -24l-108 -144c-18.667 -25.333 -38 -38 -58 -38z" />
    <glyph glyph-name="dcaron" unicode="&#x10f;" horiz-adv-x="710" 
d="M597 704v-593.001c0 -18 4.33301 -32.167 13 -42.5s21.167 -15.5 37.5 -15.5s36.166 9.66699 59.499 29l23 -24c-53.333 -48.667 -106.666 -73 -159.999 -73c-63.333 0 -102.333 29.667 -117 89c-34.667 -59.333 -85.667 -89 -153 -89c-76.667 0 -135 24.833 -175 74.5
s-60 113 -60 190s21.5 140.5 64.5 190.5s103.167 75 180.5 75c59.333 0 105 -23.667 137 -71v273c-36.667 -9.33301 -64.667 -25.666 -84 -48.999l-27 31c19.333 20 43.833 36 73.5 48s59 18 88 18s52.833 -5.83301 71.5 -17.5s28 -26.167 28 -43.5zM220 249.999
c0 -64 9.33301 -114.667 28 -152s47.167 -56 85.5 -56s67.666 18.833 87.999 56.5s30.5 88.167 30.5 151.5s-10.167 113.833 -30.5 151.5s-49.666 56.5 -87.999 56.5s-66.833 -18.667 -85.5 -56s-28 -88 -28 -152zM687.5 664.499c-17 19.667 -25.501 39 -25.501 58
s6.5 35 19.5 48s29 19.5 48 19.5s34.833 -7.33301 47.5 -22s19 -37 19 -67s-9.16699 -63.5 -27.5 -100.5s-44.166 -70.5 -77.499 -100.5l-22 22c29.333 34 44 64 44 90c0 15.333 -8.5 32.833 -25.5 52.5z" />
    <glyph glyph-name="Dcroat" unicode="&#x110;" horiz-adv-x="782" 
d="M70 273v45h80v342h-80v40h270c120 0 217 -32.5 291 -97.5s111 -149 111 -252s-37 -187.167 -111 -252.5s-171 -98 -291 -98h-270v40h80v233h-80zM340 660h-40v-342h150v-45h-150v-233h40c77.333 0 137.833 27.833 181.5 83.5s65.5 131.167 65.5 226.5
s-21.833 170.833 -65.5 226.5s-104.167 83.5 -181.5 83.5z" />
    <glyph glyph-name="dcroat" unicode="&#x111;" horiz-adv-x="710" 
d="M330 568v44.999h117v104c-36.667 -9.33301 -64.667 -25.666 -84 -48.999l-27 31c19.333 20 43.833 36 73.5 48s59 18 88 18s52.833 -5.83301 71.5 -17.5s28 -26.167 28 -43.5v-91h113v-45h-113v-457c0 -18 4.33301 -32.167 13 -42.5s21.167 -15.5 37.5 -15.5
s36.166 9.66699 59.499 29l23 -24c-53.333 -48.667 -106.666 -73 -159.999 -73c-63.333 0 -102.333 29.667 -117 89c-34.667 -59.333 -85.667 -89 -153 -89c-76.667 0 -135 24.833 -175 74.5s-60 113 -60 190s21.5 140.5 64.5 190.5s103.167 75 180.5 75
c59.333 0 105 -23.667 137 -71v124h-117zM220 249.999c0 -64 9.33301 -114.667 28 -152s47.167 -56 85.5 -56s67.666 18.833 87.999 56.5s30.5 88.167 30.5 151.5s-10.167 113.833 -30.5 151.5s-49.666 56.5 -87.999 56.5s-66.833 -18.667 -85.5 -56s-28 -88 -28 -152z" />
    <glyph glyph-name="Emacron" unicode="&#x112;" horiz-adv-x="630" 
d="M519 0l-448.999 -0.00195312v40h60v620h-60v40h429c14.667 0 25.5 -0.5 32.5 -1.5s13.5 -4.66699 19.5 -11s9 -16.166 9 -29.499l-27 -168h-39l-20 99c-6 30 -17.167 49.333 -33.5 58s-46.5 13 -90.5 13h-70v-342h230v-45h-230v-233h90
c43.333 0 73.166 4.33301 89.499 13s27.833 28 34.5 58l20 89h39l27 -158c0 -13.333 -3 -23.166 -9 -29.499s-12.5 -10 -19.5 -11s-17.833 -1.5 -32.5 -1.5zM188.001 899.998h294v-88h-294v88z" />
    <glyph glyph-name="emacron" unicode="&#x113;" horiz-adv-x="597" 
d="M374.5 280.5c23.667 29 35.5 58.333 35.5 88s-6.5 52.5 -19.5 68.5s-32.667 24 -59 24s-51.5 -18.667 -75.5 -56s-36 -87.333 -36 -150s11.333 -113 34 -151s55 -57 97 -57c64 0 118.333 25 163 75l28 -18c-22.667 -36 -52.667 -64.833 -90 -86.5
s-79.333 -32.5 -126 -32.5c-79.333 0 -142.666 26.167 -189.999 78.5s-71 115.5 -71 189.5s25.167 136.167 75.5 186.5s120.166 75.5 209.499 75.5c58.667 0 104.667 -13.667 138 -41s50 -62 50 -104s-18.5 -80.833 -55.5 -116.5s-85.833 -53.5 -146.5 -53.5
c-20.667 0 -40.667 2.33301 -60 7l-2 24c43.333 4 76.833 20.5 100.5 49.5zM181 700h294v-88h-294v88z" />
    <glyph glyph-name="Ebreve" unicode="&#x114;" horiz-adv-x="630" 
d="M519 0l-448.999 -0.00195312v40h60v620h-60v40h429c14.667 0 25.5 -0.5 32.5 -1.5s13.5 -4.66699 19.5 -11s9 -16.166 9 -29.499l-27 -168h-39l-20 99c-6 30 -17.167 49.333 -33.5 58s-46.5 13 -90.5 13h-70v-342h230v-45h-230v-233h90
c43.333 0 73.166 4.33301 89.499 13s27.833 28 34.5 58l20 89h39l27 -158c0 -13.333 -3 -23.166 -9 -29.499s-12.5 -10 -19.5 -11s-17.833 -1.5 -32.5 -1.5zM295.001 877.998c12.667 -5.33301 26.832 -8.00098 42.499 -8.00098s32.334 6 50.001 18s30.5 22.833 38.5 32.5
s18 22.834 30 39.501l45 -29c-33.333 -60.667 -62.333 -102.834 -87 -126.501s-51 -35.5 -79 -35.5s-54.333 11.833 -79 35.5s-53.667 65.834 -87 126.501l44 29c32.667 -44.667 60 -72 82 -82z" />
    <glyph glyph-name="ebreve" unicode="&#x115;" horiz-adv-x="597" 
d="M374.5 280.5c23.667 29 35.5 58.333 35.5 88s-6.5 52.5 -19.5 68.5s-32.667 24 -59 24s-51.5 -18.667 -75.5 -56s-36 -87.333 -36 -150s11.333 -113 34 -151s55 -57 97 -57c64 0 118.333 25 163 75l28 -18c-22.667 -36 -52.667 -64.833 -90 -86.5
s-79.333 -32.5 -126 -32.5c-79.333 0 -142.666 26.167 -189.999 78.5s-71 115.5 -71 189.5s25.167 136.167 75.5 186.5s120.166 75.5 209.499 75.5c58.667 0 104.667 -13.667 138 -41s50 -62 50 -104s-18.5 -80.833 -55.5 -116.5s-85.833 -53.5 -146.5 -53.5
c-20.667 0 -40.667 2.33301 -60 7l-2 24c43.333 4 76.833 20.5 100.5 49.5zM288 678c12.667 -5.33301 26.832 -8.00098 42.499 -8.00098s32.334 6 50.001 18s30.5 22.833 38.5 32.5s18 22.834 30 39.501l45 -29c-33.333 -60.667 -62.333 -102.834 -87 -126.501
s-51 -35.5 -79 -35.5s-54.333 11.833 -79 35.5s-53.667 65.834 -87 126.501l44 29c32.667 -44.667 60 -72 82 -82z" />
    <glyph glyph-name="Edotaccent" unicode="&#x116;" horiz-adv-x="630" 
d="M519 0l-448.999 -0.00195312v40h60v620h-60v40h429c14.667 0 25.5 -0.5 32.5 -1.5s13.5 -4.66699 19.5 -11s9 -16.166 9 -29.499l-27 -168h-39l-20 99c-6 30 -17.167 49.333 -33.5 58s-46.5 13 -90.5 13h-70v-342h230v-45h-230v-233h90
c43.333 0 73.166 4.33301 89.499 13s27.833 28 34.5 58l20 89h39l27 -158c0 -13.333 -3 -23.166 -9 -29.499s-12.5 -10 -19.5 -11s-17.833 -1.5 -32.5 -1.5zM255.001 869.998c0 22 7.83301 40.833 23.5 56.5s34.5 23.5 56.5 23.5s40.833 -7.83301 56.5 -23.5
s23.5 -34.5 23.5 -56.5s-7.83301 -40.833 -23.5 -56.5s-34.5 -23.5 -56.5 -23.5s-40.833 7.83301 -56.5 23.5s-23.5 34.5 -23.5 56.5z" />
    <glyph glyph-name="edotaccent" unicode="&#x117;" horiz-adv-x="597" 
d="M374.5 280.5c23.667 29 35.5 58.333 35.5 88s-6.5 52.5 -19.5 68.5s-32.667 24 -59 24s-51.5 -18.667 -75.5 -56s-36 -87.333 -36 -150s11.333 -113 34 -151s55 -57 97 -57c64 0 118.333 25 163 75l28 -18c-22.667 -36 -52.667 -64.833 -90 -86.5
s-79.333 -32.5 -126 -32.5c-79.333 0 -142.666 26.167 -189.999 78.5s-71 115.5 -71 189.5s25.167 136.167 75.5 186.5s120.166 75.5 209.499 75.5c58.667 0 104.667 -13.667 138 -41s50 -62 50 -104s-18.5 -80.833 -55.5 -116.5s-85.833 -53.5 -146.5 -53.5
c-20.667 0 -40.667 2.33301 -60 7l-2 24c43.333 4 76.833 20.5 100.5 49.5zM248 670c0 22 7.83301 40.833 23.5 56.5s34.5 23.5 56.5 23.5s40.833 -7.83301 56.5 -23.5s23.5 -34.5 23.5 -56.5s-7.83301 -40.833 -23.5 -56.5s-34.5 -23.5 -56.5 -23.5
s-40.833 7.83301 -56.5 23.5s-23.5 34.5 -23.5 56.5z" />
    <glyph glyph-name="Eogonek" unicode="&#x118;" horiz-adv-x="630" 
d="M519 0l-10.999 -0.00488281l-8 -8c-25.333 -25.333 -42 -46.166 -50 -62.499s-12 -33.666 -12 -51.999s5.5 -32.333 16.5 -42s26.833 -14.5 47.5 -14.5s41 9.33301 61 28l17 -29c-32 -38.667 -73.333 -58 -124 -58c-31.333 0 -57.333 7.83301 -78 23.5
s-31 37.334 -31 65.001s6.83301 51 20.5 70s32.5 38.5 56.5 58.5l25 21h-379v40h60v620h-60v40h429c14.667 0 25.5 -0.5 32.5 -1.5s13.5 -4.66699 19.5 -11s9 -16.166 9 -29.499l-27 -168h-39l-20 99c-6 30 -17.167 49.333 -33.5 58s-46.5 13 -90.5 13h-70v-342h230v-45
h-230v-233h90c43.333 0 73.166 4.33301 89.499 13s27.833 28 34.5 58l20 89h39l27 -158c0 -13.333 -3 -23.166 -9 -29.499s-12.5 -10 -19.5 -11s-17.833 -1.5 -32.5 -1.5z" />
    <glyph glyph-name="eogonek" unicode="&#x119;" horiz-adv-x="597" 
d="M374.5 280.5c23.667 29 35.5 58.3301 35.5 87.9971s-6.5 52.5 -19.5 68.5s-32.667 24 -59 24s-51.5 -18.667 -75.5 -56s-36 -87.333 -36 -150s11.333 -113 34 -151s55 -57 97 -57c64 0 118.333 25 163 75l28 -18c-12 -18.667 -26.333 -36 -43 -52l-60 -60
c-25.333 -25.333 -42 -46.166 -50 -62.499s-12 -33.666 -12 -51.999s5.5 -32.333 16.5 -42s26.833 -14.5 47.5 -14.5s41 9.33301 61 28l17 -29c-32 -38.667 -73.333 -58 -124 -58c-31.333 0 -57.333 7.83301 -78 23.5s-31 37.334 -31 65.001s6.83301 51 20.5 70
s32.5 38.5 56.5 58.5l13 11c-18 -3.33301 -34.667 -5 -50 -5c-79.333 0 -142.666 26.167 -189.999 78.5s-71 115.5 -71 189.5s25.167 136.167 75.5 186.5s120.166 75.5 209.499 75.5c58.667 0 104.667 -13.667 138 -41s50 -62 50 -104s-18.5 -80.833 -55.5 -116.5
s-85.833 -53.5 -146.5 -53.5c-20.667 0 -40.667 2.33301 -60 7l-2 24c43.333 4 76.833 20.5 100.5 49.5z" />
    <glyph glyph-name="Ecaron" unicode="&#x11a;" horiz-adv-x="630" 
d="M519 0l-448.999 -0.00195312v40h60v620h-60v40h429c14.667 0 25.5 -0.5 32.5 -1.5s13.5 -4.66699 19.5 -11s9 -16.166 9 -29.499l-27 -168h-39l-20 99c-6 30 -17.167 49.333 -33.5 58s-46.5 13 -90.5 13h-70v-342h230v-45h-230v-233h90
c43.333 0 73.166 4.33301 89.499 13s27.833 28 34.5 58l20 89h39l27 -158c0 -13.333 -3 -23.166 -9 -29.499s-12.5 -10 -19.5 -11s-17.833 -1.5 -32.5 -1.5zM335.001 758.998c-20 0 -39.333 12.667 -58 38l-108 144l21 24l141 -95h8l141 95l21 -24l-108 -144
c-18.667 -25.333 -38 -38 -58 -38z" />
    <glyph glyph-name="ecaron" unicode="&#x11b;" horiz-adv-x="597" 
d="M374.5 280.5c23.667 29 35.5 58.333 35.5 88s-6.5 52.5 -19.5 68.5s-32.667 24 -59 24s-51.5 -18.667 -75.5 -56s-36 -87.333 -36 -150s11.333 -113 34 -151s55 -57 97 -57c64 0 118.333 25 163 75l28 -18c-22.667 -36 -52.667 -64.833 -90 -86.5
s-79.333 -32.5 -126 -32.5c-79.333 0 -142.666 26.167 -189.999 78.5s-71 115.5 -71 189.5s25.167 136.167 75.5 186.5s120.166 75.5 209.499 75.5c58.667 0 104.667 -13.667 138 -41s50 -62 50 -104s-18.5 -80.833 -55.5 -116.5s-85.833 -53.5 -146.5 -53.5
c-20.667 0 -40.667 2.33301 -60 7l-2 24c43.333 4 76.833 20.5 100.5 49.5zM328 559c-20 0 -39.333 12.667 -58 38l-108 144l21 24l141 -95h8l141 95l21 -24l-108 -144c-18.667 -25.333 -38 -38 -58 -38z" />
    <glyph glyph-name="Gcircumflex" unicode="&#x11c;" horiz-adv-x="700" 
d="M350 273l0.00195312 45.001h285v-340c0 -73.333 -22 -127.5 -66 -162.5s-103.333 -52.5 -178 -52.5c-44 0 -86.167 11.167 -126.5 33.5s-60.5 52.833 -60.5 91.5c0 7.33301 2.33301 18 7 32l34 88c-58.667 26 -105.834 70 -141.501 132s-53.5 131.667 -53.5 209
c0 105.333 30.167 192.666 90.5 261.999s144.166 104 251.499 104c54 0 106 -10.667 156 -32s75 -46.666 75 -75.999c0 -11.333 -3.66699 -24.333 -11 -39l-56 -92l-36 12l5 37c2.66699 16 4 31.333 4 46c0 26 -12.667 48.667 -38 68s-58.333 29 -99 29
c-61.333 0 -107.833 -29.833 -139.5 -89.5s-47.5 -134.334 -47.5 -224.001s17.167 -162.667 51.5 -219s84.5 -84.5 150.5 -84.5c26.667 0 52.667 5.33301 78 16v206h-135zM355.002 -14.999c-23.333 0 -45.6689 3 -67.002 9v-31c0 -76 16 -123 48 -141
c14.667 -8 34.834 -12 60.501 -12s46.834 9.16699 63.501 27.5s25 45.833 25 82.5v91c-40 -17.333 -83.333 -26 -130 -26zM379.999 965.001c20 0 39.333 -12.667 58 -38l108 -144l-21 -24l-141 95h-8l-141 -95l-21 24l108 144c18.667 25.333 38 38 58 38z" />
    <glyph glyph-name="gcircumflex" unicode="&#x11d;" horiz-adv-x="620" 
d="M419 -132l-185.001 0.00195312c-98 0 -147 41 -147 123c0 44.667 24.667 95 74 151c-54 39.333 -81 93.666 -81 162.999c0 59.333 21.667 109.166 65 149.499s100 60.5 170 60.5c50.667 0 95.667 -11.667 135 -35c28.667 26 48.334 60 59.001 102l39 -10
c-12 -46.667 -34 -85.334 -66 -116.001c45.333 -41.333 68 -91.666 68 -150.999s-21.667 -109.166 -65 -149.499s-100 -60.5 -170 -60.5c-48 0 -89.667 9.66699 -125 29c-23.333 -32.667 -35 -57.334 -35 -74.001c0 -33.333 19.333 -50 58 -50h185c98 0 147 -36 147 -108
c0 -51.333 -24.333 -103.666 -73 -156.999l-24 23c19.333 23.333 29 43.166 29 59.499s-5.16699 28.833 -15.5 37.5s-24.5 13 -42.5 13zM234.999 305.002c0 -49.333 6.83301 -89.666 20.5 -120.999s33.834 -47 60.501 -47s46.834 15.667 60.501 47s20.5 71.666 20.5 120.999
s-6.83301 89.666 -20.5 120.999s-33.834 47 -60.501 47s-46.834 -15.667 -60.501 -47s-20.5 -71.666 -20.5 -120.999zM319.999 765.002c20 0 39.333 -12.667 58 -38l108 -144l-21 -24l-141 95h-8l-141 -95l-21 24l108 144c18.667 25.333 38 38 58 38z" />
    <glyph glyph-name="Gbreve" unicode="&#x11e;" horiz-adv-x="700" 
d="M350 273l0.00195312 45.001h285v-340c0 -73.333 -22 -127.5 -66 -162.5s-103.333 -52.5 -178 -52.5c-44 0 -86.167 11.167 -126.5 33.5s-60.5 52.833 -60.5 91.5c0 7.33301 2.33301 18 7 32l34 88c-58.667 26 -105.834 70 -141.501 132s-53.5 131.667 -53.5 209
c0 105.333 30.167 192.666 90.5 261.999s144.166 104 251.499 104c54 0 106 -10.667 156 -32s75 -46.666 75 -75.999c0 -11.333 -3.66699 -24.333 -11 -39l-56 -92l-36 12l5 37c2.66699 16 4 31.333 4 46c0 26 -12.667 48.667 -38 68s-58.333 29 -99 29
c-61.333 0 -107.833 -29.833 -139.5 -89.5s-47.5 -134.334 -47.5 -224.001s17.167 -162.667 51.5 -219s84.5 -84.5 150.5 -84.5c26.667 0 52.667 5.33301 78 16v206h-135zM355.002 -14.999c-23.333 0 -45.6689 3 -67.002 9v-31c0 -76 16 -123 48 -141
c14.667 -8 34.834 -12 60.501 -12s46.834 9.16699 63.501 27.5s25 45.833 25 82.5v91c-40 -17.333 -83.333 -26 -130 -26zM339.999 878.001c12.667 -5.33301 26.832 -8.00098 42.499 -8.00098s32.334 6 50.001 18s30.5 22.833 38.5 32.5s18 22.834 30 39.501l45 -29
c-33.333 -60.667 -62.333 -102.834 -87 -126.501s-51 -35.5 -79 -35.5s-54.333 11.833 -79 35.5s-53.667 65.834 -87 126.501l44 29c32.667 -44.667 60 -72 82 -82z" />
    <glyph glyph-name="gbreve" unicode="&#x11f;" horiz-adv-x="620" 
d="M419 -132l-185.001 0.00195312c-98 0 -147 41 -147 123c0 44.667 24.667 95 74 151c-54 39.333 -81 93.666 -81 162.999c0 59.333 21.667 109.166 65 149.499s100 60.5 170 60.5c50.667 0 95.667 -11.667 135 -35c28.667 26 48.334 60 59.001 102l39 -10
c-12 -46.667 -34 -85.334 -66 -116.001c45.333 -41.333 68 -91.666 68 -150.999s-21.667 -109.166 -65 -149.499s-100 -60.5 -170 -60.5c-48 0 -89.667 9.66699 -125 29c-23.333 -32.667 -35 -57.334 -35 -74.001c0 -33.333 19.333 -50 58 -50h185c98 0 147 -36 147 -108
c0 -51.333 -24.333 -103.666 -73 -156.999l-24 23c19.333 23.333 29 43.166 29 59.499s-5.16699 28.833 -15.5 37.5s-24.5 13 -42.5 13zM234.999 305.002c0 -49.333 6.83301 -89.666 20.5 -120.999s33.834 -47 60.501 -47s46.834 15.667 60.501 47s20.5 71.666 20.5 120.999
s-6.83301 89.666 -20.5 120.999s-33.834 47 -60.501 47s-46.834 -15.667 -60.501 -47s-20.5 -71.666 -20.5 -120.999zM279.999 678.002c12.667 -5.33301 26.832 -8.00098 42.499 -8.00098s32.334 6 50.001 18s30.5 22.833 38.5 32.5s18 22.834 30 39.501l45 -29
c-33.333 -60.667 -62.333 -102.834 -87 -126.501s-51 -35.5 -79 -35.5s-54.333 11.833 -79 35.5s-53.667 65.834 -87 126.501l44 29c32.667 -44.667 60 -72 82 -82z" />
    <glyph glyph-name="Gdotaccent" unicode="&#x120;" horiz-adv-x="700" 
d="M350 273l0.00195312 45.001h285v-340c0 -73.333 -22 -127.5 -66 -162.5s-103.333 -52.5 -178 -52.5c-44 0 -86.167 11.167 -126.5 33.5s-60.5 52.833 -60.5 91.5c0 7.33301 2.33301 18 7 32l34 88c-58.667 26 -105.834 70 -141.501 132s-53.5 131.667 -53.5 209
c0 105.333 30.167 192.666 90.5 261.999s144.166 104 251.499 104c54 0 106 -10.667 156 -32s75 -46.666 75 -75.999c0 -11.333 -3.66699 -24.333 -11 -39l-56 -92l-36 12l5 37c2.66699 16 4 31.333 4 46c0 26 -12.667 48.667 -38 68s-58.333 29 -99 29
c-61.333 0 -107.833 -29.833 -139.5 -89.5s-47.5 -134.334 -47.5 -224.001s17.167 -162.667 51.5 -219s84.5 -84.5 150.5 -84.5c26.667 0 52.667 5.33301 78 16v206h-135zM355.002 -14.999c-23.333 0 -45.6689 3 -67.002 9v-31c0 -76 16 -123 48 -141
c14.667 -8 34.834 -12 60.501 -12s46.834 9.16699 63.501 27.5s25 45.833 25 82.5v91c-40 -17.333 -83.333 -26 -130 -26zM299.999 870.001c0 22 7.83301 40.833 23.5 56.5s34.5 23.5 56.5 23.5s40.833 -7.83301 56.5 -23.5s23.5 -34.5 23.5 -56.5
s-7.83301 -40.833 -23.5 -56.5s-34.5 -23.5 -56.5 -23.5s-40.833 7.83301 -56.5 23.5s-23.5 34.5 -23.5 56.5z" />
    <glyph glyph-name="gdotaccent" unicode="&#x121;" horiz-adv-x="620" 
d="M419 -132l-185.001 0.00195312c-98 0 -147 41 -147 123c0 44.667 24.667 95 74 151c-54 39.333 -81 93.666 -81 162.999c0 59.333 21.667 109.166 65 149.499s100 60.5 170 60.5c50.667 0 95.667 -11.667 135 -35c28.667 26 48.334 60 59.001 102l39 -10
c-12 -46.667 -34 -85.334 -66 -116.001c45.333 -41.333 68 -91.666 68 -150.999s-21.667 -109.166 -65 -149.499s-100 -60.5 -170 -60.5c-48 0 -89.667 9.66699 -125 29c-23.333 -32.667 -35 -57.334 -35 -74.001c0 -33.333 19.333 -50 58 -50h185c98 0 147 -36 147 -108
c0 -51.333 -24.333 -103.666 -73 -156.999l-24 23c19.333 23.333 29 43.166 29 59.499s-5.16699 28.833 -15.5 37.5s-24.5 13 -42.5 13zM234.999 305.002c0 -49.333 6.83301 -89.666 20.5 -120.999s33.834 -47 60.501 -47s46.834 15.667 60.501 47s20.5 71.666 20.5 120.999
s-6.83301 89.666 -20.5 120.999s-33.834 47 -60.501 47s-46.834 -15.667 -60.501 -47s-20.5 -71.666 -20.5 -120.999zM239.999 670.002c0 22 7.83301 40.833 23.5 56.5s34.5 23.5 56.5 23.5s40.833 -7.83301 56.5 -23.5s23.5 -34.5 23.5 -56.5s-7.83301 -40.833 -23.5 -56.5
s-34.5 -23.5 -56.5 -23.5s-40.833 7.83301 -56.5 23.5s-23.5 34.5 -23.5 56.5z" />
    <glyph glyph-name="uni0122" unicode="&#x122;" horiz-adv-x="700" 
d="M350 273l0.000976562 45.001h285v-318h-55l-36 49c-50 -42.667 -113 -64 -189 -64c-86.667 0 -159.167 35.333 -217.5 106s-87.5 157.667 -87.5 261s30.167 189.666 90.5 258.999s144.166 104 251.499 104c54 0 106 -10.667 156 -32s75 -46.666 75 -75.999
c0 -11.333 -3.66699 -24.333 -11 -39l-56 -92l-36 12l5 37c2.66699 16 4 31.333 4 46c0 26 -12.667 48.667 -38 68s-58.333 29 -99 29c-61.333 0 -107.833 -29.833 -139.5 -89.5s-47.5 -134.334 -47.5 -224.001s17.167 -162.667 51.5 -219s84.5 -84.5 150.5 -84.5
c26.667 0 52.667 5.33301 78 16v206h-135zM308.501 -179.499c-17 19.667 -25.501 39 -25.501 58s6.5 35 19.5 48s29 19.5 48 19.5s34.833 -7.33301 47.5 -22s19 -37 19 -67s-9.16699 -63.5 -27.5 -100.5s-44.166 -70.5 -77.499 -100.5l-22 22c29.333 34 44 64 44 90
c0 15.333 -8.5 32.833 -25.5 52.5z" />
    <glyph glyph-name="uni0123" unicode="&#x123;" horiz-adv-x="620" 
d="M419 -132l-185.001 0.00195312c-98 0 -147 41 -147 123c0 44.667 24.667 95 74 151c-54 39.333 -81 93.666 -81 162.999c0 59.333 21.667 109.166 65 149.499s100 60.5 170 60.5c50.667 0 95.667 -11.667 135 -35c28.667 26 48.334 60 59.001 102l39 -10
c-12 -46.667 -34 -85.334 -66 -116.001c45.333 -41.333 68 -91.666 68 -150.999s-21.667 -109.166 -65 -149.499s-100 -60.5 -170 -60.5c-48 0 -89.667 9.66699 -125 29c-23.333 -32.667 -35 -57.334 -35 -74.001c0 -33.333 19.333 -50 58 -50h185c98 0 147 -36 147 -108
c0 -51.333 -24.333 -103.666 -73 -156.999l-24 23c19.333 23.333 29 43.166 29 59.499s-5.16699 28.833 -15.5 37.5s-24.5 13 -42.5 13zM234.999 305.002c0 -49.333 6.83301 -89.666 20.5 -120.999s33.834 -47 60.501 -47s46.834 15.667 60.501 47s20.5 71.666 20.5 120.999
s-6.83301 89.666 -20.5 120.999s-33.834 47 -60.501 47s-46.834 -15.667 -60.501 -47s-20.5 -71.666 -20.5 -120.999zM351.499 707.502c17 -19.667 25.501 -39 25.501 -58s-6.5 -35 -19.5 -48s-29 -19.5 -48 -19.5s-34.833 7.33301 -47.5 22s-19 37 -19 67
s9.16699 63.5 27.5 100.5s44.166 70.5 77.499 100.5l22 -22c-29.333 -34 -44 -64 -44 -90c0 -15.333 8.5 -32.833 25.5 -52.5z" />
    <glyph glyph-name="Hcircumflex" unicode="&#x124;" horiz-adv-x="810" 
d="M680 660v-620h60v-40h-270v40h60v233h-250v-233h60v-40h-270v40h60v620h-60v40h270v-40h-60v-342h250v342h-60v40h270v-40h-60zM405 965c20 0 39.333 -12.667 58 -38l108 -144l-21 -24l-141 95h-8l-141 -95l-21 24l108 144c18.667 25.333 38 38 58 38z" />
    <glyph glyph-name="hcircumflex" unicode="&#x125;" horiz-adv-x="694" 
d="M261 704v-257.002c23.333 25.333 48.5 43 75.5 53s61.333 15 103 15s75.667 -13.167 102 -39.5s39.5 -62.166 39.5 -107.499v-257c0 -18 4.33301 -32.167 13 -42.5s22 -15.5 40 -15.5s38.667 9.66699 62 29l18 -24c-53.333 -48.667 -106.666 -73 -159.999 -73
c-82 0 -123 49 -123 147v257c0 20.667 -6.33301 36.667 -19 48s-30.334 17 -53.001 17s-44.667 -9.33301 -66 -28s-32 -43 -32 -73v-353h-150v717c-36.667 -9.33301 -64.667 -25.666 -84 -48.999l-27 31c19.333 20 43.833 36 73.5 48s59 18 88 18
s52.833 -5.83301 71.5 -17.5s28 -26.167 28 -43.5zM185 994.998c20 0 39.333 -12.667 58 -38l108 -144l-21 -24l-141 95h-8l-141 -95l-21 24l108 144c18.667 25.333 38 38 58 38z" />
    <glyph glyph-name="Hbar" unicode="&#x126;" horiz-adv-x="810" 
d="M25 455v45h105v160h-60v40h270v-40h-60v-160h250v160h-60v40h270v-40h-60v-160h95v-45h-95v-415h60v-40h-270v40h60v233h-250v-233h60v-40h-270v40h60v415h-105zM280 318h250v137h-250v-137z" />
    <glyph glyph-name="hbar" unicode="&#x127;" horiz-adv-x="694" 
d="M1 568v44.998h110v104c-36.667 -9.33301 -64.667 -25.666 -84 -48.999l-27 31c19.333 20 43.833 36 73.5 48s59 18 88 18s52.833 -5.83301 71.5 -17.5s28 -26.167 28 -43.5v-91h120v-45h-120v-121c23.333 25.333 48.5 43 75.5 53s61.333 15 103 15
s75.667 -13.167 102 -39.5s39.5 -62.166 39.5 -107.499v-257c0 -18 4.33301 -32.167 13 -42.5s22 -15.5 40 -15.5s38.667 9.66699 62 29l18 -24c-53.333 -48.667 -106.666 -73 -159.999 -73c-82 0 -123 49 -123 147v257c0 20.667 -6.33301 36.667 -19 48
s-30.334 17 -53.001 17s-44.667 -9.33301 -66 -28s-32 -43 -32 -73v-353h-150v568h-110z" />
    <glyph glyph-name="Itilde" unicode="&#x128;" horiz-adv-x="410" 
d="M60 660v40h290v-40h-70v-620h70v-40h-290v40h70v620h-70zM318 809v15c0 26 -9.33301 39 -28 39c-8 0 -15.667 -2.33301 -23 -7l-85 -48c-21.333 -12.667 -41.333 -19 -60 -19s-35.5 8.66699 -50.5 26s-22.5 37.5 -22.5 60.5s2.66699 45.167 8 66.5h36v-15
c0 -26 9.33301 -39 28 -39c8 0 15.667 2.33301 23 7l85 48c21.333 12.667 41.333 19 60 19s35.5 -8.66699 50.5 -26s22.5 -37.5 22.5 -60.5s-2.66699 -45.167 -8 -66.5h-36z" />
    <glyph glyph-name="itilde" unicode="&#x129;" horiz-adv-x="399" 
d="M192 515c62.667 0 93.998 -27.001 93.998 -81.001v-323c0 -18 4.33301 -32.167 13 -42.5s22 -15.5 40 -15.5s38.667 9.66699 62 29l18 -24c-53.333 -48.667 -106.666 -73 -159.999 -73c-82 0 -123 49 -123 147v335c-36.667 -9.33301 -64.667 -25.666 -84 -48.999l-27 31
c19.333 20 43.833 36 73.5 48s60.834 18 93.501 18zM311.998 608.999v15c0 26 -9.33301 39 -28 39c-8 0 -15.667 -2.33301 -23 -7l-85 -48c-21.333 -12.667 -41.333 -19 -60 -19s-35.5 8.66699 -50.5 26s-22.5 37.5 -22.5 60.5s2.66699 45.167 8 66.5h36v-15
c0 -26 9.33301 -39 28 -39c8 0 15.667 2.33301 23 7l85 48c21.333 12.667 41.333 19 60 19s35.5 -8.66699 50.5 -26s22.5 -37.5 22.5 -60.5s-2.66699 -45.167 -8 -66.5h-36z" />
    <glyph glyph-name="Imacron" unicode="&#x12a;" horiz-adv-x="410" 
d="M60 660v40h290v-40h-70v-620h70v-40h-290v40h70v620h-70zM58 900h294v-88h-294v88z" />
    <glyph glyph-name="imacron" unicode="&#x12b;" horiz-adv-x="246" 
d="M192 515c62.667 0 93.998 -27.001 93.998 -81.001v-323c0 -18 4.33301 -32.167 13 -42.5s22 -15.5 40 -15.5s38.667 9.66699 62 29l18 -24c-53.333 -48.667 -106.666 -73 -159.999 -73c-82 0 -123 49 -123 147v335c-36.667 -9.33301 -64.667 -25.666 -84 -48.999l-27 31
c19.333 20 43.833 36 73.5 48s60.834 18 93.501 18zM24.998 699.999h294v-88h-294v88z" />
    <glyph glyph-name="Ibreve" unicode="&#x12c;" horiz-adv-x="410" 
d="M60 660v40h290v-40h-70v-620h70v-40h-290v40h70v620h-70zM165 878c12.667 -5.33301 26.832 -8.00098 42.499 -8.00098s32.334 6 50.001 18s30.5 22.833 38.5 32.5s18 22.834 30 39.501l45 -29c-33.333 -60.667 -62.333 -102.834 -87 -126.501s-51 -35.5 -79 -35.5
s-54.333 11.833 -79 35.5s-53.667 65.834 -87 126.501l44 29c32.667 -44.667 60 -72 82 -82z" />
    <glyph glyph-name="ibreve" unicode="&#x12d;" horiz-adv-x="399" 
d="M192 515c62.667 0 93.998 -27.001 93.998 -81.001v-323c0 -18 4.33301 -32.167 13 -42.5s22 -15.5 40 -15.5s38.667 9.66699 62 29l18 -24c-53.333 -48.667 -106.666 -73 -159.999 -73c-82 0 -123 49 -123 147v335c-36.667 -9.33301 -64.667 -25.666 -84 -48.999l-27 31
c19.333 20 43.833 36 73.5 48s60.834 18 93.501 18zM158.998 677.999c12.667 -5.33301 26.832 -8.00098 42.499 -8.00098s32.334 6 50.001 18s30.5 22.833 38.5 32.5s18 22.834 30 39.501l45 -29c-33.333 -60.667 -62.333 -102.834 -87 -126.501s-51 -35.5 -79 -35.5
s-54.333 11.833 -79 35.5s-53.667 65.834 -87 126.501l44 29c32.667 -44.667 60 -72 82 -82z" />
    <glyph glyph-name="Iogonek" unicode="&#x12e;" horiz-adv-x="410" 
d="M60 0v39.998h70v620h-70v40h290v-40h-70v-620h70v-40h-89l-8 -8c-25.333 -25.333 -42 -46.166 -50 -62.499s-12 -33.666 -12 -51.999s5.5 -32.333 16.5 -42s26.833 -14.5 47.5 -14.5s41 9.33301 61 28l17 -29c-32 -38.667 -73.333 -58 -124 -58
c-31.333 0 -57.333 7.83301 -78 23.5s-31 39.5 -31 71.5c0 16 5 32.167 15 48.5s20 29 30 38s24 20.833 42 35.5l26 21h-153z" />
    <glyph glyph-name="iogonek" unicode="&#x12f;" horiz-adv-x="399" 
d="M192 515c62.667 0 93.999 -27.0039 93.999 -81.0039v-323c0 -18 4.33301 -32.167 13 -42.5s22 -15.5 40 -15.5s38.667 9.66699 62 29l18 -24l-66 -66c-25.333 -25.333 -42 -46.166 -50 -62.499s-12 -33.666 -12 -51.999s5.5 -32.333 16.5 -42s26.833 -14.5 47.5 -14.5
s41 9.33301 61 28l17 -29c-32 -38.667 -73.333 -58 -124 -58c-31.333 0 -57.333 7.83301 -78 23.5s-31 37.334 -31 65.001s6.83301 51 20.5 70s32.5 38.5 56.5 58.5l9 8c-12 -1.33301 -21 -2 -27 -2c-82 0 -123 49 -123 147v335
c-36.667 -9.33301 -64.667 -25.666 -84 -48.999l-27 31c19.333 20 43.833 36 73.5 48s60.834 18 93.501 18zM130.999 669.996c0 22 7.83301 40.833 23.5 56.5s34.5 23.5 56.5 23.5s40.833 -7.83301 56.5 -23.5s23.5 -34.5 23.5 -56.5s-7.83301 -40.833 -23.5 -56.5
s-34.5 -23.5 -56.5 -23.5s-40.833 7.83301 -56.5 23.5s-23.5 34.5 -23.5 56.5z" />
    <glyph glyph-name="Idotaccent" unicode="&#x130;" horiz-adv-x="410" 
d="M60 660v40h290v-40h-70v-620h70v-40h-290v40h70v620h-70zM125 870c0 22 7.83301 40.833 23.5 56.5s34.5 23.5 56.5 23.5s40.833 -7.83301 56.5 -23.5s23.5 -34.5 23.5 -56.5s-7.83301 -40.833 -23.5 -56.5s-34.5 -23.5 -56.5 -23.5s-40.833 7.83301 -56.5 23.5
s-23.5 34.5 -23.5 56.5z" />
    <glyph glyph-name="dotlessi" unicode="&#x131;" horiz-adv-x="399" 
d="M192 515c62.667 0 93.998 -27.001 93.998 -81.001v-323c0 -18 4.33301 -32.167 13 -42.5s22 -15.5 40 -15.5s38.667 9.66699 62 29l18 -24c-53.333 -48.667 -106.666 -73 -159.999 -73c-82 0 -123 49 -123 147v335c-36.667 -9.33301 -64.667 -25.666 -84 -48.999l-27 31
c19.333 20 43.833 36 73.5 48s60.834 18 93.501 18z" />
    <glyph glyph-name="IJ" unicode="&#x132;" horiz-adv-x="945" 
d="M60 660v40h290v-40h-70v-620h70v-40h-290v40h70v620h-70zM825 660l0.000976562 -469.999c0 -70 -21.167 -121.667 -63.5 -155s-99.166 -50 -170.499 -50c-40.667 0 -79.334 10.667 -116.001 32s-55 46.666 -55 75.999c0 11.333 3.66699 24.333 11 39l60 116l36 -11
l-9 -62c-2.66699 -23.333 -4 -45.333 -4 -66s7.16699 -38.667 21.5 -54s33.666 -23 57.999 -23s44 8.33301 59 25s22.5 41.667 22.5 75v528h-95v40h305v-40h-60z" />
    <glyph glyph-name="ij" unicode="&#x133;" horiz-adv-x="782" 
d="M131 670c0 22 7.83301 40.833 23.5 56.5s34.5 23.5 56.5 23.5s40.833 -7.83301 56.5 -23.5s23.5 -34.5 23.5 -56.5s-7.83301 -40.833 -23.5 -56.5s-34.5 -23.5 -56.5 -23.5s-40.833 7.83301 -56.5 23.5s-23.5 34.5 -23.5 56.5zM192 515
c62.667 0 93.998 -27.001 93.998 -81.001v-323c0 -18 4.33301 -32.167 13 -42.5s22 -15.5 40 -15.5s38.667 9.66699 62 29l18 -24c-53.333 -48.667 -106.666 -73 -159.999 -73c-82 0 -123 49 -123 147v335c-36.667 -9.33301 -64.667 -25.666 -84 -48.999l-27 31
c19.333 20 43.833 36 73.5 48s60.834 18 93.501 18zM688.998 453.999v-541.001c0 -52.667 -15 -95.5 -45 -128.5s-78.333 -49.5 -145 -49.5c-32.667 0 -63.834 6 -93.501 18s-54.167 28 -73.5 48l22 31c28.667 -24.667 62.334 -37 101.001 -37c56 0 84 36.667 84 110v562
c-36.667 -9.33301 -64.667 -25.666 -84 -48.999l-27 31c19.333 20 43.833 36 73.5 48s59 18 88 18s52.833 -5.83301 71.5 -17.5s28 -26.167 28 -43.5zM533.998 669.998c0 22 7.83301 40.833 23.5 56.5s34.5 23.5 56.5 23.5s40.833 -7.83301 56.5 -23.5
s23.5 -34.5 23.5 -56.5s-7.83301 -40.833 -23.5 -56.5s-34.5 -23.5 -56.5 -23.5s-40.833 7.83301 -56.5 23.5s-23.5 34.5 -23.5 56.5z" />
    <glyph glyph-name="Jcircumflex" unicode="&#x134;" horiz-adv-x="535" 
d="M415 660l0.000976562 -469.999c0 -70 -21.167 -121.667 -63.5 -155s-99.166 -50 -170.499 -50c-40.667 0 -79.334 10.667 -116.001 32s-55 46.666 -55 75.999c0 11.333 3.66699 24.333 11 39l60 116l36 -11l-9 -62c-2.66699 -23.333 -4 -45.333 -4 -66
s7.16699 -38.667 21.5 -54s33.666 -23 57.999 -23s44 8.33301 59 25s22.5 41.667 22.5 75v528h-95v40h305v-40h-60zM323.001 965.001c20 0 39.333 -12.667 58 -38l108 -144l-21 -24l-141 95h-8l-141 -95l-21 24l108 144c18.667 25.333 38 38 58 38z" />
    <glyph glyph-name="jcircumflex" unicode="&#x135;" horiz-adv-x="383" 
d="M192 765c20 0 39.333 -12.667 58 -38l108 -144l-21 -24l-141 95h-8l-141 -95l-21 24l108 144c18.667 25.333 38 38 58 38zM290 454v-541.001c0 -52.667 -15 -95.5 -45 -128.5s-78.333 -49.5 -145 -49.5c-32.667 0 -63.834 6 -93.501 18s-54.167 28 -73.5 48l22 31
c28.667 -24.667 62.334 -37 101.001 -37c56 0 84 36.667 84 110v562c-36.667 -9.33301 -64.667 -25.666 -84 -48.999l-27 31c19.333 20 43.833 36 73.5 48s59 18 88 18s52.833 -5.83301 71.5 -17.5s28 -26.167 28 -43.5z" />
    <glyph glyph-name="uni0136" unicode="&#x136;" horiz-adv-x="685" 
d="M70 660l0.00292969 40.001h270v-40h-60v-305l213 345h159v-40h-55l-290 -325h65c85.333 0 137.666 -32.333 156.999 -97l42 -140c4.66699 -16.667 10.667 -28.334 18 -35.001s19.666 -10 36.999 -10s37.666 9.66699 60.999 29l18 -24c-53.333 -48.667 -110 -73 -170 -73
c-30.667 0 -55.334 5.33301 -74.001 16s-32 29.334 -40 56.001l-59 194c-5.33301 18.667 -13.666 31.667 -24.999 39s-30.333 11.666 -57 12.999v-263h60v-40h-270v40h60v620h-60zM341.503 -179.499c-17 19.667 -25.501 39 -25.501 58s6.5 35 19.5 48s29 19.5 48 19.5
s34.833 -7.33301 47.5 -22s19 -37 19 -67s-9.16699 -63.5 -27.5 -100.5s-44.166 -70.5 -77.499 -100.5l-22 22c29.333 34 44 64 44 90c0 15.333 -8.5 32.833 -25.5 52.5z" />
    <glyph glyph-name="uni0137" unicode="&#x137;" horiz-adv-x="647" 
d="M261 704l-0.00292969 -259.001c36 46.667 91.333 70 166 70c42.667 0 77.334 -10.667 104.001 -32s40 -48.166 40 -80.499s-9.66699 -61.166 -29 -86.499s-45.666 -46 -78.999 -62l60 -156c6.66699 -17.333 13.334 -29.166 20.001 -35.499s16 -9.5 28 -9.5
c22 0 44.667 9.66699 68 29l18 -24c-53.333 -48.667 -108.5 -73 -165.5 -73s-94.833 24 -113.5 72l-75 192c36.667 8.66699 67.167 26.667 91.5 54s36.5 53.666 36.5 78.999s-6.33301 43.666 -19 54.999s-28.667 17 -48 17c-32 0 -57.167 -12.833 -75.5 -38.5
s-27.5 -60.834 -27.5 -105.501v-310h-150v717c-36.667 -9.33301 -64.667 -25.666 -84 -48.999l-27 31c19.333 20 43.833 36 73.5 48s59 18 88 18s52.833 -5.83301 71.5 -17.5s28 -26.167 28 -43.5zM300.497 -179.501c-17 19.667 -25.501 39 -25.501 58s6.5 35 19.5 48
s29 19.5 48 19.5s34.833 -7.33301 47.5 -22s19 -37 19 -67s-9.16699 -63.5 -27.5 -100.5s-44.166 -70.5 -77.499 -100.5l-22 22c29.333 34 44 64 44 90c0 15.333 -8.5 32.833 -25.5 52.5z" />
    <glyph glyph-name="kgreenlandic" unicode="&#x138;" horiz-adv-x="660" 
d="M124 500c90 0 139.665 -31.335 148.998 -94.002c36 72.667 91.667 109 167 109c42.667 0 77.334 -10.667 104.001 -32s40 -48.166 40 -80.499s-9.66699 -61.166 -29 -86.499s-45.666 -46 -78.999 -62l60 -156c6.66699 -17.333 13.334 -29.166 20.001 -35.499
s16 -9.5 28 -9.5c22 0 44.667 9.66699 68 29l18 -24c-53.333 -48.667 -108.5 -73 -165.5 -73s-94.833 24 -113.5 72l-75 192c36.667 8.66699 67.167 26.667 91.5 54s36.5 53.833 36.5 79.5s-5.33301 44 -16 55s-24.334 16.5 -41.001 16.5c-34 0 -61 -22.333 -81 -67
s-30.667 -105.334 -32 -182.001v-205h-150v460c-30 0 -56.667 -5 -80 -15l-14 37c28.667 12 60 18 94 18z" />
    <glyph glyph-name="Lacute" unicode="&#x139;" horiz-adv-x="570" 
d="M70 660v39.999h270v-40h-60v-620h70c44 0 74.167 4.33301 90.5 13s27.5 28 33.5 58l20 99h39l27 -168c0 -13.333 -3 -23.166 -9 -29.499s-12.5 -10 -19.5 -11s-17.833 -1.5 -32.5 -1.5h-429v40h60v620h-60zM254.5 957.999c9 4.66699 20 6.99805 33 6.99805
s25 -4.83301 36 -14.5s16.5 -22.167 16.5 -37.5s-6 -28.833 -18 -40.5s-33.667 -25.167 -65 -40.5l-148 -73l-21 24l119 132c11.333 12.667 19.833 21.834 25.5 27.501s13 10.834 22 15.501z" />
    <glyph glyph-name="lacute" unicode="&#x13a;" horiz-adv-x="374" 
d="M73.5 747c29.667 12 58.999 17.999 87.999 17.999s52.833 -5.83301 71.5 -17.5s28 -26.167 28 -43.5v-593c0 -18 4.33301 -32.167 13 -42.5s22 -15.5 40 -15.5s38.667 9.66699 62 29l18 -24c-53.333 -48.667 -106.666 -73 -159.999 -73c-82 0 -123 49 -123 147v585
c-36.667 -9.33301 -64.667 -25.666 -84 -48.999l-27 31c19.333 20 43.833 36 73.5 48zM227.499 987.999c9 4.66699 20 6.99805 33 6.99805s25 -4.83301 36 -14.5s16.5 -22.167 16.5 -37.5s-6 -28.833 -18 -40.5s-33.667 -25.167 -65 -40.5l-148 -73l-21 24l119 132
c11.333 12.667 19.833 21.834 25.5 27.501s13 10.834 22 15.501z" />
    <glyph glyph-name="uni013B" unicode="&#x13b;" horiz-adv-x="570" 
d="M70 660v39.999h270v-40h-60v-620h70c44 0 74.167 4.33301 90.5 13s27.5 28 33.5 58l20 99h39l27 -168c0 -13.333 -3 -23.166 -9 -29.499s-12.5 -10 -19.5 -11s-17.833 -1.5 -32.5 -1.5h-429v40h60v620h-60zM164.5 -179.501c-17 19.667 -25.501 39 -25.501 58
s6.5 35 19.5 48s29 19.5 48 19.5s34.833 -7.33301 47.5 -22s19 -37 19 -67s-9.16699 -63.5 -27.5 -100.5s-44.166 -70.5 -77.499 -100.5l-22 22c29.333 34 44 64 44 90c0 15.333 -8.5 32.833 -25.5 52.5z" />
    <glyph glyph-name="uni013C" unicode="&#x13c;" horiz-adv-x="374" 
d="M73.5 747c29.667 12 58.999 17.999 87.999 17.999s52.833 -5.83301 71.5 -17.5s28 -26.167 28 -43.5v-593c0 -18 4.33301 -32.167 13 -42.5s22 -15.5 40 -15.5s38.667 9.66699 62 29l18 -24c-53.333 -48.667 -106.666 -73 -159.999 -73c-82 0 -123 49 -123 147v585
c-36.667 -9.33301 -64.667 -25.666 -84 -48.999l-27 31c19.333 20 43.833 36 73.5 48zM143.499 -179.501c-17 19.667 -25.501 39 -25.501 58s6.5 35 19.5 48s29 19.5 48 19.5s34.833 -7.33301 47.5 -22s19 -37 19 -67s-9.16699 -63.5 -27.5 -100.5
s-44.166 -70.5 -77.499 -100.5l-22 22c29.333 34 44 64 44 90c0 15.333 -8.5 32.833 -25.5 52.5z" />
    <glyph glyph-name="Lcaron" unicode="&#x13d;" horiz-adv-x="570" 
d="M70 660v39.999h270v-40h-60v-620h70c44 0 74.167 4.33301 90.5 13s27.5 28 33.5 58l20 99h39l27 -168c0 -13.333 -3 -23.166 -9 -29.499s-12.5 -10 -19.5 -11s-17.833 -1.5 -32.5 -1.5h-429v40h60v620h-60zM411.5 664.499c-17 19.667 -25.501 39 -25.501 58
s6.5 35 19.5 48s29 19.5 48 19.5s34.833 -7.33301 47.5 -22s19 -37 19 -67s-9.16699 -63.5 -27.5 -100.5s-44.166 -70.5 -77.499 -100.5l-22 22c29.333 34 44 64 44 90c0 15.333 -8.5 32.833 -25.5 52.5z" />
    <glyph glyph-name="lcaron" unicode="&#x13e;" horiz-adv-x="406" 
d="M73.5 747c29.667 12 58.999 17.999 87.999 17.999s52.833 -5.83301 71.5 -17.5s28 -26.167 28 -43.5v-593c0 -18 4.33301 -32.167 13 -42.5s22 -15.5 40 -15.5s38.667 9.66699 62 29l18 -24c-53.333 -48.667 -106.666 -73 -159.999 -73c-82 0 -123 49 -123 147v585
c-36.667 -9.33301 -64.667 -25.666 -84 -48.999l-27 31c19.333 20 43.833 36 73.5 48zM352.499 664.499c-17 19.667 -25.501 39 -25.501 58s6.5 35 19.5 48s29 19.5 48 19.5s34.833 -7.33301 47.5 -22s19 -37 19 -67s-9.16699 -63.5 -27.5 -100.5
s-44.166 -70.5 -77.499 -100.5l-22 22c29.333 34 44 64 44 90c0 15.333 -8.5 32.833 -25.5 52.5z" />
    <glyph glyph-name="Ldot" unicode="&#x13f;" horiz-adv-x="570" 
d="M70 660v39.999h270v-40h-60v-620h70c44 0 74.167 4.33301 90.5 13s27.5 28 33.5 58l20 99h39l27 -168c0 -13.333 -3 -23.166 -9 -29.499s-12.5 -10 -19.5 -11s-17.833 -1.5 -32.5 -1.5h-429v40h60v620h-60zM354 411.999c0 21.333 7.5 39.5 22.5 54.5
s33.167 22.5 54.5 22.5s39.5 -7.5 54.5 -22.5s22.5 -33.167 22.5 -54.5s-7.5 -39.5 -22.5 -54.5s-33.167 -22.5 -54.5 -22.5s-39.5 7.5 -54.5 22.5s-22.5 33.167 -22.5 54.5z" />
    <glyph glyph-name="ldot" unicode="&#x140;" horiz-adv-x="475" 
d="M73.5 747c29.667 12 58.999 17.999 87.999 17.999s52.833 -5.83301 71.5 -17.5s28 -26.167 28 -43.5v-593c0 -18 4.33301 -32.167 13 -42.5s22 -15.5 40 -15.5s38.667 9.66699 62 29l18 -24c-53.333 -48.667 -106.666 -73 -159.999 -73c-82 0 -123 49 -123 147v585
c-36.667 -9.33301 -64.667 -25.666 -84 -48.999l-27 31c19.333 20 43.833 36 73.5 48zM314.999 411.999c0 21.333 7.5 39.5 22.5 54.5s33.167 22.5 54.5 22.5s39.5 -7.5 54.5 -22.5s22.5 -33.167 22.5 -54.5s-7.5 -39.5 -22.5 -54.5s-33.167 -22.5 -54.5 -22.5
s-39.5 7.5 -54.5 22.5s-22.5 33.167 -22.5 54.5z" />
    <glyph glyph-name="Lslash" unicode="&#x141;" horiz-adv-x="570" 
d="M130 660l-60 -0.000976562v40h270v-40h-60v-204l78 40l19 -38l-97 -50v-368h70c44 0 74.167 4.33301 90.5 13s27.5 28 33.5 58l20 99h39l27 -168c0 -13.333 -3 -23.166 -9 -29.499s-12.5 -10 -19.5 -11s-17.833 -1.5 -32.5 -1.5h-429v40h60v292l-77 -39l-19 38l96 49v280
z" />
    <glyph glyph-name="lslash" unicode="&#x142;" horiz-adv-x="374" 
d="M73.5 747c29.667 12 58.999 17.999 87.999 17.999s52.833 -5.83301 71.5 -17.5s28 -26.167 28 -43.5v-248l78 40l19 -38l-97 -50v-297c0 -18 4.33301 -32.167 13 -42.5s22 -15.5 40 -15.5s38.667 9.66699 62 29l18 -24c-53.333 -48.667 -106.666 -73 -159.999 -73
c-82 0 -123 49 -123 147v200l-77 -39l-19 38l96 49v337c-36.667 -9.33301 -64.667 -25.666 -84 -48.999l-27 31c19.333 20 43.833 36 73.5 48z" />
    <glyph glyph-name="Nacute" unicode="&#x143;" horiz-adv-x="770" 
d="M60 0v40h60v620h-60v40h234l286 -563v523h-60v40h190v-40h-60v-660h-159l-301 592v-552h60v-40h-190zM475.5 958c9 4.66699 20 6.99805 33 6.99805s25 -4.83301 36 -14.5s16.5 -22.167 16.5 -37.5s-6 -28.833 -18 -40.5s-33.667 -25.167 -65 -40.5l-148 -73l-21 24
l119 132c11.333 12.667 19.833 21.834 25.5 27.501s13 10.834 22 15.501z" />
    <glyph glyph-name="nacute" unicode="&#x144;" 
d="M124 500c54.667 0 103.998 -16.668 147.998 -50.001c25.333 24 51.333 40.833 78 50.5s60.834 14.5 102.501 14.5s75.667 -13.167 102 -39.5s39.5 -62.166 39.5 -107.499v-257c0 -18 4.33301 -32.167 13 -42.5s22 -15.5 40 -15.5s38.667 9.66699 62 29l18 -24
c-53.333 -48.667 -106.666 -73 -159.999 -73c-82 0 -123 49 -123 147v257c0 20.667 -6.33301 36.667 -19 48s-30.167 17 -52.5 17s-44.333 -9 -66 -27s-32.5 -41.333 -32.5 -70v-357h-150v460c-30 0 -56.667 -5 -80 -15l-14 37c28.667 12 60 18 94 18zM418.498 757.999
c9 4.66699 20 6.99805 33 6.99805s25 -4.83301 36 -14.5s16.5 -22.167 16.5 -37.5s-6 -28.833 -18 -40.5s-33.667 -25.167 -65 -40.5l-148 -73l-21 24l119 132c11.333 12.667 19.833 21.834 25.5 27.501s13 10.834 22 15.501z" />
    <glyph glyph-name="uni0145" unicode="&#x145;" horiz-adv-x="770" 
d="M60 0v40h60v620h-60v40h234l286 -563v523h-60v40h190v-40h-60v-660h-159l-301 592v-552h60v-40h-190zM343.5 -179.5c-17 19.667 -25.501 39 -25.501 58s6.5 35 19.5 48s29 19.5 48 19.5s34.833 -7.33301 47.5 -22s19 -37 19 -67s-9.16699 -63.5 -27.5 -100.5
s-44.166 -70.5 -77.499 -100.5l-22 22c29.333 34 44 64 44 90c0 15.333 -8.5 32.833 -25.5 52.5z" />
    <glyph glyph-name="uni0146" unicode="&#x146;" 
d="M124 500c54.667 0 103.998 -16.668 147.998 -50.001c25.333 24 51.333 40.833 78 50.5s60.834 14.5 102.501 14.5s75.667 -13.167 102 -39.5s39.5 -62.166 39.5 -107.499v-257c0 -18 4.33301 -32.167 13 -42.5s22 -15.5 40 -15.5s38.667 9.66699 62 29l18 -24
c-53.333 -48.667 -106.666 -73 -159.999 -73c-82 0 -123 49 -123 147v257c0 20.667 -6.33301 36.667 -19 48s-30.167 17 -52.5 17s-44.333 -9 -66 -27s-32.5 -41.333 -32.5 -70v-357h-150v460c-30 0 -56.667 -5 -80 -15l-14 37c28.667 12 60 18 94 18zM331.498 -179.501
c-17 19.667 -25.501 39 -25.501 58s6.5 35 19.5 48s29 19.5 48 19.5s34.833 -7.33301 47.5 -22s19 -37 19 -67s-9.16699 -63.5 -27.5 -100.5s-44.166 -70.5 -77.499 -100.5l-22 22c29.333 34 44 64 44 90c0 15.333 -8.5 32.833 -25.5 52.5z" />
    <glyph glyph-name="Ncaron" unicode="&#x147;" horiz-adv-x="770" 
d="M60 0v40h60v620h-60v40h234l286 -563v523h-60v40h190v-40h-60v-660h-159l-301 592v-552h60v-40h-190zM401 759c-20 0 -39.333 12.667 -58 38l-108 144l21 24l141 -95h8l141 95l21 -24l-108 -144c-18.667 -25.333 -38 -38 -58 -38z" />
    <glyph glyph-name="ncaron" unicode="&#x148;" 
d="M124 500c54.667 0 103.998 -16.668 147.998 -50.001c25.333 24 51.333 40.833 78 50.5s60.834 14.5 102.501 14.5s75.667 -13.167 102 -39.5s39.5 -62.166 39.5 -107.499v-257c0 -18 4.33301 -32.167 13 -42.5s22 -15.5 40 -15.5s38.667 9.66699 62 29l18 -24
c-53.333 -48.667 -106.666 -73 -159.999 -73c-82 0 -123 49 -123 147v257c0 20.667 -6.33301 36.667 -19 48s-30.167 17 -52.5 17s-44.333 -9 -66 -27s-32.5 -41.333 -32.5 -70v-357h-150v460c-30 0 -56.667 -5 -80 -15l-14 37c28.667 12 60 18 94 18zM360.998 558.999
c-20 0 -39.333 12.667 -58 38l-108 144l21 24l141 -95h8l141 95l21 -24l-108 -144c-18.667 -25.333 -38 -38 -58 -38z" />
    <glyph glyph-name="napostrophe" unicode="&#x149;" 
d="M124 500c54.667 0 103.998 -16.668 147.998 -50.001c25.333 24 51.333 40.833 78 50.5s60.834 14.5 102.501 14.5s75.667 -13.167 102 -39.5s39.5 -62.166 39.5 -107.499v-257c0 -18 4.33301 -32.167 13 -42.5s22 -15.5 40 -15.5s38.667 9.66699 62 29l18 -24
c-53.333 -48.667 -106.666 -73 -159.999 -73c-82 0 -123 49 -123 147v257c0 20.667 -6.33301 36.667 -19 48s-30.167 17 -52.5 17s-44.333 -9 -66 -27s-32.5 -41.333 -32.5 -70v-357h-150v460c-30 0 -56.667 -5 -80 -15l-14 37c28.667 12 60 18 94 18zM-24.502 664.499
c-17 19.667 -25.501 39 -25.501 58s6.5 35 19.5 48s29 19.5 48 19.5s34.833 -7.33301 47.5 -22s19 -37 19 -67s-9.16699 -63.5 -27.5 -100.5s-44.166 -70.5 -77.499 -100.5l-22 22c29.333 34 44 64 44 90c0 15.333 -8.5 32.833 -25.5 52.5z" />
    <glyph glyph-name="Eng" unicode="&#x14a;" horiz-adv-x="770" 
d="M60 0v40h60v620h-60v40h234l286 -563v523h-60v40h190v-40h-60v-747c0 -52.667 -15 -95.5 -45 -128.5s-78.333 -49.5 -145 -49.5c-32.667 0 -63.834 6 -93.501 18s-54.167 28 -73.5 48l22 31c28.667 -24.667 62.334 -37 101.001 -37c68.667 0 103 33 103 99
c0 34.667 -9 70 -27 106l-302 592v-552h60v-40h-190z" />
    <glyph glyph-name="eng" unicode="&#x14b;" 
d="M594 368l-0.000976562 -455.001c0 -52.667 -15 -95.5 -45 -128.5s-78.333 -49.5 -145 -49.5c-32.667 0 -63.834 6 -93.501 18s-54.167 28 -73.5 48l22 31c28.667 -24.667 62.334 -37 101.001 -37c56 0 84 36.667 84 110v484c0 20.667 -6.33301 36.667 -19 48
s-30.167 17 -52.5 17s-44.333 -9 -66 -27s-32.5 -41.333 -32.5 -70v-357h-150v460c-30 0 -56.667 -5 -80 -15l-14 37c28.667 12 60 18 94 18c54.667 0 104 -16.667 148 -50c25.333 24 51.333 40.833 78 50.5s60.834 14.5 102.501 14.5s75.667 -13.167 102 -39.5
s39.5 -62.166 39.5 -107.499z" />
    <glyph glyph-name="Omacron" unicode="&#x14c;" horiz-adv-x="768" 
d="M136.5 611.5c57.667 69 140 103.499 247 103.499s189.5 -34.333 247.5 -103s87 -156.167 87 -262.5s-29 -193.666 -87 -261.999s-140.5 -102.5 -247.5 -102.5s-189.333 34.167 -247 102.5s-86.5 155.5 -86.5 261.5s28.833 193.5 86.5 262.5zM384 667.999
c-39.333 0 -72.667 -15.333 -100 -46c-52.667 -57.333 -79 -148.333 -79 -273c0 -124 26.333 -214.333 79 -271c28 -30.667 61.333 -46 100 -46c57.333 0 101.5 30.667 132.5 92s46.5 136.5 46.5 225.5s-15.5 164.333 -46.5 226s-75.167 92.5 -132.5 92.5zM236.999 899.999
h294v-88h-294v88z" />
    <glyph glyph-name="omacron" unicode="&#x14d;" horiz-adv-x="660" 
d="M65 250c0 74.667 24.5 137.5 73.5 188.5s112.833 76.5 191.5 76.5s142.5 -25.5 191.5 -76.5s73.5 -113.833 73.5 -188.5s-24.5 -137.5 -73.5 -188.5s-112.833 -76.5 -191.5 -76.5s-142.5 25.5 -191.5 76.5s-73.5 113.833 -73.5 188.5zM220 250
c0 -65.333 9.33301 -118.833 28 -160.5s46.334 -62.5 83.001 -62.5s64.334 20.833 83.001 62.5s28 95.167 28 160.5s-9.33301 118.833 -28 160.5s-46.334 62.5 -83.001 62.5s-64.334 -20.833 -83.001 -62.5s-28 -95.167 -28 -160.5zM183 700h294v-88h-294v88z" />
    <glyph glyph-name="Obreve" unicode="&#x14e;" horiz-adv-x="768" 
d="M136.5 611.5c57.667 69 140 103.499 247 103.499s189.5 -34.333 247.5 -103s87 -156.167 87 -262.5s-29 -193.666 -87 -261.999s-140.5 -102.5 -247.5 -102.5s-189.333 34.167 -247 102.5s-86.5 155.5 -86.5 261.5s28.833 193.5 86.5 262.5zM384 667.999
c-39.333 0 -72.667 -15.333 -100 -46c-52.667 -57.333 -79 -148.333 -79 -273c0 -124 26.333 -214.333 79 -271c28 -30.667 61.333 -46 100 -46c57.333 0 101.5 30.667 132.5 92s46.5 136.5 46.5 225.5s-15.5 164.333 -46.5 226s-75.167 92.5 -132.5 92.5zM343.999 877.999
c12.667 -5.33301 26.832 -8.00098 42.499 -8.00098s32.334 6 50.001 18s30.5 22.833 38.5 32.5s18 22.834 30 39.501l45 -29c-33.333 -60.667 -62.333 -102.834 -87 -126.501s-51 -35.5 -79 -35.5s-54.333 11.833 -79 35.5s-53.667 65.834 -87 126.501l44 29
c32.667 -44.667 60 -72 82 -82z" />
    <glyph glyph-name="obreve" unicode="&#x14f;" horiz-adv-x="660" 
d="M65 250c0 74.667 24.5 137.5 73.5 188.5s112.833 76.5 191.5 76.5s142.5 -25.5 191.5 -76.5s73.5 -113.833 73.5 -188.5s-24.5 -137.5 -73.5 -188.5s-112.833 -76.5 -191.5 -76.5s-142.5 25.5 -191.5 76.5s-73.5 113.833 -73.5 188.5zM220 250
c0 -65.333 9.33301 -118.833 28 -160.5s46.334 -62.5 83.001 -62.5s64.334 20.833 83.001 62.5s28 95.167 28 160.5s-9.33301 118.833 -28 160.5s-46.334 62.5 -83.001 62.5s-64.334 -20.833 -83.001 -62.5s-28 -95.167 -28 -160.5zM290 678
c12.667 -5.33301 26.832 -8.00098 42.499 -8.00098s32.334 6 50.001 18s30.5 22.833 38.5 32.5s18 22.834 30 39.501l45 -29c-33.333 -60.667 -62.333 -102.834 -87 -126.501s-51 -35.5 -79 -35.5s-54.333 11.833 -79 35.5s-53.667 65.834 -87 126.501l44 29
c32.667 -44.667 60 -72 82 -82z" />
    <glyph glyph-name="Ohungarumlaut" unicode="&#x150;" horiz-adv-x="768" 
d="M136.5 611.5c57.667 69 140 103.499 247 103.499s189.5 -34.333 247.5 -103s87 -156.167 87 -262.5s-29 -193.666 -87 -261.999s-140.5 -102.5 -247.5 -102.5s-189.333 34.167 -247 102.5s-86.5 155.5 -86.5 261.5s28.833 193.5 86.5 262.5zM384 667.999
c-39.333 0 -72.667 -15.333 -100 -46c-52.667 -57.333 -79 -148.333 -79 -273c0 -124 26.333 -214.333 79 -271c28 -30.667 61.333 -46 100 -46c57.333 0 101.5 30.667 132.5 92s46.5 136.5 46.5 225.5s-15.5 164.333 -46.5 226s-75.167 92.5 -132.5 92.5zM337.499 952.999
c11 8 23.832 12 38.499 12s26.834 -4.16699 36.501 -12.5s14.5 -19.5 14.5 -33.5c0 -22.667 -16 -45.667 -48 -69l-125 -91l-24 23l73 128c12 20.667 23.5 35 34.5 43zM527.498 952.999c11 8 23.832 12 38.499 12s26.834 -4.16699 36.501 -12.5s14.5 -19.5 14.5 -33.5
c0 -22.667 -16 -45.667 -48 -69l-125 -91l-24 23l73 128c12 20.667 23.5 35 34.5 43z" />
    <glyph glyph-name="ohungarumlaut" unicode="&#x151;" horiz-adv-x="660" 
d="M65 250c0 74.667 24.5 137.5 73.5 188.5s112.833 76.5 191.5 76.5s142.5 -25.5 191.5 -76.5s73.5 -113.833 73.5 -188.5s-24.5 -137.5 -73.5 -188.5s-112.833 -76.5 -191.5 -76.5s-142.5 25.5 -191.5 76.5s-73.5 113.833 -73.5 188.5zM220 250
c0 -65.333 9.33301 -118.833 28 -160.5s46.334 -62.5 83.001 -62.5s64.334 20.833 83.001 62.5s28 95.167 28 160.5s-9.33301 118.833 -28 160.5s-46.334 62.5 -83.001 62.5s-64.334 -20.833 -83.001 -62.5s-28 -95.167 -28 -160.5zM283.5 753c11 8 23.832 12 38.499 12
s26.834 -4.16699 36.501 -12.5s14.5 -19.5 14.5 -33.5c0 -22.667 -16 -45.667 -48 -69l-125 -91l-24 23l73 128c12 20.667 23.5 35 34.5 43zM473.499 753c11 8 23.832 12 38.499 12s26.834 -4.16699 36.501 -12.5s14.5 -19.5 14.5 -33.5c0 -22.667 -16 -45.667 -48 -69
l-125 -91l-24 23l73 128c12 20.667 23.5 35 34.5 43z" />
    <glyph glyph-name="OE" unicode="&#x152;" horiz-adv-x="973" 
d="M623 273l0.000976562 -233.003h90c43.333 0 73.166 4.33301 89.499 13s27.833 28 34.5 58l20 89h39l27 -158c0 -13.333 -3 -23.166 -9 -29.499s-12.5 -10 -19.5 -11s-17.833 -1.5 -32.5 -1.5h-449c-116.667 0 -206.334 32.833 -269.001 98.5s-94 149.334 -94 251.001
s31.333 185.5 94 251.5s152.334 99 269.001 99h429c14.667 0 25.5 -0.5 32.5 -1.5s13.5 -4.66699 19.5 -11s9 -16.166 9 -29.499l-27 -168h-39l-20 99c-6 30 -17.167 49.333 -33.5 58s-46.5 13 -90.5 13h-70v-342h230v-45h-230zM413.001 39.9971h60v620h-60
c-68 0 -119.667 -29.5 -155 -88.5s-53 -133.167 -53 -222.5c0 -122 30.333 -210.333 91 -265c32 -29.333 71 -44 117 -44z" />
    <glyph glyph-name="oe" unicode="&#x153;" horiz-adv-x="974" 
d="M751.5 280.5c23.667 29 35.5039 58.333 35.5039 88s-6.5 52.5 -19.5 68.5s-33 24 -60 24s-53.333 -18.667 -79 -56s-38.5 -87.5 -38.5 -150.5s12.167 -113.333 36.5 -151s58.166 -56.5 101.499 -56.5c64 0 118.333 25 163 75l28 -18
c-22.667 -36 -52.667 -64.833 -90 -86.5s-79.333 -32.5 -126 -32.5c-74.667 0 -136.334 24.333 -185.001 73c-48.667 -48.667 -111.834 -73 -189.501 -73s-141 25.5 -190 76.5s-73.5 113.833 -73.5 188.5s24.5 137.5 73.5 188.5s112.333 76.5 190 76.5
s141.167 -24.667 190.5 -74c51.333 49.333 120.666 74 207.999 74c58.667 0 104.667 -13.667 138 -41s50 -62 50 -104s-18.5 -80.833 -55.5 -116.5s-85.833 -53.5 -146.5 -53.5c-20.667 0 -40.667 2.33301 -60 7l-2 24c43.333 4 76.833 20.5 100.5 49.5zM220.004 250
c0 -65.333 9.33301 -118.833 28 -160.5s46.667 -62.5 84 -62.5s65.833 20.333 85.5 61s29.5 94.667 29.5 162s-9.83301 121.333 -29.5 162s-48.167 61 -85.5 61s-65.333 -20.833 -84 -62.5s-28 -95.167 -28 -160.5z" />
    <glyph glyph-name="Racute" unicode="&#x154;" horiz-adv-x="695" 
d="M70 660l0.00292969 40h220c162 0 264.667 -37.333 308 -112c16.667 -29.333 25 -65 25 -107c0 -97.333 -55.333 -162.666 -166 -195.999c42 -14 70 -43 84 -87l30 -100c4.66699 -16.667 10.667 -28.334 18 -35.001s19.666 -10 36.999 -10s37.666 9.66699 60.999 29
l18 -24c-53.333 -48.667 -110 -73 -170 -73c-30.667 0 -55.334 5.33301 -74.001 16s-32 29.334 -40 56.001l-47 154c-6 19.333 -15.333 32.666 -28 39.999s-34.667 11.333 -66 12v-223h80v-40h-290v40h60v620h-60zM290.003 660h-10v-357h10
c52.667 0 96.334 15.5 131.001 46.5s52 74.833 52 131.5s-17.333 100.667 -52 132s-78.334 47 -131.001 47zM387.503 958c9 4.66699 20 6.99805 33 6.99805s25 -4.83301 36 -14.5s16.5 -22.167 16.5 -37.5s-6 -28.833 -18 -40.5s-33.667 -25.167 -65 -40.5l-148 -73l-21 24
l119 132c11.333 12.667 19.833 21.834 25.5 27.501s13 10.834 22 15.501z" />
    <glyph glyph-name="racute" unicode="&#x155;" horiz-adv-x="536" 
d="M393 515c20 0 29.998 -19 29.998 -57v-347c0 -18 4.33301 -32.167 13 -42.5s22 -15.5 40 -15.5s38.667 9.66699 62 29l18 -24c-53.333 -48.667 -106.666 -73 -159.999 -73c-82 0 -123 49 -123 147v281c-31.333 -12.667 -69.333 -21.334 -114 -26.001
c-5.33301 -61.333 -23 -122.666 -53 -183.999l-41 12c18.667 47.333 28.667 103.666 30 168.999c-25.333 0 -45.833 7.33301 -61.5 22s-23.5 32.834 -23.5 54.501s7.5 40 22.5 55s33.333 22.5 55 22.5s39.834 -7.66699 54.501 -23s22 -35 22 -59h19
c52.667 0 108.667 14.667 168 44c19.333 10 33.333 15 42 15zM333.498 758c9 4.66699 20 6.99805 33 6.99805s25 -4.83301 36 -14.5s16.5 -22.167 16.5 -37.5s-6 -28.833 -18 -40.5s-33.667 -25.167 -65 -40.5l-148 -73l-21 24l119 132
c11.333 12.667 19.833 21.834 25.5 27.501s13 10.834 22 15.501z" />
    <glyph glyph-name="uni0156" unicode="&#x156;" horiz-adv-x="695" 
d="M70 660l0.00292969 40h220c162 0 264.667 -37.333 308 -112c16.667 -29.333 25 -65 25 -107c0 -97.333 -55.333 -162.666 -166 -195.999c42 -14 70 -43 84 -87l30 -100c4.66699 -16.667 10.667 -28.334 18 -35.001s19.666 -10 36.999 -10s37.666 9.66699 60.999 29
l18 -24c-53.333 -48.667 -110 -73 -170 -73c-30.667 0 -55.334 5.33301 -74.001 16s-32 29.334 -40 56.001l-47 154c-6 19.333 -15.333 32.666 -28 39.999s-34.667 11.333 -66 12v-223h80v-40h-290v40h60v620h-60zM290.003 660h-10v-357h10
c52.667 0 96.334 15.5 131.001 46.5s52 74.833 52 131.5s-17.333 100.667 -52 132s-78.334 47 -131.001 47zM317.503 -179.5c-17 19.667 -25.501 39 -25.501 58s6.5 35 19.5 48s29 19.5 48 19.5s34.833 -7.33301 47.5 -22s19 -37 19 -67s-9.16699 -63.5 -27.5 -100.5
s-44.166 -70.5 -77.499 -100.5l-22 22c29.333 34 44 64 44 90c0 15.333 -8.5 32.833 -25.5 52.5z" />
    <glyph glyph-name="uni0157" unicode="&#x157;" horiz-adv-x="536" 
d="M393 515c20 0 29.998 -19 29.998 -57v-347c0 -18 4.33301 -32.167 13 -42.5s22 -15.5 40 -15.5s38.667 9.66699 62 29l18 -24c-53.333 -48.667 -106.666 -73 -159.999 -73c-82 0 -123 49 -123 147v281c-31.333 -12.667 -69.333 -21.334 -114 -26.001
c-5.33301 -61.333 -23 -122.666 -53 -183.999l-41 12c18.667 47.333 28.667 103.666 30 168.999c-25.333 0 -45.833 7.33301 -61.5 22s-23.5 32.834 -23.5 54.501s7.5 40 22.5 55s33.333 22.5 55 22.5s39.834 -7.66699 54.501 -23s22 -35 22 -59h19
c52.667 0 108.667 14.667 168 44c19.333 10 33.333 15 42 15zM177.498 -179.5c-17 19.667 -25.501 39 -25.501 58s6.5 35 19.5 48s29 19.5 48 19.5s34.833 -7.33301 47.5 -22s19 -37 19 -67s-9.16699 -63.5 -27.5 -100.5s-44.166 -70.5 -77.499 -100.5l-22 22
c29.333 34 44 64 44 90c0 15.333 -8.5 32.833 -25.5 52.5z" />
    <glyph glyph-name="Rcaron" unicode="&#x158;" horiz-adv-x="695" 
d="M70 660l0.00292969 40h220c162 0 264.667 -37.333 308 -112c16.667 -29.333 25 -65 25 -107c0 -97.333 -55.333 -162.666 -166 -195.999c42 -14 70 -43 84 -87l30 -100c4.66699 -16.667 10.667 -28.334 18 -35.001s19.666 -10 36.999 -10s37.666 9.66699 60.999 29
l18 -24c-53.333 -48.667 -110 -73 -170 -73c-30.667 0 -55.334 5.33301 -74.001 16s-32 29.334 -40 56.001l-47 154c-6 19.333 -15.333 32.666 -28 39.999s-34.667 11.333 -66 12v-223h80v-40h-290v40h60v620h-60zM290.003 660h-10v-357h10
c52.667 0 96.334 15.5 131.001 46.5s52 74.833 52 131.5s-17.333 100.667 -52 132s-78.334 47 -131.001 47zM347.003 759c-20 0 -39.333 12.667 -58 38l-108 144l21 24l141 -95h8l141 95l21 -24l-108 -144c-18.667 -25.333 -38 -38 -58 -38z" />
    <glyph glyph-name="rcaron" unicode="&#x159;" horiz-adv-x="536" 
d="M393 515c20 0 29.998 -19 29.998 -57v-347c0 -18 4.33301 -32.167 13 -42.5s22 -15.5 40 -15.5s38.667 9.66699 62 29l18 -24c-53.333 -48.667 -106.666 -73 -159.999 -73c-82 0 -123 49 -123 147v281c-31.333 -12.667 -69.333 -21.334 -114 -26.001
c-5.33301 -61.333 -23 -122.666 -53 -183.999l-41 12c18.667 47.333 28.667 103.666 30 168.999c-25.333 0 -45.833 7.33301 -61.5 22s-23.5 32.834 -23.5 54.501s7.5 40 22.5 55s33.333 22.5 55 22.5s39.834 -7.66699 54.501 -23s22 -35 22 -59h19
c52.667 0 108.667 14.667 168 44c19.333 10 33.333 15 42 15zM272.998 559c-20 0 -39.333 12.667 -58 38l-108 144l21 24l141 -95h8l141 95l21 -24l-108 -144c-18.667 -25.333 -38 -38 -58 -38z" />
    <glyph glyph-name="Sacute" unicode="&#x15a;" horiz-adv-x="570" 
d="M139 129c0 -26 12.665 -48.668 37.998 -68.001s58 -29 98 -29s71.667 9.66699 95 29s35 45 35 77c0 40.667 -24.333 74.334 -73 101.001l-148 79c-85.333 46 -128 111.667 -128 197c0 54.667 20 101.667 60 141s99.667 59 179 59c53.333 0 104 -10.667 152 -32
s72 -46.666 72 -75.999c0 -11.333 -3.66699 -24.333 -11 -39l-48 -92l-35 11v84c0 30 -13.167 53.667 -39.5 71s-57.666 26 -93.999 26s-64.166 -10.667 -83.499 -32s-29 -45.666 -29 -72.999c0 -54.667 24.667 -95 74 -121l127 -67
c96.667 -50.667 145 -117.334 145 -200.001c0 -62.667 -23.5 -110 -70.5 -142s-106.5 -48 -178.5 -48c-54 0 -106 10.667 -156 32s-75 46.666 -75 75.999c0 11.333 3.66699 24.333 11 39l48 92l35 -11v-84zM338.498 957.999c9 4.66699 20 6.99805 33 6.99805
s25 -4.83301 36 -14.5s16.5 -22.167 16.5 -37.5s-6 -28.833 -18 -40.5s-33.667 -25.167 -65 -40.5l-148 -73l-21 24l119 132c11.333 12.667 19.833 21.834 25.5 27.501s13 10.834 22 15.501z" />
    <glyph glyph-name="sacute" unicode="&#x15b;" horiz-adv-x="474" 
d="M175 418c-16 24.667 -24 46.666 -24 65.999s7.5 36.5 22.5 51.5s33.167 22.5 54.5 22.5s39.5 -7.5 54.5 -22.5s22.5 -32.833 22.5 -53.5s-10.333 -42.667 -31 -66c54.667 -40 96.667 -79.167 126 -117.5s44 -82.666 44 -132.999s-19 -93 -57 -128s-92 -52.5 -162 -52.5
c-32 0 -64.167 7 -96.5 21s-56.833 31.333 -73.5 52l23 24c29.333 -23.333 61 -35 95 -35s61.833 9.16699 83.5 27.5s32.5 46.833 32.5 85.5c0 61.333 -22.667 125.333 -68 192l-151 -189l-25 22c50.667 82 94 159.667 130 233zM275.5 757.999
c9 4.66699 20 6.99805 33 6.99805s25 -4.83301 36 -14.5s16.5 -22.167 16.5 -37.5s-6 -28.833 -18 -40.5s-33.667 -25.167 -65 -40.5l-148 -73l-21 24l119 132c11.333 12.667 19.833 21.834 25.5 27.501s13 10.834 22 15.501z" />
    <glyph glyph-name="Scircumflex" unicode="&#x15c;" horiz-adv-x="570" 
d="M139 129c0 -26 12.665 -48.668 37.998 -68.001s58 -29 98 -29s71.667 9.66699 95 29s35 45 35 77c0 40.667 -24.333 74.334 -73 101.001l-148 79c-85.333 46 -128 111.667 -128 197c0 54.667 20 101.667 60 141s99.667 59 179 59c53.333 0 104 -10.667 152 -32
s72 -46.666 72 -75.999c0 -11.333 -3.66699 -24.333 -11 -39l-48 -92l-35 11v84c0 30 -13.167 53.667 -39.5 71s-57.666 26 -93.999 26s-64.166 -10.667 -83.499 -32s-29 -45.666 -29 -72.999c0 -54.667 24.667 -95 74 -121l127 -67
c96.667 -50.667 145 -117.334 145 -200.001c0 -62.667 -23.5 -110 -70.5 -142s-106.5 -48 -178.5 -48c-54 0 -106 10.667 -156 32s-75 46.666 -75 75.999c0 11.333 3.66699 24.333 11 39l48 92l35 -11v-84zM294.998 964.999c20 0 39.333 -12.667 58 -38l108 -144l-21 -24
l-141 95h-8l-141 -95l-21 24l108 144c18.667 25.333 38 38 58 38z" />
    <glyph glyph-name="scircumflex" unicode="&#x15d;" horiz-adv-x="474" 
d="M175 418c-16 24.667 -24 46.666 -24 65.999s7.5 36.5 22.5 51.5s33.167 22.5 54.5 22.5s39.5 -7.5 54.5 -22.5s22.5 -32.833 22.5 -53.5s-10.333 -42.667 -31 -66c54.667 -40 96.667 -79.167 126 -117.5s44 -82.666 44 -132.999s-19 -93 -57 -128s-92 -52.5 -162 -52.5
c-32 0 -64.167 7 -96.5 21s-56.833 31.333 -73.5 52l23 24c29.333 -23.333 61 -35 95 -35s61.833 9.16699 83.5 27.5s32.5 46.833 32.5 85.5c0 61.333 -22.667 125.333 -68 192l-151 -189l-25 22c50.667 82 94 159.667 130 233zM231 764.999c20 0 39.333 -12.667 58 -38
l108 -144l-21 -24l-141 95h-8l-141 -95l-21 24l108 144c18.667 25.333 38 38 58 38z" />
    <glyph glyph-name="Scedilla" unicode="&#x15e;" horiz-adv-x="570" 
d="M139 129c0 -26 12.666 -48.668 37.999 -68.001s58 -29 98 -29s71.667 9.66699 95 29s35 45 35 77c0 40.667 -24.333 74.334 -73 101.001l-148 79c-85.333 46 -128 111.667 -128 197c0 54.667 20 101.667 60 141s99.667 59 179 59c53.333 0 104 -10.667 152 -32
s72 -46.666 72 -75.999c0 -11.333 -3.66699 -24.333 -11 -39l-48 -92l-35 11v84c0 30 -13.167 53.667 -39.5 71s-57.666 26 -93.999 26s-64.166 -10.667 -83.499 -32s-29 -45.666 -29 -72.999c0 -54.667 24.667 -95 74 -121l127 -67
c96.667 -50.667 145 -117.334 145 -200.001c0 -61.333 -23 -108 -69 -140s-104.333 -48.667 -175 -50l-30 -62c11.333 4.66699 25 7 41 7c31.333 0 56.666 -9 75.999 -27s29 -40.667 29 -68s-11.5 -50.833 -34.5 -70.5s-50.833 -29.5 -83.5 -29.5s-59.5 6 -80.5 18
s-31.5 29 -31.5 51c0 11.333 4 21 12 29s17.5 12 28.5 12s20.667 -4.16699 29 -12.5s12.5 -18.833 12.5 -31.5s-6 -23.334 -18 -32.001c5.33301 -1.33301 10.333 -2 15 -2c19.333 0 34.833 6 46.5 18s17.5 26.167 17.5 42.5s-6.33301 30.833 -19 43.5s-30.667 19 -54 19
l-22 17l37 79c-52 4 -99.5 16 -142.5 36s-64.5 43.667 -64.5 71c0 11.333 3.66699 24.333 11 39l48 92l35 -11v-84z" />
    <glyph glyph-name="scedilla" unicode="&#x15f;" horiz-adv-x="474" 
d="M175 418c-16 24.667 -23.998 46.668 -23.998 66.001s7.5 36.5 22.5 51.5s33.167 22.5 54.5 22.5s39.5 -7.5 54.5 -22.5s22.5 -32.833 22.5 -53.5s-10.333 -42.667 -31 -66c54.667 -40 96.667 -79.167 126 -117.5s44 -82.166 44 -131.499s-18 -91.333 -54 -126
s-87 -53.334 -153 -56.001l-30 -62c11.333 4.66699 25 7 41 7c31.333 0 56.666 -9 75.999 -27s29 -40.667 29 -68s-11.5 -50.833 -34.5 -70.5s-50.833 -29.5 -83.5 -29.5s-59.5 6 -80.5 18s-31.5 29 -31.5 51c0 11.333 4 21 12 29s17.5 12 28.5 12s20.667 -4.16699 29 -12.5
s12.5 -18.833 12.5 -31.5s-6 -23.334 -18 -32.001c5.33301 -1.33301 10.333 -2 15 -2c19.333 0 34.833 6 46.5 18s17.5 26.167 17.5 42.5s-6.33301 30.833 -19 43.5s-30.667 19 -54 19l-22 17l37 79c-30 2.66699 -59.333 10.667 -88 24s-50.334 29.333 -65.001 48l23 24
c29.333 -23.333 61 -35 95 -35s61.833 9.16699 83.5 27.5s32.5 46.833 32.5 85.5c0 61.333 -22.667 125.333 -68 192l-151 -189l-25 22c50.667 82 94 159.667 130 233z" />
    <glyph glyph-name="Scaron" unicode="&#x160;" horiz-adv-x="570" 
d="M139 129c0 -26 12.665 -48.668 37.998 -68.001s58 -29 98 -29s71.667 9.66699 95 29s35 45 35 77c0 40.667 -24.333 74.334 -73 101.001l-148 79c-85.333 46 -128 111.667 -128 197c0 54.667 20 101.667 60 141s99.667 59 179 59c53.333 0 104 -10.667 152 -32
s72 -46.666 72 -75.999c0 -11.333 -3.66699 -24.333 -11 -39l-48 -92l-35 11v84c0 30 -13.167 53.667 -39.5 71s-57.666 26 -93.999 26s-64.166 -10.667 -83.499 -32s-29 -45.666 -29 -72.999c0 -54.667 24.667 -95 74 -121l127 -67
c96.667 -50.667 145 -117.334 145 -200.001c0 -62.667 -23.5 -110 -70.5 -142s-106.5 -48 -178.5 -48c-54 0 -106 10.667 -156 32s-75 46.666 -75 75.999c0 11.333 3.66699 24.333 11 39l48 92l35 -11v-84zM284.998 758.999c-20 0 -39.333 12.667 -58 38l-108 144l21 24
l141 -95h8l141 95l21 -24l-108 -144c-18.667 -25.333 -38 -38 -58 -38z" />
    <glyph glyph-name="scaron" unicode="&#x161;" horiz-adv-x="474" 
d="M175 418c-16 24.667 -24 46.666 -24 65.999s7.5 36.5 22.5 51.5s33.167 22.5 54.5 22.5s39.5 -7.5 54.5 -22.5s22.5 -32.833 22.5 -53.5s-10.333 -42.667 -31 -66c54.667 -40 96.667 -79.167 126 -117.5s44 -82.666 44 -132.999s-19 -93 -57 -128s-92 -52.5 -162 -52.5
c-32 0 -64.167 7 -96.5 21s-56.833 31.333 -73.5 52l23 24c29.333 -23.333 61 -35 95 -35s61.833 9.16699 83.5 27.5s32.5 46.833 32.5 85.5c0 61.333 -22.667 125.333 -68 192l-151 -189l-25 22c50.667 82 94 159.667 130 233zM234 578.999c-20 0 -39.333 12.667 -58 38
l-108 144l21 24l141 -95h8l141 95l21 -24l-108 -144c-18.667 -25.333 -38 -38 -58 -38z" />
    <glyph glyph-name="uni0162" unicode="&#x162;" horiz-adv-x="620" 
d="M395 660l-9.99902 0.000976562v-620h100v-40h-168l-38 -77c11.333 4.66699 25 7 41 7c31.333 0 56.666 -9 75.999 -27s29 -40.667 29 -68s-11.5 -50.833 -34.5 -70.5s-50.833 -29.5 -83.5 -29.5s-59.5 6 -80.5 18s-31.5 29 -31.5 51c0 11.333 4 21 12 29s17.5 12 28.5 12
s20.667 -4.16699 29 -12.5s12.5 -18.833 12.5 -31.5s-6 -23.334 -18 -32.001c5.33301 -1.33301 10.333 -2 15 -2c19.333 0 34.833 6 46.5 18s17.5 26.167 17.5 42.5s-6.33301 30.833 -19 43.5s-30.667 19 -54 19l-22 17l44 93h-152v40h100v620h-10
c-44 0 -74.167 -4.33301 -90.5 -13s-27.5 -28 -33.5 -58l-20 -99h-39l-27 168c0 13.333 3 23.166 9 29.499s12.5 10 19.5 11s17.833 1.5 32.5 1.5h468c14.667 0 25.5 -0.5 32.5 -1.5s13.5 -4.66699 19.5 -11s9 -16.166 9 -29.499l-27 -168h-39l-20 99
c-6 30 -17.167 49.333 -33.5 58s-46.5 13 -90.5 13z" />
    <glyph glyph-name="uni0163" unicode="&#x163;" horiz-adv-x="424" 
d="M39 445v41.002h82v144h150v-144h113v-41h-113v-334c0 -18 4.33301 -32.167 13 -42.5s22 -15.5 40 -15.5s38.667 9.66699 62 29l18 -24c-53.333 -48.667 -106.666 -73 -159.999 -73c-12 0 -22.333 1 -31 3l-32 -65c11.333 4.66699 25 7 41 7
c31.333 0 56.666 -9 75.999 -27s29 -40.667 29 -68s-11.5 -50.833 -34.5 -70.5s-50.833 -29.5 -83.5 -29.5s-59.5 6 -80.5 18s-31.5 29 -31.5 51c0 11.333 4 21 12 29s17.5 12 28.5 12s20.667 -4.16699 29 -12.5s12.5 -18.833 12.5 -31.5s-6 -23.334 -18 -32.001
c5.33301 -1.33301 10.333 -2 15 -2c19.333 0 34.833 6 46.5 18s17.5 26.167 17.5 42.5s-6.33301 30.833 -19 43.5s-30.667 19 -54 19l-22 17l42 89c-44 19.333 -66 64.666 -66 135.999v313h-82z" />
    <glyph glyph-name="Tcaron" unicode="&#x164;" horiz-adv-x="620" 
d="M395 660h-10v-620h100v-40h-350v40h100v620h-10c-44 0 -74.167 -4.33301 -90.5 -13s-27.5 -28 -33.5 -58l-20 -99h-39l-27 168c0 13.333 3 23.166 9 29.499s12.5 10 19.5 11s17.833 1.5 32.5 1.5h468c14.667 0 25.5 -0.5 32.5 -1.5s13.5 -4.66699 19.5 -11
s9 -16.166 9 -29.499l-27 -168h-39l-20 99c-6 30 -17.167 49.333 -33.5 58s-46.5 13 -90.5 13zM310 759c-20 0 -39.333 12.667 -58 38l-108 144l21 24l141 -95h8l141 95l21 -24l-108 -144c-18.667 -25.333 -38 -38 -58 -38z" />
    <glyph glyph-name="tcaron" unicode="&#x165;" horiz-adv-x="424" 
d="M39 445l-0.000976562 41h82v144h150v-144h82v-41h-82v-334c0 -18 4.33301 -32.167 13 -42.5s22 -15.5 40 -15.5s38.667 9.66699 62 29l18 -24c-53.333 -48.667 -106.666 -73 -159.999 -73c-82 0 -123 49 -123 147v313h-82zM352.499 664.5
c-17 19.667 -25.501 39 -25.501 58s6.5 35 19.5 48s29 19.5 48 19.5s34.833 -7.33301 47.5 -22s19 -37 19 -67s-9.16699 -63.5 -27.5 -100.5s-44.166 -70.5 -77.499 -100.5l-22 22c29.333 34 44 64 44 90c0 15.333 -8.5 32.833 -25.5 52.5z" />
    <glyph glyph-name="Tbar" unicode="&#x166;" horiz-adv-x="620" 
d="M123 302v45h112v313h-10c-44 0 -74.167 -4.33301 -90.5 -13s-27.5 -28 -33.5 -58l-20 -99h-39l-27 168c0 13.333 3 23.166 9 29.499s12.5 10 19.5 11s17.833 1.5 32.5 1.5h468c14.667 0 25.5 -0.5 32.5 -1.5s13.5 -4.66699 19.5 -11s9 -16.166 9 -29.499l-27 -168h-39
l-20 99c-6 30 -17.167 49.333 -33.5 58s-46.5 13 -90.5 13h-10v-313h113v-45h-113v-262h100v-40h-350v40h100v262h-112z" />
    <glyph glyph-name="tbar" unicode="&#x167;" horiz-adv-x="424" 
d="M6 273l-0.000976562 45h115v127h-82v41h82v144h150v-144h113v-41h-113v-127h115v-45h-115v-162c0 -18 4.33301 -32.167 13 -42.5s22 -15.5 40 -15.5s38.667 9.66699 62 29l18 -24c-53.333 -48.667 -106.666 -73 -159.999 -73c-82 0 -123 49 -123 147v141h-115z" />
    <glyph glyph-name="Utilde" unicode="&#x168;" horiz-adv-x="700" 
d="M485 660v40.001h190v-40h-60v-419c0 -48 -7.16699 -89.333 -21.5 -124s-34.166 -61.334 -59.499 -80.001c-47.333 -34.667 -106.333 -52 -177 -52s-130.334 17.667 -179.001 53c-26 18 -46.333 44.333 -61 79s-22 76.334 -22 125.001v418h-60v40h270v-40h-60v-450
c0 -52 14 -92 42 -120s62.5 -42 103.5 -42s77 14.167 108 42.5s46.5 68.166 46.5 119.499v450h-60zM502 809.001v15c0 26 -9.33301 39 -28 39c-8 0 -15.667 -2.33301 -23 -7l-85 -48c-21.333 -12.667 -41.333 -19 -60 -19s-35.5 8.66699 -50.5 26s-22.5 37.5 -22.5 60.5
s2.66699 45.167 8 66.5h36v-15c0 -26 9.33301 -39 28 -39c8 0 15.667 2.33301 23 7l85 48c21.333 12.667 41.333 19 60 19s35.5 -8.66699 50.5 -26s22.5 -37.5 22.5 -60.5s-2.66699 -45.167 -8 -66.5h-36z" />
    <glyph glyph-name="utilde" unicode="&#x169;" 
d="M274 454l-0.00195312 -343c0 -20.667 6.33301 -36.667 19 -48s30.334 -17 53.001 -17s44.667 9.33301 66 28s32 43 32 73v353h150v-389c0 -18 4.33301 -32.167 13 -42.5s22 -15.5 40 -15.5s38.667 9.66699 62 29l18 -24c-53.333 -48.667 -107.666 -73 -162.999 -73
s-92 24.667 -110 74c-26 -27.333 -52.833 -46.5 -80.5 -57.5s-63 -16.5 -106 -16.5s-77.667 13.167 -104 39.5s-39.5 62.166 -39.5 107.499v335c-36.667 -9.33301 -64.667 -25.666 -84 -48.999l-27 31c19.333 20 43.833 36 73.5 48s59 18 88 18s52.833 -5.83301 71.5 -17.5
s28 -26.167 28 -43.5zM465.998 609v15c0 26 -9.33301 39 -28 39c-8 0 -15.667 -2.33301 -23 -7l-85 -48c-21.333 -12.667 -41.333 -19 -60 -19s-35.5 8.66699 -50.5 26s-22.5 37.5 -22.5 60.5s2.66699 45.167 8 66.5h36v-15c0 -26 9.33301 -39 28 -39
c8 0 15.667 2.33301 23 7l85 48c21.333 12.667 41.333 19 60 19s35.5 -8.66699 50.5 -26s22.5 -37.5 22.5 -60.5s-2.66699 -45.167 -8 -66.5h-36z" />
    <glyph glyph-name="Umacron" unicode="&#x16a;" horiz-adv-x="700" 
d="M485 660v40.001h190v-40h-60v-419c0 -48 -7.16699 -89.333 -21.5 -124s-34.166 -61.334 -59.499 -80.001c-47.333 -34.667 -106.333 -52 -177 -52s-130.334 17.667 -179.001 53c-26 18 -46.333 44.333 -61 79s-22 76.334 -22 125.001v418h-60v40h270v-40h-60v-450
c0 -52 14 -92 42 -120s62.5 -42 103.5 -42s77 14.167 108 42.5s46.5 68.166 46.5 119.499v450h-60zM243 900.001h294v-88h-294v88z" />
    <glyph glyph-name="umacron" unicode="&#x16b;" 
d="M274 454l-0.00195312 -343c0 -20.667 6.33301 -36.667 19 -48s30.334 -17 53.001 -17s44.667 9.33301 66 28s32 43 32 73v353h150v-389c0 -18 4.33301 -32.167 13 -42.5s22 -15.5 40 -15.5s38.667 9.66699 62 29l18 -24c-53.333 -48.667 -107.666 -73 -162.999 -73
s-92 24.667 -110 74c-26 -27.333 -52.833 -46.5 -80.5 -57.5s-63 -16.5 -106 -16.5s-77.667 13.167 -104 39.5s-39.5 62.166 -39.5 107.499v335c-36.667 -9.33301 -64.667 -25.666 -84 -48.999l-27 31c19.333 20 43.833 36 73.5 48s59 18 88 18s52.833 -5.83301 71.5 -17.5
s28 -26.167 28 -43.5zM205.998 700h294v-88h-294v88z" />
    <glyph glyph-name="Ubreve" unicode="&#x16c;" horiz-adv-x="700" 
d="M485 660v40.001h190v-40h-60v-419c0 -48 -7.16699 -89.333 -21.5 -124s-34.166 -61.334 -59.499 -80.001c-47.333 -34.667 -106.333 -52 -177 -52s-130.334 17.667 -179.001 53c-26 18 -46.333 44.333 -61 79s-22 76.334 -22 125.001v418h-60v40h270v-40h-60v-450
c0 -52 14 -92 42 -120s62.5 -42 103.5 -42s77 14.167 108 42.5s46.5 68.166 46.5 119.499v450h-60zM350 878.001c12.667 -5.33301 26.832 -8.00098 42.499 -8.00098s32.334 6 50.001 18s30.5 22.833 38.5 32.5s18 22.834 30 39.501l45 -29
c-33.333 -60.667 -62.333 -102.834 -87 -126.501s-51 -35.5 -79 -35.5s-54.333 11.833 -79 35.5s-53.667 65.834 -87 126.501l44 29c32.667 -44.667 60 -72 82 -82z" />
    <glyph glyph-name="ubreve" unicode="&#x16d;" 
d="M274 454l-0.00195312 -343c0 -20.667 6.33301 -36.667 19 -48s30.334 -17 53.001 -17s44.667 9.33301 66 28s32 43 32 73v353h150v-389c0 -18 4.33301 -32.167 13 -42.5s22 -15.5 40 -15.5s38.667 9.66699 62 29l18 -24c-53.333 -48.667 -107.666 -73 -162.999 -73
s-92 24.667 -110 74c-26 -27.333 -52.833 -46.5 -80.5 -57.5s-63 -16.5 -106 -16.5s-77.667 13.167 -104 39.5s-39.5 62.166 -39.5 107.499v335c-36.667 -9.33301 -64.667 -25.666 -84 -48.999l-27 31c19.333 20 43.833 36 73.5 48s59 18 88 18s52.833 -5.83301 71.5 -17.5
s28 -26.167 28 -43.5zM312.998 678c12.667 -5.33301 26.832 -8.00098 42.499 -8.00098s32.334 6 50.001 18s30.5 22.833 38.5 32.5s18 22.834 30 39.501l45 -29c-33.333 -60.667 -62.333 -102.834 -87 -126.501s-51 -35.5 -79 -35.5s-54.333 11.833 -79 35.5
s-53.667 65.834 -87 126.501l44 29c32.667 -44.667 60 -72 82 -82z" />
    <glyph glyph-name="Uring" unicode="&#x16e;" horiz-adv-x="700" 
d="M485 660v40.001h190v-40h-60v-419c0 -48 -7.16699 -89.333 -21.5 -124s-34.166 -61.334 -59.499 -80.001c-47.333 -34.667 -106.333 -52 -177 -52s-130.334 17.667 -179.001 53c-26 18 -46.333 44.333 -61 79s-22 76.334 -22 125.001v418h-60v40h270v-40h-60v-450
c0 -52 14 -92 42 -120s62.5 -42 103.5 -42s77 14.167 108 42.5s46.5 68.166 46.5 119.499v450h-60zM298 785.001c-24.667 21.333 -37 49.5 -37 84.5s12.333 63.333 37 85s55.334 32.5 92.001 32.5s67.334 -10.833 92.001 -32.5s37 -50 37 -85s-12.333 -63.167 -37 -84.5
s-55.334 -32 -92.001 -32s-67.334 10.667 -92.001 32zM345 869.001c0 -55.333 14.833 -83 44.5 -83s44.5 27.667 44.5 83s-14.833 83 -44.5 83s-44.5 -27.667 -44.5 -83z" />
    <glyph glyph-name="uring" unicode="&#x16f;" 
d="M274 454l-0.00195312 -343c0 -20.667 6.33301 -36.667 19 -48s30.334 -17 53.001 -17s44.667 9.33301 66 28s32 43 32 73v353h150v-389c0 -18 4.33301 -32.167 13 -42.5s22 -15.5 40 -15.5s38.667 9.66699 62 29l18 -24c-53.333 -48.667 -107.666 -73 -162.999 -73
s-92 24.667 -110 74c-26 -27.333 -52.833 -46.5 -80.5 -57.5s-63 -16.5 -106 -16.5s-77.667 13.167 -104 39.5s-39.5 62.166 -39.5 107.499v335c-36.667 -9.33301 -64.667 -25.666 -84 -48.999l-27 31c19.333 20 43.833 36 73.5 48s59 18 88 18s52.833 -5.83301 71.5 -17.5
s28 -26.167 28 -43.5zM260.998 585c-24.667 21.333 -37 49.5 -37 84.5s12.333 63.333 37 85s55.334 32.5 92.001 32.5s67.334 -10.833 92.001 -32.5s37 -50 37 -85s-12.333 -63.167 -37 -84.5s-55.334 -32 -92.001 -32s-67.334 10.667 -92.001 32zM307.998 669
c0 -55.333 14.833 -83 44.5 -83s44.5 27.667 44.5 83s-14.833 83 -44.5 83s-44.5 -27.667 -44.5 -83z" />
    <glyph glyph-name="Uhungarumlaut" unicode="&#x170;" horiz-adv-x="700" 
d="M485 660v40.001h190v-40h-60v-419c0 -48 -7.16699 -89.333 -21.5 -124s-34.166 -61.334 -59.499 -80.001c-47.333 -34.667 -106.333 -52 -177 -52s-130.334 17.667 -179.001 53c-26 18 -46.333 44.333 -61 79s-22 76.334 -22 125.001v418h-60v40h270v-40h-60v-450
c0 -52 14 -92 42 -120s62.5 -42 103.5 -42s77 14.167 108 42.5s46.5 68.166 46.5 119.499v450h-60zM323.5 953.001c11 8 23.832 12 38.499 12s26.834 -4.16699 36.501 -12.5s14.5 -19.5 14.5 -33.5c0 -22.667 -16 -45.667 -48 -69l-125 -91l-24 23l73 128
c12 20.667 23.5 35 34.5 43zM513.499 953.001c11 8 23.832 12 38.499 12s26.834 -4.16699 36.501 -12.5s14.5 -19.5 14.5 -33.5c0 -22.667 -16 -45.667 -48 -69l-125 -91l-24 23l73 128c12 20.667 23.5 35 34.5 43z" />
    <glyph glyph-name="uhungarumlaut" unicode="&#x171;" 
d="M274 454l-0.00195312 -343c0 -20.667 6.33301 -36.667 19 -48s30.334 -17 53.001 -17s44.667 9.33301 66 28s32 43 32 73v353h150v-389c0 -18 4.33301 -32.167 13 -42.5s22 -15.5 40 -15.5s38.667 9.66699 62 29l18 -24c-53.333 -48.667 -107.666 -73 -162.999 -73
s-92 24.667 -110 74c-26 -27.333 -52.833 -46.5 -80.5 -57.5s-63 -16.5 -106 -16.5s-77.667 13.167 -104 39.5s-39.5 62.166 -39.5 107.499v335c-36.667 -9.33301 -64.667 -25.666 -84 -48.999l-27 31c19.333 20 43.833 36 73.5 48s59 18 88 18s52.833 -5.83301 71.5 -17.5
s28 -26.167 28 -43.5zM317.498 753c11 8 23.832 12 38.499 12s26.834 -4.16699 36.501 -12.5s14.5 -19.5 14.5 -33.5c0 -22.667 -16 -45.667 -48 -69l-125 -91l-24 23l73 128c12 20.667 23.5 35 34.5 43zM507.497 753c11 8 23.832 12 38.499 12
s26.834 -4.16699 36.501 -12.5s14.5 -19.5 14.5 -33.5c0 -22.667 -16 -45.667 -48 -69l-125 -91l-24 23l73 128c12 20.667 23.5 35 34.5 43z" />
    <glyph glyph-name="Uogonek" unicode="&#x172;" horiz-adv-x="700" 
d="M485 660l0.000976562 40h190v-40h-60v-419c0 -77.333 -17.5 -136 -52.5 -176s-81.167 -64.667 -138.5 -74c-24 -24.667 -40 -45.167 -48 -61.5s-12 -33.666 -12 -51.999s5.5 -32.333 16.5 -42s26.833 -14.5 47.5 -14.5s41 9.33301 61 28l17 -29
c-32 -38.667 -73.333 -58 -124 -58c-31.333 0 -57.333 7.83301 -78 23.5s-31 39.5 -31 71.5c0 16 5 32.167 15 48.5s20 29.166 30 38.499l49 41h-10c-70.667 0 -130.334 17.667 -179.001 53c-26 18 -46.333 44.333 -61 79s-22 76.334 -22 125.001v418h-60v40h270v-40h-60
v-450c0 -52 14 -92 42 -120s62.5 -42 103.5 -42s77 14.167 108 42.5s46.5 68.166 46.5 119.499v450h-60z" />
    <glyph glyph-name="uogonek" unicode="&#x173;" 
d="M274 454l-0.000976562 -343.003c0 -20.667 6.33301 -36.667 19 -48s30.334 -17 53.001 -17s44.667 9.33301 66 28s32 43 32 73v353h150v-389c0 -18 4.33301 -32.167 13 -42.5s22 -15.5 40 -15.5s38.667 9.66699 62 29l18 -24l-66 -66
c-25.333 -25.333 -42 -46.166 -50 -62.499s-12 -33.666 -12 -51.999s5.5 -32.333 16.5 -42s26.833 -14.5 47.5 -14.5s41 9.33301 61 28l17 -29c-32 -38.667 -73.333 -58 -124 -58c-31.333 0 -57.333 7.83301 -78 23.5s-31 37.334 -31 65.001s6.83301 51 20.5 70
s32.5 38.5 56.5 58.5l9 8c-12 -1.33301 -21 -2 -27 -2c-57.333 0 -95 24.667 -113 74c-26 -27.333 -52.833 -46.5 -80.5 -57.5s-63 -16.5 -106 -16.5s-77.667 13.167 -104 39.5s-39.5 62.166 -39.5 107.499v335c-36.667 -9.33301 -64.667 -25.666 -84 -48.999l-27 31
c19.333 20 43.833 36 73.5 48s59 18 88 18s52.833 -5.83301 71.5 -17.5s28 -26.167 28 -43.5z" />
    <glyph glyph-name="Wcircumflex" unicode="&#x174;" horiz-adv-x="1057" 
d="M25 660l0.000976562 40.001h211l35 -535c4.66699 -68 35.667 -102 93 -102c62 0 111.333 36.667 148 110c-2 10.667 -3.66699 28 -5 52l-28 435h-62v40h211l35 -535c4.66699 -68 35.667 -102 93 -102c38 0 71.333 16 100 48c55.333 62.667 83 155.667 83 279
c0 68.667 -12 129.667 -36 183c-12 26.667 -27.667 44.167 -47 52.5s-45 12.5 -77 12.5h-38l-6 37l104 35c11.333 3.33301 21.333 5 30 5s16 -1.33301 22 -4c24 -10 47.667 -40.5 71 -91.5s35 -119.5 35 -205.5c0 -112 -21.667 -209.667 -65 -293
c-22 -41.333 -51.167 -74.333 -87.5 -99s-77.833 -37 -124.5 -37c-96.667 0 -159.667 37.333 -189 112c-50.667 -74.667 -118.334 -112 -203.001 -112c-73.333 0 -125.833 19.667 -157.5 59s-50.167 99.666 -55.5 180.999l-28 435h-62zM538.001 965.001
c20 0 39.333 -12.667 58 -38l108 -144l-21 -24l-141 95h-8l-141 -95l-21 24l108 144c18.667 25.333 38 38 58 38z" />
    <glyph glyph-name="wcircumflex" unicode="&#x175;" horiz-adv-x="944" 
d="M606 454l0.00292969 -333c0 -21.333 6.66699 -37.5 20 -48.5s30 -16.5 50 -16.5c42 0 78.333 21.833 109 65.5s46 97.167 46 160.5c0 32 -6.33301 65.667 -19 101c-12 -8 -27.333 -12 -46 -12s-35.5 7.5 -50.5 22.5s-22.5 33.167 -22.5 54.5s7.5 39.5 22.5 54.5
s33.833 22.5 56.5 22.5s42.167 -8.5 58.5 -25.5s28.166 -39.5 35.499 -67.5c12 -48.667 18 -96.334 18 -143.001s-5.66699 -87.334 -17 -122.001s-26 -62.834 -44 -84.501s-38.333 -40.167 -61 -55.5c-40.667 -28 -81.334 -42 -122.001 -42c-79.333 0 -134 26 -164 78
c-22 -25.333 -48 -44.666 -78 -57.999s-57.667 -20 -83 -20c-56.667 0 -101.5 14.167 -134.5 42.5s-49.5 69.833 -49.5 124.5v315c-36.667 -9.33301 -64.667 -25.666 -84 -48.999l-27 31c19.333 20 43.833 36 73.5 48s59 18 88 18s52.833 -5.83301 71.5 -17.5
s28 -26.167 28 -43.5v-333c0 -21.333 6.66699 -37.5 20 -48.5s30 -16.5 50 -16.5c45.333 0 80.666 22.333 105.999 67c-0.666992 6 -1 15.667 -1 29v315c-36.667 -9.33301 -64.667 -25.666 -84 -48.999l-27 31c19.333 20 43.833 36 73.5 48s59 18 88 18
s52.833 -5.83301 71.5 -17.5s28 -26.167 28 -43.5zM492.003 765c20 0 39.333 -12.667 58 -38l108 -144l-21 -24l-141 95h-8l-141 -95l-21 24l108 144c18.667 25.333 38 38 58 38z" />
    <glyph glyph-name="Ycircumflex" unicode="&#x176;" horiz-adv-x="607" 
d="M135 0v40h100v210l-182 410h-48v40h198l158 -392l90 392h151v-40h-47l-170 -410v-210h100v-40h-350zM313 965c20 0 39.333 -12.667 58 -38l108 -144l-21 -24l-141 95h-8l-141 -95l-21 24l108 144c18.667 25.333 38 38 58 38z" />
    <glyph glyph-name="ycircumflex" unicode="&#x177;" horiz-adv-x="627" 
d="M86.5 497c29.667 12 59.001 17.999 88.001 17.999s52.833 -5.83301 71.5 -17.5s28 -26.167 28 -43.5v-303c0 -21.333 6.66699 -37.5 20 -48.5s30 -16.5 50 -16.5c42.667 0 79.167 18.333 109.5 55s45.5 83.667 45.5 141c0 32 -6.33301 65.667 -19 101
c-12 -8 -27.333 -12 -46 -12s-35.5 7.5 -50.5 22.5s-22.5 33.167 -22.5 54.5s7.5 39.5 22.5 54.5s33.833 22.5 56.5 22.5s42.167 -8.5 58.5 -25.5s28.166 -39.5 35.499 -67.5c12 -48.667 18 -102.5 18 -161.5s-6.83301 -118.167 -20.5 -177.5s-31.667 -110.333 -54 -153
s-47.5 -79.667 -75.5 -111c-57.333 -62.667 -115.666 -94 -174.999 -94c-16 0 -29.167 3.5 -39.5 10.5s-22.166 19.833 -35.499 38.5l-52 72l26 27c32 -5.33301 60 -8 84 -8c74.667 0 135.667 23.667 183 71s84.666 124.333 111.999 231
c-41.333 -114.667 -117.333 -172 -228 -172c-42.667 0 -78.834 14.5 -108.501 43.5s-44.5 70.167 -44.5 123.5v295c-36.667 -9.33301 -64.667 -25.666 -84 -48.999l-27 31c19.333 20 43.833 36 73.5 48zM303.001 764.999c20 0 39.333 -12.667 58 -38l108 -144l-21 -24
l-141 95h-8l-141 -95l-21 24l108 144c18.667 25.333 38 38 58 38z" />
    <glyph glyph-name="Ydieresis" unicode="&#x178;" horiz-adv-x="654" 
d="M136 0v40h100v210l-172 410h-50v40h200l144 -377l127 377h151v-40h-47l-203 -413v-207h100v-40h-350zM376 870c0 21.333 7.33301 39.333 22 54s32.667 22 54 22s39.333 -7.33301 54 -22s22 -32.667 22 -54s-7.33301 -39.333 -22 -54s-32.667 -22 -54 -22
s-39.333 7.33301 -54 22s-22 32.667 -22 54zM146 870c0 21.333 7.33301 39.333 22 54s32.667 22 54 22s39.333 -7.33301 54 -22s22 -32.667 22 -54s-7.33301 -39.333 -22 -54s-32.667 -22 -54 -22s-39.333 7.33301 -54 22s-22 32.667 -22 54z" />
    <glyph glyph-name="Zacute" unicode="&#x179;" horiz-adv-x="590" 
d="M499 0h-468.999v40l363 620h-133c-44 0 -74.167 -4.33301 -90.5 -13s-27.5 -28 -33.5 -58l-20 -99h-39l-27 168c0 13.333 3 23.166 9 29.499s12.5 10 19.5 11s17.833 1.5 32.5 1.5h444v-40l-356 -620h151c43.333 0 73.166 4.33301 89.499 13s27.833 28 34.5 58l20 89h39
l27 -158c0 -13.333 -3 -23.166 -9 -29.499s-12.5 -10 -19.5 -11s-17.833 -1.5 -32.5 -1.5zM395.501 958c9 4.66699 20 6.99805 33 6.99805s25 -4.83301 36 -14.5s16.5 -22.167 16.5 -37.5s-6 -28.833 -18 -40.5s-33.667 -25.167 -65 -40.5l-148 -73l-21 24l119 132
c11.333 12.667 19.833 21.834 25.5 27.501s13 10.834 22 15.501z" />
    <glyph glyph-name="zacute" unicode="&#x17a;" horiz-adv-x="620" 
d="M489 0h-414v40l308 420h-83c-44 0 -74.167 -4.33301 -90.5 -13s-27.5 -28 -33.5 -58l-20 -99h-39l-27 168c0 13.333 3 23.166 9 29.499s12.5 10 19.5 11s17.833 1.5 32.5 1.5h394v-40l-301 -420h96c44 0 74.167 4.33301 90.5 13s27.5 28 33.5 58l20 99h39l27 -168
c0 -13.333 -3 -23.166 -9 -29.499s-12.5 -10 -19.5 -11s-17.833 -1.5 -32.5 -1.5zM400.5 758c9 4.66699 20 6.99805 33 6.99805s25 -4.83301 36 -14.5s16.5 -22.167 16.5 -37.5s-6 -28.833 -18 -40.5s-33.667 -25.167 -65 -40.5l-148 -73l-21 24l119 132
c11.333 12.667 19.833 21.834 25.5 27.501s13 10.834 22 15.501z" />
    <glyph glyph-name="Zdotaccent" unicode="&#x17b;" horiz-adv-x="590" 
d="M499 0h-468.999v40l363 620h-133c-44 0 -74.167 -4.33301 -90.5 -13s-27.5 -28 -33.5 -58l-20 -99h-39l-27 168c0 13.333 3 23.166 9 29.499s12.5 10 19.5 11s17.833 1.5 32.5 1.5h444v-40l-356 -620h151c43.333 0 73.166 4.33301 89.499 13s27.833 28 34.5 58l20 89h39
l27 -158c0 -13.333 -3 -23.166 -9 -29.499s-12.5 -10 -19.5 -11s-17.833 -1.5 -32.5 -1.5zM245.001 870c0 22 7.83301 40.833 23.5 56.5s34.5 23.5 56.5 23.5s40.833 -7.83301 56.5 -23.5s23.5 -34.5 23.5 -56.5s-7.83301 -40.833 -23.5 -56.5s-34.5 -23.5 -56.5 -23.5
s-40.833 7.83301 -56.5 23.5s-23.5 34.5 -23.5 56.5z" />
    <glyph glyph-name="zdotaccent" unicode="&#x17c;" horiz-adv-x="620" 
d="M489 0h-414v40l308 420h-83c-44 0 -74.167 -4.33301 -90.5 -13s-27.5 -28 -33.5 -58l-20 -99h-39l-27 168c0 13.333 3 23.166 9 29.499s12.5 10 19.5 11s17.833 1.5 32.5 1.5h394v-40l-301 -420h96c44 0 74.167 4.33301 90.5 13s27.5 28 33.5 58l20 99h39l27 -168
c0 -13.333 -3 -23.166 -9 -29.499s-12.5 -10 -19.5 -11s-17.833 -1.5 -32.5 -1.5zM250 670c0 22 7.83301 40.833 23.5 56.5s34.5 23.5 56.5 23.5s40.833 -7.83301 56.5 -23.5s23.5 -34.5 23.5 -56.5s-7.83301 -40.833 -23.5 -56.5s-34.5 -23.5 -56.5 -23.5
s-40.833 7.83301 -56.5 23.5s-23.5 34.5 -23.5 56.5z" />
    <glyph glyph-name="Zcaron" unicode="&#x17d;" horiz-adv-x="590" 
d="M499 0h-468.999v40l363 620h-133c-44 0 -74.167 -4.33301 -90.5 -13s-27.5 -28 -33.5 -58l-20 -99h-39l-27 168c0 13.333 3 23.166 9 29.499s12.5 10 19.5 11s17.833 1.5 32.5 1.5h444v-40l-356 -620h151c43.333 0 73.166 4.33301 89.499 13s27.833 28 34.5 58l20 89h39
l27 -158c0 -13.333 -3 -23.166 -9 -29.499s-12.5 -10 -19.5 -11s-17.833 -1.5 -32.5 -1.5zM315.001 759c-20 0 -39.333 12.667 -58 38l-108 144l21 24l141 -95h8l141 95l21 -24l-108 -144c-18.667 -25.333 -38 -38 -58 -38z" />
    <glyph glyph-name="zcaron" unicode="&#x17e;" horiz-adv-x="620" 
d="M489 0h-414v40l308 420h-83c-44 0 -74.167 -4.33301 -90.5 -13s-27.5 -28 -33.5 -58l-20 -99h-39l-27 168c0 13.333 3 23.166 9 29.499s12.5 10 19.5 11s17.833 1.5 32.5 1.5h394v-40l-301 -420h96c44 0 74.167 4.33301 90.5 13s27.5 28 33.5 58l20 99h39l27 -168
c0 -13.333 -3 -23.166 -9 -29.499s-12.5 -10 -19.5 -11s-17.833 -1.5 -32.5 -1.5zM320 559c-20 0 -39.333 12.667 -58 38l-108 144l21 24l141 -95h8l141 95l21 -24l-108 -144c-18.667 -25.333 -38 -38 -58 -38z" />
    </font>
</defs>
</svg>
